<svg width="40" height="40" viewBox="0 0 40 40" fill="none" xmlns="http://www.w3.org/2000/svg">
<g id="icon" clip-path="url(#clip0_912_5680)">
<rect id="Rectangle 58" width="40" height="40" rx="8" fill="#1B1B1B"/>
<path id="apple" d="M30.1908 15.5272C30.0714 15.5968 27.2298 17.0664 27.2298 20.3248C27.3637 24.0408 30.8158 25.3439 30.875 25.3439C30.8158 25.4136 30.3538 27.1192 28.9854 28.9071C27.8994 30.4472 26.6941 32 24.8637 32C23.1227 32 22.4976 30.9736 20.4887 30.9736C18.3313 30.9736 17.7209 32 16.0691 32C14.2387 32 12.9441 30.364 11.7989 28.8384C10.3111 26.8416 9.04653 23.708 9.00188 20.6992C8.9718 19.1048 9.29983 17.5375 10.1325 16.2063C11.3078 14.3479 13.406 13.0863 15.6974 13.0447C17.453 12.9895 19.0155 14.1679 20.0869 14.1679C21.1137 14.1679 23.0334 13.0447 25.2053 13.0447C26.1428 13.0456 28.6429 13.3088 30.1908 15.5272ZM19.9384 12.7264C19.6259 11.2704 20.4887 9.81435 21.2923 8.88558C22.3191 7.76237 23.9408 7 25.3393 7C25.4286 8.45601 24.8628 9.88399 23.8515 10.924C22.9441 12.0472 21.3816 12.8928 19.9384 12.7264Z" fill="white"/>
</g>
<defs>
<clipPath id="clip0_912_5680">
<rect width="40" height="40" fill="white"/>
</clipPath>
</defs>
</svg>
