<svg width="83" height="40" viewBox="0 0 83 40" fill="none" xmlns="http://www.w3.org/2000/svg">
<rect x="1.06445" y="0.5" width="80.9351" height="38.2157" rx="7.5" stroke="#C1C1C0"/>
<path d="M25.0364 20.9626H19.3073L17.9294 25.0238H15.5L20.9269 10H23.441L28.8679 25.0238H26.4022L25.0364 20.9626ZM19.8996 19.0892H24.4442L22.2081 12.5019H22.1477L19.8996 19.0892Z" fill="black"/>
<path d="M40.5795 19.5477C40.5795 22.9562 38.7544 25.1439 36.0107 25.1439C34.4515 25.1439 33.2066 24.4428 32.566 23.2342H32.5177V28.6611H30.2695V14.0725H32.4451V15.8975H32.4814C33.1099 14.7251 34.4394 13.9637 35.9745 13.9637C38.7423 13.9516 40.5795 16.1514 40.5795 19.5477ZM38.2588 19.5477C38.2588 17.3359 37.1106 15.8734 35.3701 15.8734C33.6538 15.8734 32.4935 17.36 32.4935 19.5477C32.4935 21.7596 33.6538 23.2342 35.3701 23.2342C37.1227 23.2342 38.2588 21.7838 38.2588 19.5477Z" fill="black"/>
<path d="M52.6186 19.5477C52.6186 22.9562 50.7935 25.1439 48.0498 25.1439C46.4906 25.1439 45.2457 24.4428 44.6051 23.2342H44.5567V28.6611H42.3086V14.0725H44.4842V15.8975H44.5205C45.149 14.7251 46.4785 13.9637 48.0135 13.9637C50.7814 13.9516 52.6186 16.1514 52.6186 19.5477ZM50.31 19.5477C50.31 17.3359 49.1618 15.8734 47.4213 15.8734C45.705 15.8734 44.5446 17.36 44.5446 19.5477C44.5446 21.7596 45.705 23.2342 47.4213 23.2342C49.1618 23.2342 50.31 21.7838 50.31 19.5477Z" fill="black"/>
<path d="M54.4297 10H56.6778V25.0238H54.4297V10Z" fill="black"/>
<path d="M68.3787 21.8083C68.0766 23.7905 66.1427 25.1563 63.6649 25.1563C60.474 25.1563 58.5039 23.0169 58.5039 19.5964C58.5039 16.1638 60.4982 13.9277 63.5682 13.9277C66.602 13.9277 68.4996 16.0066 68.4996 19.3305V20.104H60.7641V20.237C60.7641 22.1104 61.9365 23.3433 63.7133 23.3433C64.9582 23.3433 65.9372 22.751 66.2394 21.8083H68.3787ZM60.7762 18.5328H66.2515C66.2031 16.8527 65.1274 15.7528 63.5682 15.7528C62.0211 15.7528 60.8971 16.8769 60.7762 18.5328Z" fill="black"/>
</svg>
