<svg width="655" height="306" viewBox="0 0 655 306" fill="none" xmlns="http://www.w3.org/2000/svg">
<g clip-path="url(#clip0_3189_2506)">
<rect x="0.955078" y="0.60791" width="653.822" height="304.451" rx="9.98201" fill="white"/>
<path d="M13.1351 144.44C13.1351 145.224 12.9511 145.916 12.5831 146.516C12.2151 147.116 11.7031 147.584 11.0471 147.92C10.3911 148.248 9.62708 148.412 8.75508 148.412C7.87508 148.412 7.11108 148.248 6.46308 147.92C5.80708 147.584 5.29508 147.116 4.92708 146.516C4.55908 145.916 4.37508 145.224 4.37508 144.44C4.37508 143.616 4.59108 142.888 5.02308 142.256C5.45508 141.624 6.05508 141.168 6.82308 140.888L7.17108 142.1L7.14708 142.232C6.68308 142.416 6.32708 142.704 6.07908 143.096C5.82308 143.488 5.69508 143.932 5.69508 144.428C5.69508 144.948 5.82308 145.404 6.07908 145.796C6.32708 146.18 6.67908 146.48 7.13508 146.696C7.59108 146.912 8.13108 147.02 8.75508 147.02C9.37908 147.02 9.91908 146.912 10.3751 146.696C10.8311 146.48 11.1871 146.18 11.4431 145.796C11.6911 145.404 11.8151 144.948 11.8151 144.428C11.8151 143.932 11.6871 143.488 11.4311 143.096C11.1751 142.704 10.8191 142.416 10.3631 142.232L10.3391 142.1L10.6871 140.888C11.4551 141.168 12.0551 141.624 12.4871 142.256C12.9191 142.888 13.1351 143.616 13.1351 144.44ZM12.9551 139.674H4.31508L4.14708 138.33L4.24308 138.294H8.44308L8.41908 138.726C8.06708 138.598 7.76708 138.414 7.51908 138.174C7.26308 137.934 7.06708 137.654 6.93108 137.334C6.78708 137.014 6.71508 136.666 6.71508 136.29C6.71508 135.858 6.81108 135.47 7.00308 135.126C7.18708 134.774 7.46308 134.498 7.83108 134.298C8.19108 134.09 8.64308 133.986 9.18708 133.986H12.9551L12.9551 135.366H9.60708C9.22308 135.366 8.91108 135.418 8.67108 135.522C8.43108 135.626 8.25508 135.778 8.14308 135.978C8.03108 136.17 7.97508 136.394 7.97508 136.65C7.97508 136.89 8.03508 137.138 8.15508 137.394C8.27508 137.642 8.47508 137.854 8.75508 138.03C9.03508 138.206 9.41508 138.294 9.89508 138.294H12.9551V139.674ZM6.89508 126.899H12.9551V128.183H11.4071L11.4311 127.835C11.7831 127.963 12.0871 128.147 12.3431 128.387C12.5911 128.627 12.7871 128.907 12.9311 129.227C13.0671 129.547 13.1351 129.895 13.1351 130.271C13.1351 130.703 13.0431 131.095 12.8591 131.447C12.6671 131.791 12.3871 132.067 12.0191 132.275C11.6511 132.483 11.1951 132.587 10.6511 132.587H6.89508V131.207H10.2431C10.6191 131.207 10.9271 131.155 11.1671 131.051C11.4071 130.939 11.5871 130.787 11.7071 130.595C11.8191 130.395 11.8751 130.167 11.8751 129.911C11.8751 129.671 11.8151 129.427 11.6951 129.179C11.5671 128.923 11.3631 128.711 11.0831 128.543C10.8031 128.367 10.4231 128.279 9.94308 128.279H6.89508L6.89508 126.899ZM12.9551 125.379H6.89508V124.083H8.44308L8.41908 124.431C8.06708 124.303 7.76708 124.119 7.51908 123.879C7.26308 123.639 7.06708 123.359 6.93108 123.039C6.78708 122.719 6.71508 122.371 6.71508 121.995C6.71508 121.563 6.81108 121.175 7.00308 120.831C7.18708 120.479 7.46308 120.203 7.83108 120.003C8.19108 119.795 8.64308 119.691 9.18708 119.691H12.9551V121.071H9.60708C9.22308 121.071 8.91108 121.123 8.67108 121.227C8.43108 121.331 8.25508 121.483 8.14308 121.683C8.03108 121.875 7.97508 122.099 7.97508 122.355C7.97508 122.595 8.03508 122.843 8.15508 123.099C8.27508 123.347 8.47508 123.559 8.75508 123.735C9.03508 123.911 9.41508 123.999 9.89508 123.999H12.9551V125.379ZM11.8991 117.237H10.0631L6.89508 114.165L6.89508 112.461H6.99108L11.8991 117.237ZM12.9551 118.053H4.31508L4.14708 116.709L4.24308 116.673H12.9551V118.053ZM12.9551 113.973L9.90708 116.061L9.04308 115.101L12.8591 112.437H12.9551V113.973ZM13.1351 109.66C13.1351 110.316 12.9791 110.876 12.6671 111.34C12.3551 111.804 11.9271 112.112 11.3831 112.264L11.0711 111.004L11.0951 110.872C11.3511 110.8 11.5551 110.648 11.7071 110.416C11.8511 110.176 11.9231 109.9 11.9231 109.588C11.9231 109.284 11.8591 109.028 11.7311 108.82C11.5951 108.604 11.4231 108.496 11.2151 108.496C11.0391 108.496 10.8991 108.56 10.7951 108.688C10.6831 108.808 10.5991 108.996 10.5431 109.252L10.2911 110.392C10.1631 110.952 9.95108 111.38 9.65508 111.676C9.35108 111.964 8.98708 112.108 8.56308 112.108C8.19508 112.108 7.87508 112.008 7.60308 111.808C7.32308 111.6 7.10708 111.316 6.95508 110.956C6.79508 110.596 6.71508 110.184 6.71508 109.72C6.71508 109.088 6.87108 108.552 7.18308 108.112C7.49508 107.672 7.93108 107.38 8.49108 107.236L8.74308 108.436L8.71908 108.568C8.47908 108.632 8.28708 108.78 8.14308 109.012C7.99908 109.236 7.92708 109.492 7.92708 109.78C7.92708 110.052 7.98308 110.284 8.09508 110.476C8.19908 110.66 8.34308 110.752 8.52708 110.752C8.66308 110.752 8.78708 110.696 8.89908 110.584C9.00308 110.472 9.07908 110.296 9.12708 110.056L9.39108 108.916C9.52708 108.324 9.73508 107.88 10.0151 107.584C10.2871 107.28 10.6591 107.128 11.1311 107.128C11.5391 107.128 11.8951 107.24 12.1991 107.464C12.4951 107.68 12.7271 107.98 12.8951 108.364C13.0551 108.74 13.1351 109.172 13.1351 109.66Z" fill="#414141"/>
<path d="M293.366 290.265C293.366 289.849 293.242 289.525 292.994 289.293C292.754 289.061 292.41 288.945 291.962 288.945H289.502V287.697H292.07C292.894 287.697 293.542 287.929 294.014 288.393C294.494 288.857 294.734 289.481 294.734 290.265H293.366ZM288.794 296.097V287.697H290.138V296.097H288.794ZM289.502 292.821V291.573H291.962C292.41 291.573 292.754 291.457 292.994 291.225C293.242 290.993 293.366 290.673 293.366 290.265H294.734C294.734 291.041 294.494 291.661 294.014 292.125C293.542 292.589 292.894 292.821 292.07 292.821H289.502ZM298.384 296.277C297.768 296.277 297.224 296.141 296.752 295.869C296.288 295.597 295.924 295.221 295.66 294.741C295.396 294.261 295.264 293.701 295.264 293.061C295.264 292.429 295.392 291.873 295.648 291.393C295.912 290.905 296.272 290.529 296.728 290.265C297.192 289.993 297.724 289.857 298.324 289.857C298.924 289.857 299.444 289.997 299.884 290.277C300.332 290.549 300.68 290.933 300.928 291.429C301.184 291.925 301.312 292.505 301.312 293.169V293.397L301.132 293.577H295.912V292.425H300.688L299.956 292.701C299.948 292.365 299.868 292.077 299.716 291.837C299.572 291.589 299.38 291.401 299.14 291.273C298.908 291.137 298.644 291.069 298.348 291.069C298.028 291.069 297.736 291.145 297.472 291.297C297.208 291.441 297.004 291.645 296.86 291.909C296.716 292.165 296.644 292.465 296.644 292.809V293.289C296.644 293.617 296.72 293.917 296.872 294.189C297.032 294.453 297.244 294.665 297.508 294.825C297.772 294.985 298.064 295.065 298.384 295.065C298.688 295.065 298.964 294.985 299.212 294.825C299.468 294.657 299.668 294.433 299.812 294.153H299.956L301.072 294.633C300.832 295.153 300.476 295.557 300.004 295.845C299.54 296.133 299 296.277 298.384 296.277ZM302.502 296.097V290.037H303.798V291.585L303.45 291.561C303.618 291.089 303.898 290.717 304.29 290.445C304.682 290.173 305.13 290.037 305.634 290.037H306.222V291.273H305.43C305.118 291.273 304.846 291.345 304.614 291.489C304.382 291.625 304.202 291.821 304.074 292.077C303.946 292.333 303.882 292.637 303.882 292.989V296.097H302.502ZM307.589 296.097V289.521C307.589 288.889 307.765 288.389 308.117 288.021C308.469 287.645 308.941 287.457 309.533 287.457H310.313V288.573L310.253 288.705H309.857C309.545 288.705 309.317 288.773 309.173 288.909C309.037 289.045 308.969 289.273 308.969 289.593V296.097H307.589ZM306.557 291.273V290.037H310.313V291.273H306.557ZM313.782 296.277C313.174 296.277 312.638 296.141 312.174 295.869C311.71 295.597 311.346 295.221 311.082 294.741C310.818 294.253 310.686 293.693 310.686 293.061C310.686 292.437 310.818 291.885 311.082 291.405C311.346 290.917 311.71 290.537 312.174 290.265C312.638 289.993 313.174 289.857 313.782 289.857C314.398 289.857 314.938 289.993 315.402 290.265C315.866 290.537 316.23 290.917 316.494 291.405C316.758 291.885 316.89 292.437 316.89 293.061C316.89 293.693 316.758 294.253 316.494 294.741C316.23 295.221 315.866 295.597 315.402 295.869C314.938 296.141 314.398 296.277 313.782 296.277ZM313.782 295.029C314.134 295.029 314.438 294.949 314.694 294.789C314.95 294.629 315.15 294.401 315.294 294.105C315.438 293.809 315.51 293.465 315.51 293.073C315.51 292.665 315.438 292.317 315.294 292.029C315.15 291.733 314.95 291.505 314.694 291.345C314.438 291.185 314.134 291.105 313.782 291.105C313.438 291.105 313.138 291.185 312.882 291.345C312.626 291.505 312.426 291.733 312.282 292.029C312.138 292.317 312.066 292.661 312.066 293.061C312.066 293.461 312.138 293.809 312.282 294.105C312.426 294.401 312.626 294.629 312.882 294.789C313.138 294.949 313.438 295.029 313.782 295.029ZM318.088 296.097V290.037H319.384V291.585L319.036 291.561C319.204 291.089 319.484 290.717 319.876 290.445C320.268 290.173 320.716 290.037 321.22 290.037H321.808V291.273H321.016C320.704 291.273 320.432 291.345 320.2 291.489C319.968 291.625 319.788 291.821 319.66 292.077C319.532 292.333 319.468 292.637 319.468 292.989V296.097H318.088ZM322.635 296.097V290.037H323.931V291.513L323.703 291.285C323.839 290.981 324.015 290.725 324.231 290.517C324.447 290.309 324.699 290.149 324.987 290.037C325.275 289.917 325.599 289.857 325.959 289.857C326.463 289.857 326.911 289.997 327.303 290.277C327.695 290.557 327.959 290.969 328.095 291.513L327.651 291.489C327.787 291.145 327.979 290.853 328.227 290.613C328.475 290.373 328.763 290.189 329.091 290.061C329.427 289.925 329.779 289.857 330.147 289.857C330.555 289.857 330.927 289.953 331.263 290.145C331.607 290.329 331.879 290.605 332.079 290.973C332.287 291.333 332.391 291.785 332.391 292.329V296.097H331.011V292.665C331.011 292.305 330.959 292.013 330.855 291.789C330.751 291.557 330.607 291.389 330.423 291.285C330.239 291.173 330.027 291.117 329.787 291.117C329.563 291.117 329.327 291.177 329.079 291.297C328.839 291.417 328.631 291.617 328.455 291.897C328.287 292.169 328.203 292.549 328.203 293.037V296.097H326.823V292.665C326.823 292.305 326.771 292.013 326.667 291.789C326.563 291.557 326.419 291.389 326.235 291.285C326.051 291.173 325.839 291.117 325.599 291.117C325.375 291.117 325.139 291.177 324.891 291.297C324.651 291.417 324.443 291.617 324.267 291.897C324.099 292.177 324.015 292.557 324.015 293.037V296.097H322.635ZM335.722 296.277C335.306 296.277 334.934 296.197 334.606 296.037C334.286 295.877 334.034 295.653 333.85 295.365C333.666 295.077 333.574 294.749 333.574 294.381C333.574 293.813 333.77 293.361 334.162 293.025C334.554 292.681 335.118 292.481 335.854 292.425L338.206 292.233V293.373L336.058 293.553C335.674 293.585 335.398 293.665 335.23 293.793C335.062 293.921 334.978 294.093 334.978 294.309C334.978 294.525 335.074 294.701 335.266 294.837C335.458 294.973 335.702 295.041 335.998 295.041C336.31 295.041 336.59 294.965 336.838 294.813C337.094 294.653 337.298 294.449 337.45 294.201C337.602 293.953 337.678 293.685 337.678 293.397V292.401C337.678 292.017 337.55 291.701 337.294 291.453C337.038 291.197 336.702 291.069 336.286 291.069C335.934 291.069 335.642 291.157 335.41 291.333C335.186 291.501 335.042 291.713 334.978 291.969H334.846L333.67 291.681C333.814 291.137 334.114 290.697 334.57 290.361C335.034 290.025 335.61 289.857 336.298 289.857C337.154 289.857 337.822 290.105 338.302 290.601C338.782 291.089 339.022 291.781 339.022 292.677V296.097H337.798V294.333L338.29 294.405C338.194 294.749 338.022 295.065 337.774 295.353C337.526 295.633 337.226 295.857 336.874 296.025C336.53 296.193 336.146 296.277 335.722 296.277ZM340.483 296.097V290.037H341.779V291.585L341.431 291.561C341.559 291.209 341.743 290.909 341.983 290.661C342.223 290.405 342.503 290.209 342.823 290.073C343.143 289.929 343.491 289.857 343.867 289.857C344.299 289.857 344.687 289.953 345.031 290.145C345.383 290.329 345.659 290.605 345.859 290.973C346.067 291.333 346.171 291.785 346.171 292.329V296.097H344.791V292.749C344.791 292.365 344.739 292.053 344.635 291.813C344.531 291.573 344.379 291.397 344.179 291.285C343.987 291.173 343.763 291.117 343.507 291.117C343.267 291.117 343.019 291.177 342.763 291.297C342.515 291.417 342.303 291.617 342.127 291.897C341.951 292.177 341.863 292.557 341.863 293.037V296.097H340.483ZM350.463 296.277C349.839 296.277 349.291 296.141 348.819 295.869C348.347 295.597 347.979 295.221 347.715 294.741C347.451 294.261 347.319 293.701 347.319 293.061C347.319 292.429 347.451 291.873 347.715 291.393C347.979 290.905 348.347 290.529 348.819 290.265C349.291 289.993 349.839 289.857 350.463 289.857C350.943 289.857 351.371 289.937 351.747 290.097C352.131 290.257 352.455 290.493 352.719 290.805C352.983 291.117 353.183 291.501 353.319 291.957L352.167 292.281H352.023C351.911 291.921 351.711 291.637 351.423 291.429C351.135 291.213 350.815 291.105 350.463 291.105C350.103 291.105 349.791 291.185 349.527 291.345C349.263 291.505 349.059 291.733 348.915 292.029C348.771 292.317 348.699 292.661 348.699 293.061C348.699 293.453 348.771 293.797 348.915 294.093C349.059 294.389 349.263 294.621 349.527 294.789C349.791 294.949 350.103 295.029 350.463 295.029C350.719 295.029 350.951 294.981 351.159 294.885C351.375 294.789 351.563 294.653 351.723 294.477C351.883 294.301 352.003 294.089 352.083 293.841H352.227L353.379 294.165C353.235 294.629 353.027 295.021 352.755 295.341C352.483 295.653 352.155 295.889 351.771 296.049C351.395 296.201 350.959 296.277 350.463 296.277ZM357.33 296.277C356.714 296.277 356.17 296.141 355.698 295.869C355.234 295.597 354.87 295.221 354.606 294.741C354.342 294.261 354.21 293.701 354.21 293.061C354.21 292.429 354.338 291.873 354.594 291.393C354.858 290.905 355.218 290.529 355.674 290.265C356.138 289.993 356.67 289.857 357.27 289.857C357.87 289.857 358.39 289.997 358.83 290.277C359.278 290.549 359.626 290.933 359.874 291.429C360.13 291.925 360.258 292.505 360.258 293.169V293.397L360.078 293.577H354.858V292.425H359.634L358.902 292.701C358.894 292.365 358.814 292.077 358.662 291.837C358.518 291.589 358.326 291.401 358.086 291.273C357.854 291.137 357.59 291.069 357.294 291.069C356.974 291.069 356.682 291.145 356.418 291.297C356.154 291.441 355.95 291.645 355.806 291.909C355.662 292.165 355.59 292.465 355.59 292.809V293.289C355.59 293.617 355.666 293.917 355.818 294.189C355.978 294.453 356.19 294.665 356.454 294.825C356.718 294.985 357.01 295.065 357.33 295.065C357.634 295.065 357.91 294.985 358.158 294.825C358.414 294.657 358.614 294.433 358.758 294.153H358.902L360.018 294.633C359.778 295.153 359.422 295.557 358.95 295.845C358.486 296.133 357.946 296.277 357.33 296.277ZM368.242 296.097L368.254 295.845L371.734 287.697H373.066V287.949L369.586 296.097H368.242ZM364.45 296.097V287.697H365.83V296.097H364.45ZM368.254 296.097L364.762 287.949V287.697H366.106L369.586 295.845V296.097H368.254ZM371.998 296.097V287.697H373.378V296.097H371.998ZM377.826 296.277C377.21 296.277 376.666 296.141 376.194 295.869C375.73 295.597 375.366 295.221 375.102 294.741C374.838 294.261 374.706 293.701 374.706 293.061C374.706 292.429 374.834 291.873 375.09 291.393C375.354 290.905 375.714 290.529 376.17 290.265C376.634 289.993 377.166 289.857 377.766 289.857C378.366 289.857 378.886 289.997 379.326 290.277C379.774 290.549 380.122 290.933 380.37 291.429C380.626 291.925 380.754 292.505 380.754 293.169V293.397L380.574 293.577H375.354V292.425H380.13L379.398 292.701C379.39 292.365 379.31 292.077 379.158 291.837C379.014 291.589 378.822 291.401 378.582 291.273C378.35 291.137 378.086 291.069 377.79 291.069C377.47 291.069 377.178 291.145 376.914 291.297C376.65 291.441 376.446 291.645 376.302 291.909C376.158 292.165 376.086 292.465 376.086 292.809V293.289C376.086 293.617 376.162 293.917 376.314 294.189C376.474 294.453 376.686 294.665 376.95 294.825C377.214 294.985 377.506 295.065 377.826 295.065C378.13 295.065 378.406 294.985 378.654 294.825C378.91 294.657 379.11 294.433 379.254 294.153H379.398L380.514 294.633C380.274 295.153 379.918 295.557 379.446 295.845C378.982 296.133 378.442 296.277 377.826 296.277ZM384.193 296.097C383.601 296.097 383.129 295.913 382.777 295.545C382.425 295.169 382.249 294.665 382.249 294.033V288.465H383.629V293.889C383.629 294.209 383.709 294.449 383.869 294.609C384.037 294.769 384.277 294.849 384.589 294.849H385.213L385.273 294.981V296.097H384.193ZM381.217 291.273V290.037H385.273V291.273H381.217ZM386.537 296.097V290.037H387.833V291.585L387.485 291.561C387.653 291.089 387.933 290.717 388.325 290.445C388.717 290.173 389.165 290.037 389.669 290.037H390.257V291.273H389.465C389.153 291.273 388.881 291.345 388.649 291.489C388.417 291.625 388.237 291.821 388.109 292.077C387.981 292.333 387.917 292.637 387.917 292.989V296.097H386.537ZM391.084 296.097V290.037H392.464V296.097H391.084ZM391.78 289.125C391.54 289.125 391.336 289.041 391.168 288.873C391 288.705 390.916 288.497 390.916 288.249C390.916 288.017 391 287.817 391.168 287.649C391.336 287.473 391.544 287.385 391.792 287.385C392.024 287.385 392.224 287.473 392.392 287.649C392.568 287.817 392.656 288.021 392.656 288.261C392.656 288.501 392.568 288.705 392.392 288.873C392.224 289.041 392.02 289.125 391.78 289.125ZM396.822 296.277C396.198 296.277 395.65 296.141 395.178 295.869C394.706 295.597 394.338 295.221 394.074 294.741C393.81 294.261 393.678 293.701 393.678 293.061C393.678 292.429 393.81 291.873 394.074 291.393C394.338 290.905 394.706 290.529 395.178 290.265C395.65 289.993 396.198 289.857 396.822 289.857C397.302 289.857 397.73 289.937 398.106 290.097C398.49 290.257 398.814 290.493 399.078 290.805C399.342 291.117 399.542 291.501 399.678 291.957L398.526 292.281H398.382C398.27 291.921 398.07 291.637 397.782 291.429C397.494 291.213 397.174 291.105 396.822 291.105C396.462 291.105 396.15 291.185 395.886 291.345C395.622 291.505 395.418 291.733 395.274 292.029C395.13 292.317 395.058 292.661 395.058 293.061C395.058 293.453 395.13 293.797 395.274 294.093C395.418 294.389 395.622 294.621 395.886 294.789C396.15 294.949 396.462 295.029 396.822 295.029C397.078 295.029 397.31 294.981 397.518 294.885C397.734 294.789 397.922 294.653 398.082 294.477C398.242 294.301 398.362 294.089 398.442 293.841H398.586L399.738 294.165C399.594 294.629 399.386 295.021 399.114 295.341C398.842 295.653 398.514 295.889 398.13 296.049C397.754 296.201 397.318 296.277 396.822 296.277ZM403.053 296.277C402.397 296.277 401.837 296.121 401.373 295.809C400.909 295.497 400.601 295.069 400.449 294.525L401.709 294.213L401.841 294.237C401.913 294.493 402.065 294.697 402.297 294.849C402.537 294.993 402.813 295.065 403.125 295.065C403.429 295.065 403.685 295.001 403.893 294.873C404.109 294.737 404.217 294.565 404.217 294.357C404.217 294.181 404.153 294.041 404.025 293.937C403.905 293.825 403.717 293.741 403.461 293.685L402.321 293.433C401.761 293.305 401.333 293.093 401.037 292.797C400.749 292.493 400.605 292.129 400.605 291.705C400.605 291.337 400.705 291.017 400.905 290.745C401.113 290.465 401.397 290.249 401.757 290.097C402.117 289.937 402.529 289.857 402.993 289.857C403.625 289.857 404.161 290.013 404.601 290.325C405.041 290.637 405.333 291.073 405.477 291.633L404.277 291.885L404.145 291.861C404.081 291.621 403.933 291.429 403.701 291.285C403.477 291.141 403.221 291.069 402.933 291.069C402.661 291.069 402.429 291.125 402.237 291.237C402.053 291.341 401.961 291.485 401.961 291.669C401.961 291.805 402.017 291.929 402.129 292.041C402.241 292.145 402.417 292.221 402.657 292.269L403.797 292.533C404.389 292.669 404.833 292.877 405.129 293.157C405.433 293.429 405.585 293.801 405.585 294.273C405.585 294.681 405.473 295.037 405.249 295.341C405.033 295.637 404.733 295.869 404.349 296.037C403.973 296.197 403.541 296.277 403.053 296.277Z" fill="#414141"/>
<path d="M23.9833 20.5938V12.6617L24.4273 12.9977L22.4833 14.5697H22.3873V13.5378L24.0193 12.1937H24.8833V20.5938H23.9833ZM29.6757 20.7378C29.0277 20.7378 28.4677 20.5617 27.9957 20.2097C27.5237 19.8497 27.1557 19.3457 26.8917 18.6977C26.6357 18.0497 26.5077 17.2817 26.5077 16.3937C26.5077 15.5057 26.6357 14.7377 26.8917 14.0897C27.1557 13.4337 27.5237 12.9297 27.9957 12.5777C28.4677 12.2257 29.0277 12.0497 29.6757 12.0497C30.3237 12.0497 30.8837 12.2257 31.3557 12.5777C31.8357 12.9297 32.2037 13.4337 32.4597 14.0897C32.7157 14.7377 32.8437 15.5057 32.8437 16.3937C32.8437 17.2817 32.7157 18.0497 32.4597 18.6977C32.2037 19.3457 31.8357 19.8497 31.3557 20.2097C30.8837 20.5617 30.3237 20.7378 29.6757 20.7378ZM29.6757 19.8617C30.1397 19.8617 30.5357 19.7217 30.8637 19.4417C31.1997 19.1617 31.4597 18.7617 31.6437 18.2417C31.8277 17.7217 31.9197 17.1057 31.9197 16.3937C31.9197 15.6817 31.8277 15.0657 31.6437 14.5457C31.4597 14.0257 31.1997 13.6257 30.8637 13.3457C30.5357 13.0657 30.1397 12.9257 29.6757 12.9257C29.2197 12.9257 28.8237 13.0657 28.4877 13.3457C28.1517 13.6257 27.8917 14.0257 27.7077 14.5457C27.5237 15.0657 27.4317 15.6817 27.4317 16.3937C27.4317 17.1057 27.5237 17.7217 27.7077 18.2417C27.8917 18.7617 28.1517 19.1617 28.4877 19.4417C28.8237 19.7217 29.2197 19.8617 29.6757 19.8617ZM37.0936 20.7378C36.4456 20.7378 35.8856 20.5617 35.4136 20.2097C34.9416 19.8497 34.5736 19.3457 34.3096 18.6977C34.0536 18.0497 33.9256 17.2817 33.9256 16.3937C33.9256 15.5057 34.0536 14.7377 34.3096 14.0897C34.5736 13.4337 34.9416 12.9297 35.4136 12.5777C35.8856 12.2257 36.4456 12.0497 37.0936 12.0497C37.7416 12.0497 38.3016 12.2257 38.7736 12.5777C39.2536 12.9297 39.6216 13.4337 39.8776 14.0897C40.1336 14.7377 40.2616 15.5057 40.2616 16.3937C40.2616 17.2817 40.1336 18.0497 39.8776 18.6977C39.6216 19.3457 39.2536 19.8497 38.7736 20.2097C38.3016 20.5617 37.7416 20.7378 37.0936 20.7378ZM37.0936 19.8617C37.5576 19.8617 37.9536 19.7217 38.2816 19.4417C38.6176 19.1617 38.8776 18.7617 39.0616 18.2417C39.2456 17.7217 39.3376 17.1057 39.3376 16.3937C39.3376 15.6817 39.2456 15.0657 39.0616 14.5457C38.8776 14.0257 38.6176 13.6257 38.2816 13.3457C37.9536 13.0657 37.5576 12.9257 37.0936 12.9257C36.6376 12.9257 36.2416 13.0657 35.9056 13.3457C35.5696 13.6257 35.3096 14.0257 35.1256 14.5457C34.9416 15.0657 34.8496 15.6817 34.8496 16.3937C34.8496 17.1057 34.9416 17.7217 35.1256 18.2417C35.3096 18.7617 35.5696 19.1617 35.9056 19.4417C36.2416 19.7217 36.6376 19.8617 37.0936 19.8617Z" fill="#161617"/>
<path d="M29.7963 74.2192V74.1232L33.2523 66.2272L33.5283 66.6952H28.6203V65.8192H34.0203V66.6472L30.7803 74.2192H29.7963ZM37.5316 74.3632C36.9796 74.3632 36.4876 74.2592 36.0556 74.0512C35.6316 73.8432 35.2876 73.5512 35.0236 73.1752C34.7676 72.7992 34.6116 72.3632 34.5556 71.8672L35.3356 71.6992L35.4676 71.7232C35.5316 72.0912 35.6516 72.4072 35.8276 72.6712C36.0116 72.9352 36.2396 73.1392 36.5116 73.2832C36.7916 73.4192 37.1116 73.4872 37.4716 73.4872C37.9036 73.4872 38.2676 73.4032 38.5636 73.2352C38.8676 73.0672 39.0996 72.8352 39.2596 72.5392C39.4196 72.2352 39.4996 71.8872 39.4996 71.4952C39.4996 71.0952 39.4156 70.7432 39.2476 70.4392C39.0876 70.1352 38.8556 69.8992 38.5516 69.7312C38.2476 69.5632 37.8916 69.4792 37.4836 69.4792C37.0836 69.4792 36.7276 69.5672 36.4156 69.7432C36.1036 69.9112 35.8516 70.1592 35.6596 70.4872L34.6636 70.3192L35.3596 65.8192H39.9196V66.6952H35.8036L36.1876 66.4192L35.5996 69.8272H35.3596C35.4956 69.5872 35.6716 69.3752 35.8876 69.1912C36.1036 69.0072 36.3556 68.8632 36.6436 68.7592C36.9316 68.6552 37.2556 68.6032 37.6156 68.6032C38.1276 68.6032 38.5956 68.7232 39.0196 68.9632C39.4516 69.1952 39.7956 69.5272 40.0516 69.9592C40.3076 70.3832 40.4356 70.8872 40.4356 71.4712C40.4356 72.0472 40.3116 72.5552 40.0636 72.9952C39.8156 73.4272 39.4716 73.7632 39.0316 74.0032C38.5996 74.2432 38.0996 74.3632 37.5316 74.3632Z" fill="#161617"/>
<path d="M30.1137 127.989C29.5617 127.989 29.0697 127.885 28.6377 127.677C28.2137 127.469 27.8697 127.177 27.6057 126.801C27.3497 126.425 27.1937 125.989 27.1377 125.493L27.9177 125.325L28.0497 125.349C28.1137 125.717 28.2337 126.033 28.4097 126.297C28.5937 126.561 28.8217 126.765 29.0937 126.909C29.3737 127.045 29.6937 127.113 30.0537 127.113C30.4857 127.113 30.8497 127.029 31.1457 126.861C31.4497 126.693 31.6817 126.461 31.8417 126.165C32.0017 125.861 32.0817 125.513 32.0817 125.121C32.0817 124.721 31.9977 124.369 31.8297 124.065C31.6697 123.761 31.4377 123.525 31.1337 123.357C30.8297 123.189 30.4737 123.105 30.0657 123.105C29.6657 123.105 29.3097 123.193 28.9977 123.369C28.6857 123.537 28.4337 123.785 28.2417 124.113L27.2457 123.945L27.9417 119.445H32.5017V120.321H28.3857L28.7697 120.045L28.1817 123.453H27.9417C28.0777 123.213 28.2537 123.001 28.4697 122.817C28.6857 122.633 28.9377 122.489 29.2257 122.385C29.5137 122.281 29.8377 122.229 30.1977 122.229C30.7097 122.229 31.1777 122.349 31.6017 122.589C32.0337 122.821 32.3777 123.153 32.6337 123.585C32.8897 124.009 33.0177 124.513 33.0177 125.097C33.0177 125.673 32.8937 126.181 32.6457 126.621C32.3977 127.053 32.0537 127.389 31.6137 127.629C31.1817 127.869 30.6817 127.989 30.1137 127.989ZM37.0936 127.989C36.4456 127.989 35.8856 127.813 35.4136 127.461C34.9416 127.101 34.5736 126.597 34.3096 125.949C34.0536 125.301 33.9256 124.533 33.9256 123.645C33.9256 122.757 34.0536 121.989 34.3096 121.341C34.5736 120.685 34.9416 120.181 35.4136 119.829C35.8856 119.477 36.4456 119.301 37.0936 119.301C37.7416 119.301 38.3016 119.477 38.7736 119.829C39.2536 120.181 39.6216 120.685 39.8776 121.341C40.1336 121.989 40.2616 122.757 40.2616 123.645C40.2616 124.533 40.1336 125.301 39.8776 125.949C39.6216 126.597 39.2536 127.101 38.7736 127.461C38.3016 127.813 37.7416 127.989 37.0936 127.989ZM37.0936 127.113C37.5576 127.113 37.9536 126.973 38.2816 126.693C38.6176 126.413 38.8776 126.013 39.0616 125.493C39.2456 124.973 39.3376 124.357 39.3376 123.645C39.3376 122.933 39.2456 122.317 39.0616 121.797C38.8776 121.277 38.6176 120.877 38.2816 120.597C37.9536 120.317 37.5576 120.177 37.0936 120.177C36.6376 120.177 36.2416 120.317 35.9056 120.597C35.5696 120.877 35.3096 121.277 35.1256 121.797C34.9416 122.317 34.8496 122.933 34.8496 123.645C34.8496 124.357 34.9416 124.973 35.1256 125.493C35.3096 126.013 35.5696 126.413 35.9056 126.693C36.2416 126.973 36.6376 127.113 37.0936 127.113Z" fill="#161617"/>
<path d="M28.1854 181.471V180.655L31.3054 177.559C31.6334 177.223 31.8894 176.939 32.0734 176.707C32.2574 176.475 32.3854 176.259 32.4574 176.059C32.5294 175.859 32.5654 175.647 32.5654 175.423C32.5654 175.151 32.4974 174.891 32.3614 174.643C32.2334 174.395 32.0414 174.195 31.7854 174.043C31.5294 173.883 31.2134 173.803 30.8374 173.803C30.5014 173.803 30.1894 173.879 29.9014 174.031C29.6214 174.183 29.3934 174.415 29.2174 174.727C29.0414 175.039 28.9534 175.431 28.9534 175.903L28.8214 175.927L28.0414 175.747C28.0414 175.155 28.1694 174.651 28.4254 174.235C28.6814 173.811 29.0214 173.487 29.4454 173.263C29.8694 173.039 30.3294 172.927 30.8254 172.927C31.3454 172.927 31.8054 173.039 32.2054 173.263C32.6134 173.487 32.9294 173.791 33.1534 174.175C33.3854 174.551 33.5014 174.979 33.5014 175.459C33.5014 175.779 33.4494 176.071 33.3454 176.335C33.2494 176.591 33.0894 176.859 32.8654 177.139C32.6414 177.419 32.3414 177.751 31.9654 178.135L29.3014 180.787L29.1334 180.595H33.7654V181.471H28.1854ZM37.5316 181.615C36.9796 181.615 36.4876 181.511 36.0556 181.303C35.6316 181.095 35.2876 180.803 35.0236 180.427C34.7676 180.051 34.6116 179.615 34.5556 179.119L35.3356 178.951L35.4676 178.975C35.5316 179.343 35.6516 179.659 35.8276 179.923C36.0116 180.187 36.2396 180.391 36.5116 180.535C36.7916 180.671 37.1116 180.739 37.4716 180.739C37.9036 180.739 38.2676 180.655 38.5636 180.487C38.8676 180.319 39.0996 180.087 39.2596 179.791C39.4196 179.487 39.4996 179.139 39.4996 178.747C39.4996 178.347 39.4156 177.995 39.2476 177.691C39.0876 177.387 38.8556 177.151 38.5516 176.983C38.2476 176.815 37.8916 176.731 37.4836 176.731C37.0836 176.731 36.7276 176.819 36.4156 176.995C36.1036 177.163 35.8516 177.411 35.6596 177.739L34.6636 177.571L35.3596 173.071H39.9196V173.947H35.8036L36.1876 173.671L35.5996 177.079H35.3596C35.4956 176.839 35.6716 176.627 35.8876 176.443C36.1036 176.259 36.3556 176.115 36.6436 176.011C36.9316 175.907 37.2556 175.855 37.6156 175.855C38.1276 175.855 38.5956 175.975 39.0196 176.215C39.4516 176.447 39.7956 176.779 40.0516 177.211C40.3076 177.635 40.4356 178.139 40.4356 178.723C40.4356 179.299 40.3116 179.807 40.0636 180.247C39.8156 180.679 39.4716 181.015 39.0316 181.255C38.5996 181.495 38.0996 181.615 37.5316 181.615Z" fill="#161617"/>
<path d="M37.0936 235.24C36.4456 235.24 35.8856 235.064 35.4136 234.712C34.9416 234.352 34.5736 233.848 34.3096 233.2C34.0536 232.552 33.9256 231.784 33.9256 230.896C33.9256 230.008 34.0536 229.24 34.3096 228.592C34.5736 227.936 34.9416 227.432 35.4136 227.08C35.8856 226.728 36.4456 226.552 37.0936 226.552C37.7416 226.552 38.3016 226.728 38.7736 227.08C39.2536 227.432 39.6216 227.936 39.8776 228.592C40.1336 229.24 40.2616 230.008 40.2616 230.896C40.2616 231.784 40.1336 232.552 39.8776 233.2C39.6216 233.848 39.2536 234.352 38.7736 234.712C38.3016 235.064 37.7416 235.24 37.0936 235.24ZM37.0936 234.364C37.5576 234.364 37.9536 234.224 38.2816 233.944C38.6176 233.664 38.8776 233.264 39.0616 232.744C39.2456 232.224 39.3376 231.608 39.3376 230.896C39.3376 230.184 39.2456 229.568 39.0616 229.048C38.8776 228.528 38.6176 228.128 38.2816 227.848C37.9536 227.568 37.5576 227.428 37.0936 227.428C36.6376 227.428 36.2416 227.568 35.9056 227.848C35.5696 228.128 35.3096 228.528 35.1256 229.048C34.9416 229.568 34.8496 230.184 34.8496 230.896C34.8496 231.608 34.9416 232.224 35.1256 232.744C35.3096 233.264 35.5696 233.664 35.9056 233.944C36.2416 234.224 36.6376 234.364 37.0936 234.364Z" fill="#161617"/>
<line x1="50.3386" y1="15.1097" x2="653.308" y2="15.1097" stroke="#F1F1F4" stroke-width="0.942746" stroke-linecap="square" stroke-dasharray="1.89 2.83"/>
<line x1="50.3386" y1="68.9573" x2="653.308" y2="68.9573" stroke="#F1F1F4" stroke-width="0.942746" stroke-linecap="square" stroke-dasharray="1.89 2.83"/>
<line x1="50.3386" y1="122.805" x2="653.308" y2="122.805" stroke="#F1F1F4" stroke-width="0.942746" stroke-linecap="square" stroke-dasharray="1.89 2.83"/>
<line x1="50.3386" y1="176.652" x2="653.308" y2="176.652" stroke="#F1F1F4" stroke-width="0.942746" stroke-linecap="square" stroke-dasharray="1.89 2.83"/>
<line x1="50.3386" y1="230.499" x2="653.308" y2="230.499" stroke="#F1F1F4" stroke-width="0.942746" stroke-linecap="square" stroke-dasharray="1.89 2.83"/>
<path d="M86.9972 256.325C86.2292 256.325 85.5452 256.145 84.9452 255.785C84.3452 255.417 83.8732 254.905 83.5292 254.249C83.1932 253.593 83.0252 252.829 83.0252 251.957C83.0252 251.093 83.1932 250.337 83.5292 249.689C83.8652 249.033 84.3332 248.525 84.9332 248.165C85.5412 247.797 86.2372 247.613 87.0212 247.613C87.8372 247.613 88.5532 247.821 89.1692 248.237C89.7852 248.653 90.2332 249.221 90.5132 249.941L89.6612 250.193L89.5292 250.169C89.2892 249.665 88.9532 249.281 88.5212 249.017C88.0972 248.745 87.6052 248.609 87.0452 248.609C86.4692 248.609 85.9572 248.745 85.5092 249.017C85.0612 249.289 84.7092 249.677 84.4532 250.181C84.1972 250.685 84.0692 251.273 84.0692 251.945C84.0692 252.633 84.1972 253.233 84.4532 253.745C84.7092 254.249 85.0612 254.641 85.5092 254.921C85.9652 255.193 86.4812 255.329 87.0572 255.329C87.5932 255.329 88.0692 255.205 88.4852 254.957C88.9012 254.709 89.2252 254.381 89.4572 253.973C89.6892 253.565 89.8052 253.121 89.8052 252.641V252.197L90.3212 252.581H87.2012V251.597H90.5852L90.7532 251.765V256.169H89.8172V254.189H90.1772C89.9932 254.653 89.7372 255.045 89.4092 255.365C89.0892 255.685 88.7212 255.925 88.3052 256.085C87.8892 256.245 87.4532 256.325 86.9972 256.325ZM92.3941 256.169V250.157H93.3781V251.849L93.0901 251.669C93.2341 251.205 93.5021 250.837 93.8941 250.565C94.2861 250.293 94.7261 250.157 95.2141 250.157H95.8261V251.117H95.0581C94.7301 251.117 94.4421 251.197 94.1941 251.357C93.9541 251.509 93.7621 251.725 93.6181 252.005C93.4821 252.277 93.4141 252.597 93.4141 252.965V256.169H92.3941ZM99.1591 256.325C98.5751 256.325 98.0591 256.193 97.6111 255.929C97.1631 255.657 96.8111 255.285 96.5551 254.813C96.2991 254.333 96.1711 253.781 96.1711 253.157C96.1711 252.533 96.2991 251.985 96.5551 251.513C96.8111 251.033 97.1631 250.661 97.6111 250.397C98.0591 250.133 98.5751 250.001 99.1591 250.001C99.7511 250.001 100.271 250.133 100.719 250.397C101.167 250.661 101.519 251.033 101.775 251.513C102.031 251.985 102.159 252.533 102.159 253.157C102.159 253.781 102.031 254.333 101.775 254.813C101.519 255.285 101.167 255.657 100.719 255.929C100.271 256.193 99.7511 256.325 99.1591 256.325ZM99.1591 255.353C99.5511 255.353 99.8911 255.265 100.179 255.089C100.475 254.905 100.707 254.649 100.875 254.321C101.043 253.985 101.127 253.597 101.127 253.157C101.127 252.709 101.043 252.325 100.875 252.005C100.707 251.677 100.475 251.425 100.179 251.249C99.8911 251.065 99.5511 250.973 99.1591 250.973C98.7751 250.973 98.4351 251.065 98.1391 251.249C97.8431 251.425 97.6111 251.677 97.4431 252.005C97.2751 252.325 97.1911 252.709 97.1911 253.157C97.1911 253.597 97.2751 253.985 97.4431 254.321C97.6111 254.649 97.8431 254.905 98.1391 255.089C98.4351 255.265 98.7751 255.353 99.1591 255.353ZM104.519 256.169L102.563 250.253V250.157H103.583L105.227 255.341L105.479 256.169H104.519ZM104.519 256.169L104.831 255.341L106.559 250.157H107.519L107.483 250.253L105.479 256.169H104.519ZM108.599 256.169L106.607 250.253L106.559 250.157H107.519L109.247 255.341L109.559 256.169H108.599ZM108.599 256.169L108.851 255.341L110.483 250.157H111.515V250.253L109.559 256.169H108.599ZM114.771 256.169C114.252 256.169 113.828 256.005 113.5 255.677C113.172 255.341 113.008 254.889 113.008 254.321V248.537H114.028V254.237C114.028 254.581 114.104 254.829 114.256 254.981C114.408 255.125 114.652 255.197 114.988 255.197H115.708L115.768 255.329V256.169H114.771ZM111.976 251.117V250.157H115.768V251.117H111.976ZM117.169 256.169V247.529L118.153 247.409L118.189 247.505V251.849L117.865 251.669C117.977 251.325 118.153 251.029 118.393 250.781C118.633 250.533 118.913 250.341 119.233 250.205C119.561 250.069 119.909 250.001 120.277 250.001C120.709 250.001 121.093 250.093 121.429 250.277C121.773 250.461 122.041 250.733 122.233 251.093C122.425 251.453 122.521 251.905 122.521 252.449V256.169H121.501V252.701C121.501 252.269 121.437 251.929 121.309 251.681C121.181 251.425 121.005 251.245 120.781 251.141C120.565 251.037 120.317 250.985 120.037 250.985C119.733 250.985 119.437 251.061 119.149 251.213C118.869 251.357 118.637 251.577 118.453 251.873C118.277 252.169 118.189 252.537 118.189 252.977V256.169H117.169Z" fill="#161617"/>
<path d="M193.345 256.169L193.357 255.917L196.837 247.769H197.809V248.021L194.329 256.169H193.345ZM189.553 256.169V247.769H190.573V256.169H189.553ZM193.357 256.169L189.865 248.021V247.769H190.849L194.329 255.917V256.169H193.357ZM197.101 256.169V247.769H198.121V256.169H197.101ZM202.514 256.325C201.93 256.325 201.414 256.193 200.966 255.929C200.518 255.657 200.166 255.285 199.91 254.813C199.662 254.341 199.538 253.789 199.538 253.157C199.538 252.533 199.662 251.985 199.91 251.513C200.158 251.033 200.502 250.661 200.942 250.397C201.39 250.133 201.902 250.001 202.478 250.001C203.046 250.001 203.542 250.137 203.966 250.409C204.398 250.673 204.734 251.049 204.974 251.537C205.214 252.025 205.334 252.593 205.334 253.241V253.385L205.154 253.553H200.102V252.605H204.782L204.302 252.797C204.278 252.413 204.182 252.085 204.014 251.813C203.846 251.541 203.63 251.333 203.366 251.189C203.102 251.037 202.806 250.961 202.478 250.961C202.126 250.961 201.802 251.049 201.506 251.225C201.21 251.393 200.978 251.633 200.81 251.945C200.642 252.257 200.558 252.617 200.558 253.025V253.265C200.558 253.665 200.642 254.025 200.81 254.345C200.978 254.657 201.21 254.905 201.506 255.089C201.802 255.273 202.138 255.365 202.514 255.365C202.882 255.365 203.202 255.277 203.474 255.101C203.746 254.917 203.958 254.669 204.11 254.357H204.254L205.094 254.729C204.87 255.225 204.53 255.617 204.074 255.905C203.626 256.185 203.106 256.325 202.514 256.325ZM209.241 256.325C208.657 256.325 208.141 256.193 207.693 255.929C207.245 255.657 206.893 255.285 206.637 254.813C206.389 254.341 206.265 253.789 206.265 253.157C206.265 252.533 206.389 251.985 206.637 251.513C206.885 251.033 207.229 250.661 207.669 250.397C208.117 250.133 208.629 250.001 209.205 250.001C209.773 250.001 210.269 250.137 210.693 250.409C211.125 250.673 211.461 251.049 211.701 251.537C211.941 252.025 212.061 252.593 212.061 253.241V253.385L211.881 253.553H206.829V252.605H211.509L211.029 252.797C211.005 252.413 210.909 252.085 210.741 251.813C210.573 251.541 210.357 251.333 210.093 251.189C209.829 251.037 209.533 250.961 209.205 250.961C208.853 250.961 208.529 251.049 208.233 251.225C207.937 251.393 207.705 251.633 207.537 251.945C207.369 252.257 207.285 252.617 207.285 253.025V253.265C207.285 253.665 207.369 254.025 207.537 254.345C207.705 254.657 207.937 254.905 208.233 255.089C208.529 255.273 208.865 255.365 209.241 255.365C209.609 255.365 209.929 255.277 210.201 255.101C210.473 254.917 210.685 254.669 210.837 254.357H210.981L211.821 254.729C211.597 255.225 211.257 255.617 210.801 255.905C210.353 256.185 209.833 256.325 209.241 256.325ZM215.373 256.169C214.853 256.169 214.429 256.005 214.101 255.677C213.773 255.341 213.609 254.889 213.609 254.321V248.537H214.629V254.237C214.629 254.581 214.705 254.829 214.857 254.981C215.009 255.125 215.253 255.197 215.589 255.197H216.309L216.369 255.329V256.169H215.373ZM212.577 251.117V250.157H216.369V251.117H212.577ZM217.711 256.169V250.157H218.731V256.169H217.711ZM218.227 249.041C218.027 249.041 217.859 248.973 217.723 248.837C217.587 248.701 217.519 248.533 217.519 248.333C217.519 248.133 217.587 247.965 217.723 247.829C217.859 247.685 218.027 247.613 218.227 247.613C218.427 247.613 218.595 247.685 218.731 247.829C218.875 247.965 218.947 248.133 218.947 248.333C218.947 248.533 218.875 248.701 218.731 248.837C218.595 248.973 218.427 249.041 218.227 249.041ZM220.371 256.169V250.157H221.355V251.849L221.067 251.669C221.179 251.325 221.355 251.029 221.595 250.781C221.835 250.533 222.115 250.341 222.435 250.205C222.763 250.069 223.111 250.001 223.479 250.001C223.911 250.001 224.295 250.093 224.631 250.277C224.975 250.461 225.243 250.733 225.435 251.093C225.627 251.453 225.723 251.905 225.723 252.449V256.169H224.703V252.701C224.703 252.269 224.639 251.929 224.511 251.681C224.383 251.425 224.207 251.245 223.983 251.141C223.767 251.037 223.519 250.985 223.239 250.985C222.935 250.985 222.639 251.061 222.351 251.213C222.071 251.357 221.839 251.577 221.655 251.873C221.479 252.169 221.391 252.537 221.391 252.977V256.169H220.371ZM229.195 258.569C228.411 258.569 227.799 258.409 227.359 258.089C226.919 257.769 226.699 257.337 226.699 256.793C226.699 256.449 226.783 256.145 226.951 255.881C227.127 255.609 227.383 255.401 227.719 255.257L228.235 255.773C228.059 255.853 227.923 255.969 227.827 256.121C227.731 256.273 227.683 256.437 227.683 256.613C227.683 256.917 227.803 257.165 228.043 257.357C228.291 257.557 228.639 257.657 229.087 257.657H229.927C230.391 257.657 230.755 257.577 231.019 257.417C231.283 257.265 231.415 257.037 231.415 256.733C231.415 256.517 231.327 256.345 231.151 256.217C230.983 256.089 230.731 256.025 230.395 256.025H228.775C228.455 256.025 228.163 255.969 227.899 255.857C227.643 255.737 227.439 255.577 227.287 255.377C227.135 255.169 227.059 254.929 227.059 254.657C227.059 254.393 227.139 254.149 227.299 253.925C227.459 253.701 227.707 253.525 228.043 253.397L228.607 253.901C228.391 253.941 228.235 254.021 228.139 254.141C228.051 254.253 228.007 254.385 228.007 254.537C228.007 254.721 228.083 254.865 228.235 254.969C228.387 255.073 228.595 255.125 228.859 255.125H230.431C231.031 255.125 231.507 255.273 231.859 255.569C232.211 255.865 232.387 256.253 232.387 256.733C232.387 257.301 232.163 257.749 231.715 258.077C231.267 258.405 230.667 258.569 229.915 258.569H229.195ZM229.591 254.285C229.119 254.285 228.699 254.193 228.331 254.009C227.971 253.825 227.691 253.573 227.491 253.253C227.291 252.925 227.191 252.553 227.191 252.137C227.191 251.713 227.291 251.341 227.491 251.021C227.691 250.701 227.971 250.453 228.331 250.277C228.699 250.093 229.119 250.001 229.591 250.001C230.071 250.001 230.487 250.093 230.839 250.277C231.199 250.453 231.479 250.701 231.679 251.021C231.887 251.341 231.991 251.713 231.991 252.137C231.991 252.553 231.887 252.925 231.679 253.253C231.479 253.573 231.199 253.825 230.839 254.009C230.487 254.193 230.071 254.285 229.591 254.285ZM229.591 253.397C230.015 253.397 230.359 253.281 230.623 253.049C230.887 252.817 231.019 252.513 231.019 252.137C231.019 251.769 230.887 251.469 230.623 251.237C230.359 251.005 230.015 250.889 229.591 250.889C229.159 250.889 228.811 251.005 228.547 251.237C228.291 251.469 228.163 251.769 228.163 252.137C228.163 252.513 228.291 252.817 228.547 253.049C228.811 253.281 229.159 253.397 229.591 253.397ZM231.235 250.913L230.563 250.493C230.563 250.181 230.627 249.901 230.755 249.653C230.891 249.405 231.067 249.213 231.283 249.077C231.499 248.933 231.743 248.861 232.015 248.861C232.079 248.861 232.147 248.865 232.219 248.873C232.299 248.873 232.359 248.881 232.399 248.897V249.821L232.339 249.953C232.259 249.929 232.163 249.917 232.051 249.917C231.779 249.917 231.575 250.009 231.439 250.193C231.303 250.377 231.235 250.617 231.235 250.913ZM236.264 256.169V247.769H237.284V256.169H236.264ZM236.792 256.169V255.185H241.628V256.169H236.792ZM236.792 252.413V251.417H241.364V252.413H236.792ZM236.792 248.753V247.769H241.628V248.753H236.792ZM246.491 256.169L242.279 250.253V250.157H243.431L247.643 256.073V256.169H246.491ZM242.255 256.169V256.073L244.667 252.701L245.279 253.493L243.407 256.169H242.255ZM245.351 253.529L244.727 252.713L246.503 250.157H247.619V250.253L245.351 253.529ZM251.591 256.325C251.175 256.325 250.791 256.241 250.439 256.073C250.095 255.897 249.799 255.661 249.551 255.365C249.311 255.069 249.135 254.733 249.023 254.357V251.957C249.135 251.573 249.311 251.237 249.551 250.949C249.799 250.653 250.095 250.421 250.439 250.253C250.791 250.085 251.175 250.001 251.591 250.001C252.135 250.001 252.619 250.137 253.043 250.409C253.467 250.681 253.807 251.057 254.063 251.537C254.319 252.009 254.447 252.549 254.447 253.157C254.447 253.773 254.319 254.321 254.063 254.801C253.807 255.273 253.467 255.645 253.043 255.917C252.619 256.189 252.135 256.325 251.591 256.325ZM248.507 258.569V250.157H249.491V252.305L249.311 253.157L249.527 254.021V258.569H248.507ZM251.519 255.353C251.887 255.353 252.215 255.261 252.503 255.077C252.791 254.885 253.015 254.625 253.175 254.297C253.343 253.969 253.427 253.589 253.427 253.157C253.427 252.725 253.343 252.345 253.175 252.017C253.015 251.689 252.791 251.433 252.503 251.249C252.215 251.065 251.887 250.973 251.519 250.973C251.135 250.973 250.791 251.065 250.487 251.249C250.191 251.433 249.955 251.689 249.779 252.017C249.611 252.345 249.527 252.725 249.527 253.157C249.527 253.589 249.611 253.969 249.779 254.297C249.955 254.625 250.191 254.885 250.487 255.077C250.791 255.261 251.135 255.353 251.519 255.353ZM258.354 256.325C257.77 256.325 257.254 256.193 256.806 255.929C256.358 255.657 256.006 255.285 255.75 254.813C255.502 254.341 255.378 253.789 255.378 253.157C255.378 252.533 255.502 251.985 255.75 251.513C255.998 251.033 256.342 250.661 256.782 250.397C257.23 250.133 257.742 250.001 258.318 250.001C258.886 250.001 259.382 250.137 259.806 250.409C260.238 250.673 260.574 251.049 260.814 251.537C261.054 252.025 261.174 252.593 261.174 253.241V253.385L260.994 253.553H255.942V252.605H260.622L260.142 252.797C260.118 252.413 260.022 252.085 259.854 251.813C259.686 251.541 259.47 251.333 259.206 251.189C258.942 251.037 258.646 250.961 258.318 250.961C257.966 250.961 257.642 251.049 257.346 251.225C257.05 251.393 256.818 251.633 256.65 251.945C256.482 252.257 256.398 252.617 256.398 253.025V253.265C256.398 253.665 256.482 254.025 256.65 254.345C256.818 254.657 257.05 254.905 257.346 255.089C257.642 255.273 257.978 255.365 258.354 255.365C258.722 255.365 259.042 255.277 259.314 255.101C259.586 254.917 259.798 254.669 259.95 254.357H260.094L260.934 254.729C260.71 255.225 260.37 255.617 259.914 255.905C259.466 256.185 258.946 256.325 258.354 256.325ZM265.141 256.325C264.541 256.325 264.013 256.193 263.557 255.929C263.101 255.657 262.745 255.285 262.489 254.813C262.233 254.341 262.105 253.789 262.105 253.157C262.105 252.533 262.233 251.985 262.489 251.513C262.745 251.033 263.101 250.661 263.557 250.397C264.013 250.133 264.541 250.001 265.141 250.001C265.597 250.001 266.005 250.085 266.365 250.253C266.733 250.413 267.045 250.645 267.301 250.949C267.565 251.245 267.761 251.609 267.889 252.041L267.001 252.293H266.869C266.733 251.885 266.509 251.565 266.197 251.333C265.893 251.093 265.541 250.973 265.141 250.973C264.733 250.973 264.377 251.065 264.073 251.249C263.777 251.433 263.545 251.689 263.377 252.017C263.209 252.345 263.125 252.725 263.125 253.157C263.125 253.589 263.209 253.973 263.377 254.309C263.545 254.637 263.777 254.893 264.073 255.077C264.377 255.261 264.733 255.353 265.141 255.353C265.421 255.353 265.677 255.301 265.909 255.197C266.141 255.093 266.341 254.941 266.509 254.741C266.685 254.541 266.821 254.305 266.917 254.033H267.049L267.949 254.285C267.805 254.717 267.597 255.089 267.325 255.401C267.053 255.705 266.733 255.937 266.365 256.097C266.005 256.249 265.597 256.325 265.141 256.325ZM271.201 256.169C270.681 256.169 270.257 256.005 269.929 255.677C269.601 255.341 269.437 254.889 269.437 254.321V248.537H270.457V254.237C270.457 254.581 270.533 254.829 270.685 254.981C270.837 255.125 271.081 255.197 271.417 255.197H272.137L272.197 255.329V256.169H271.201ZM268.405 251.117V250.157H272.197V251.117H268.405ZM275.2 256.325C274.784 256.325 274.412 256.245 274.084 256.085C273.764 255.925 273.512 255.705 273.328 255.425C273.144 255.137 273.052 254.809 273.052 254.441C273.052 253.913 273.24 253.485 273.616 253.157C274 252.829 274.528 252.637 275.2 252.581L277.516 252.413V253.325L275.404 253.493C274.964 253.525 274.636 253.621 274.42 253.781C274.212 253.933 274.108 254.149 274.108 254.429C274.108 254.693 274.22 254.913 274.444 255.089C274.668 255.265 274.956 255.353 275.308 255.353C275.668 255.353 275.996 255.269 276.292 255.101C276.588 254.933 276.82 254.709 276.988 254.429C277.164 254.149 277.252 253.837 277.252 253.493V252.521C277.252 252.065 277.108 251.689 276.82 251.393C276.54 251.097 276.164 250.949 275.692 250.949C275.324 250.949 275.008 251.041 274.744 251.225C274.48 251.401 274.3 251.649 274.204 251.969H274.072L273.184 251.681C273.36 251.145 273.668 250.729 274.108 250.433C274.548 250.137 275.08 249.989 275.704 249.989C276.52 249.989 277.148 250.233 277.588 250.721C278.036 251.209 278.26 251.897 278.26 252.785V256.169H277.3V254.417L277.66 254.609C277.564 254.937 277.392 255.233 277.144 255.497C276.904 255.753 276.616 255.957 276.28 256.109C275.952 256.253 275.592 256.325 275.2 256.325ZM281.689 256.169C281.169 256.169 280.745 256.005 280.417 255.677C280.089 255.341 279.925 254.889 279.925 254.321V248.537H280.945V254.237C280.945 254.581 281.021 254.829 281.173 254.981C281.325 255.125 281.569 255.197 281.905 255.197H282.625L282.685 255.329V256.169H281.689ZM278.893 251.117V250.157H282.685V251.117H278.893ZM284.027 256.169V250.157H285.047V256.169H284.027ZM284.543 249.041C284.343 249.041 284.175 248.973 284.039 248.837C283.903 248.701 283.835 248.533 283.835 248.333C283.835 248.133 283.903 247.965 284.039 247.829C284.175 247.685 284.343 247.613 284.543 247.613C284.743 247.613 284.911 247.685 285.047 247.829C285.191 247.965 285.263 248.133 285.263 248.333C285.263 248.533 285.191 248.701 285.047 248.837C284.911 248.973 284.743 249.041 284.543 249.041ZM289.327 256.325C288.743 256.325 288.227 256.193 287.779 255.929C287.331 255.657 286.979 255.285 286.723 254.813C286.467 254.333 286.339 253.781 286.339 253.157C286.339 252.533 286.467 251.985 286.723 251.513C286.979 251.033 287.331 250.661 287.779 250.397C288.227 250.133 288.743 250.001 289.327 250.001C289.919 250.001 290.439 250.133 290.887 250.397C291.335 250.661 291.687 251.033 291.943 251.513C292.199 251.985 292.327 252.533 292.327 253.157C292.327 253.781 292.199 254.333 291.943 254.813C291.687 255.285 291.335 255.657 290.887 255.929C290.439 256.193 289.919 256.325 289.327 256.325ZM289.327 255.353C289.719 255.353 290.059 255.265 290.347 255.089C290.643 254.905 290.875 254.649 291.043 254.321C291.211 253.985 291.295 253.597 291.295 253.157C291.295 252.709 291.211 252.325 291.043 252.005C290.875 251.677 290.643 251.425 290.347 251.249C290.059 251.065 289.719 250.973 289.327 250.973C288.943 250.973 288.603 251.065 288.307 251.249C288.011 251.425 287.779 251.677 287.611 252.005C287.443 252.325 287.359 252.709 287.359 253.157C287.359 253.597 287.443 253.985 287.611 254.321C287.779 254.649 288.011 254.905 288.307 255.089C288.603 255.265 288.943 255.353 289.327 255.353ZM293.613 256.169V250.157H294.597V251.849L294.309 251.669C294.421 251.325 294.597 251.029 294.837 250.781C295.077 250.533 295.357 250.341 295.677 250.205C296.005 250.069 296.353 250.001 296.721 250.001C297.153 250.001 297.537 250.093 297.873 250.277C298.217 250.461 298.485 250.733 298.677 251.093C298.869 251.453 298.965 251.905 298.965 252.449V256.169H297.945V252.701C297.945 252.269 297.881 251.929 297.753 251.681C297.625 251.425 297.449 251.245 297.225 251.141C297.009 251.037 296.761 250.985 296.481 250.985C296.177 250.985 295.881 251.061 295.593 251.213C295.313 251.357 295.081 251.577 294.897 251.873C294.721 252.169 294.633 252.537 294.633 252.977V256.169H293.613Z" fill="#161617"/>
<path d="M345.063 256.169V247.769H346.083V256.169H345.063ZM345.591 256.169V255.185H350.427V256.169H345.591ZM345.591 252.413V251.417H350.163V252.413H345.591ZM345.591 248.753V247.769H350.427V248.753H345.591ZM355.29 256.169L351.078 250.253V250.157H352.23L356.442 256.073V256.169H355.29ZM351.054 256.169V256.073L353.466 252.701L354.078 253.493L352.206 256.169H351.054ZM354.15 253.529L353.526 252.713L355.302 250.157H356.418V250.253L354.15 253.529ZM359.877 256.325C359.277 256.325 358.749 256.193 358.293 255.929C357.837 255.657 357.481 255.285 357.225 254.813C356.969 254.341 356.841 253.789 356.841 253.157C356.841 252.533 356.969 251.985 357.225 251.513C357.481 251.033 357.837 250.661 358.293 250.397C358.749 250.133 359.277 250.001 359.877 250.001C360.333 250.001 360.741 250.085 361.101 250.253C361.469 250.413 361.781 250.645 362.037 250.949C362.301 251.245 362.497 251.609 362.625 252.041L361.737 252.293H361.605C361.469 251.885 361.245 251.565 360.933 251.333C360.629 251.093 360.277 250.973 359.877 250.973C359.469 250.973 359.113 251.065 358.809 251.249C358.513 251.433 358.281 251.689 358.113 252.017C357.945 252.345 357.861 252.725 357.861 253.157C357.861 253.589 357.945 253.973 358.113 254.309C358.281 254.637 358.513 254.893 358.809 255.077C359.113 255.261 359.469 255.353 359.877 255.353C360.157 255.353 360.413 255.301 360.645 255.197C360.877 255.093 361.077 254.941 361.245 254.741C361.421 254.541 361.557 254.305 361.653 254.033H361.785L362.685 254.285C362.541 254.717 362.333 255.089 362.061 255.401C361.789 255.705 361.469 255.937 361.101 256.097C360.741 256.249 360.333 256.325 359.877 256.325ZM366.532 256.325C365.948 256.325 365.432 256.193 364.984 255.929C364.536 255.657 364.184 255.285 363.928 254.813C363.68 254.341 363.556 253.789 363.556 253.157C363.556 252.533 363.68 251.985 363.928 251.513C364.176 251.033 364.52 250.661 364.96 250.397C365.408 250.133 365.92 250.001 366.496 250.001C367.064 250.001 367.56 250.137 367.984 250.409C368.416 250.673 368.752 251.049 368.992 251.537C369.232 252.025 369.352 252.593 369.352 253.241V253.385L369.172 253.553H364.12V252.605H368.8L368.32 252.797C368.296 252.413 368.2 252.085 368.032 251.813C367.864 251.541 367.648 251.333 367.384 251.189C367.12 251.037 366.824 250.961 366.496 250.961C366.144 250.961 365.82 251.049 365.524 251.225C365.228 251.393 364.996 251.633 364.828 251.945C364.66 252.257 364.576 252.617 364.576 253.025V253.265C364.576 253.665 364.66 254.025 364.828 254.345C364.996 254.657 365.228 254.905 365.524 255.089C365.82 255.273 366.156 255.365 366.532 255.365C366.9 255.365 367.22 255.277 367.492 255.101C367.764 254.917 367.976 254.669 368.128 254.357H368.272L369.112 254.729C368.888 255.225 368.548 255.617 368.092 255.905C367.644 256.185 367.124 256.325 366.532 256.325ZM373.258 256.325C372.674 256.325 372.158 256.193 371.71 255.929C371.262 255.657 370.91 255.285 370.654 254.813C370.406 254.341 370.282 253.789 370.282 253.157C370.282 252.533 370.406 251.985 370.654 251.513C370.902 251.033 371.246 250.661 371.686 250.397C372.134 250.133 372.646 250.001 373.222 250.001C373.79 250.001 374.286 250.137 374.71 250.409C375.142 250.673 375.478 251.049 375.718 251.537C375.958 252.025 376.078 252.593 376.078 253.241V253.385L375.898 253.553H370.846V252.605H375.526L375.046 252.797C375.022 252.413 374.926 252.085 374.758 251.813C374.59 251.541 374.374 251.333 374.11 251.189C373.846 251.037 373.55 250.961 373.222 250.961C372.87 250.961 372.546 251.049 372.25 251.225C371.954 251.393 371.722 251.633 371.554 251.945C371.386 252.257 371.302 252.617 371.302 253.025V253.265C371.302 253.665 371.386 254.025 371.554 254.345C371.722 254.657 371.954 254.905 372.25 255.089C372.546 255.273 372.882 255.365 373.258 255.365C373.626 255.365 373.946 255.277 374.218 255.101C374.49 254.917 374.702 254.669 374.854 254.357H374.998L375.838 254.729C375.614 255.225 375.274 255.617 374.818 255.905C374.37 256.185 373.85 256.325 373.258 256.325ZM379.865 256.325C379.329 256.325 378.845 256.189 378.413 255.917C377.981 255.645 377.637 255.273 377.381 254.801C377.133 254.321 377.009 253.773 377.009 253.157C377.009 252.549 377.133 252.009 377.381 251.537C377.637 251.057 377.981 250.681 378.413 250.409C378.845 250.137 379.329 250.001 379.865 250.001C380.281 250.001 380.661 250.085 381.005 250.253C381.357 250.421 381.653 250.653 381.893 250.949C382.141 251.237 382.321 251.573 382.433 251.957V254.369C382.321 254.745 382.141 255.081 381.893 255.377C381.653 255.673 381.357 255.905 381.005 256.073C380.661 256.241 380.281 256.325 379.865 256.325ZM379.937 255.353C380.329 255.353 380.673 255.261 380.969 255.077C381.265 254.885 381.497 254.625 381.665 254.297C381.841 253.969 381.929 253.589 381.929 253.157C381.929 252.725 381.841 252.345 381.665 252.017C381.497 251.689 381.265 251.433 380.969 251.249C380.673 251.065 380.329 250.973 379.937 250.973C379.577 250.973 379.249 251.065 378.953 251.249C378.665 251.433 378.437 251.689 378.269 252.017C378.109 252.345 378.029 252.725 378.029 253.157C378.029 253.589 378.109 253.969 378.269 254.297C378.437 254.625 378.665 254.885 378.953 255.077C379.249 255.261 379.577 255.353 379.937 255.353ZM381.965 256.169V254.021L382.145 253.157L381.917 252.305V247.529L382.913 247.409L382.949 247.505V256.169H381.965ZM384.646 256.169V250.157H385.666V256.169H384.646ZM385.162 249.041C384.962 249.041 384.794 248.973 384.658 248.837C384.522 248.701 384.454 248.533 384.454 248.333C384.454 248.133 384.522 247.965 384.658 247.829C384.794 247.685 384.962 247.613 385.162 247.613C385.362 247.613 385.53 247.685 385.666 247.829C385.81 247.965 385.882 248.133 385.882 248.333C385.882 248.533 385.81 248.701 385.666 248.837C385.53 248.973 385.362 249.041 385.162 249.041ZM387.306 256.169V250.157H388.29V251.849L388.002 251.669C388.114 251.325 388.29 251.029 388.53 250.781C388.77 250.533 389.05 250.341 389.37 250.205C389.698 250.069 390.046 250.001 390.414 250.001C390.846 250.001 391.23 250.093 391.566 250.277C391.91 250.461 392.178 250.733 392.37 251.093C392.562 251.453 392.658 251.905 392.658 252.449V256.169H391.638V252.701C391.638 252.269 391.574 251.929 391.446 251.681C391.318 251.425 391.142 251.245 390.918 251.141C390.702 251.037 390.454 250.985 390.174 250.985C389.87 250.985 389.574 251.061 389.286 251.213C389.006 251.357 388.774 251.577 388.59 251.873C388.414 252.169 388.326 252.537 388.326 252.977V256.169H387.306ZM396.131 258.569C395.347 258.569 394.735 258.409 394.295 258.089C393.855 257.769 393.635 257.337 393.635 256.793C393.635 256.449 393.719 256.145 393.887 255.881C394.063 255.609 394.319 255.401 394.655 255.257L395.171 255.773C394.995 255.853 394.859 255.969 394.763 256.121C394.667 256.273 394.619 256.437 394.619 256.613C394.619 256.917 394.739 257.165 394.979 257.357C395.227 257.557 395.575 257.657 396.023 257.657H396.863C397.327 257.657 397.691 257.577 397.955 257.417C398.219 257.265 398.351 257.037 398.351 256.733C398.351 256.517 398.263 256.345 398.087 256.217C397.919 256.089 397.667 256.025 397.331 256.025H395.711C395.391 256.025 395.099 255.969 394.835 255.857C394.579 255.737 394.375 255.577 394.223 255.377C394.071 255.169 393.995 254.929 393.995 254.657C393.995 254.393 394.075 254.149 394.235 253.925C394.395 253.701 394.643 253.525 394.979 253.397L395.543 253.901C395.327 253.941 395.171 254.021 395.075 254.141C394.987 254.253 394.943 254.385 394.943 254.537C394.943 254.721 395.019 254.865 395.171 254.969C395.323 255.073 395.531 255.125 395.795 255.125H397.367C397.967 255.125 398.443 255.273 398.795 255.569C399.147 255.865 399.323 256.253 399.323 256.733C399.323 257.301 399.099 257.749 398.651 258.077C398.203 258.405 397.603 258.569 396.851 258.569H396.131ZM396.527 254.285C396.055 254.285 395.635 254.193 395.267 254.009C394.907 253.825 394.627 253.573 394.427 253.253C394.227 252.925 394.127 252.553 394.127 252.137C394.127 251.713 394.227 251.341 394.427 251.021C394.627 250.701 394.907 250.453 395.267 250.277C395.635 250.093 396.055 250.001 396.527 250.001C397.007 250.001 397.423 250.093 397.775 250.277C398.135 250.453 398.415 250.701 398.615 251.021C398.823 251.341 398.927 251.713 398.927 252.137C398.927 252.553 398.823 252.925 398.615 253.253C398.415 253.573 398.135 253.825 397.775 254.009C397.423 254.193 397.007 254.285 396.527 254.285ZM396.527 253.397C396.951 253.397 397.295 253.281 397.559 253.049C397.823 252.817 397.955 252.513 397.955 252.137C397.955 251.769 397.823 251.469 397.559 251.237C397.295 251.005 396.951 250.889 396.527 250.889C396.095 250.889 395.747 251.005 395.483 251.237C395.227 251.469 395.099 251.769 395.099 252.137C395.099 252.513 395.227 252.817 395.483 253.049C395.747 253.281 396.095 253.397 396.527 253.397ZM398.171 250.913L397.499 250.493C397.499 250.181 397.563 249.901 397.691 249.653C397.827 249.405 398.003 249.213 398.219 249.077C398.435 248.933 398.679 248.861 398.951 248.861C399.015 248.861 399.083 248.865 399.155 248.873C399.235 248.873 399.295 248.881 399.335 248.897V249.821L399.275 249.953C399.195 249.929 399.099 249.917 398.987 249.917C398.715 249.917 398.511 250.009 398.375 250.193C398.239 250.377 398.171 250.617 398.171 250.913ZM403.2 256.169V247.769H404.22V256.169H403.2ZM403.728 256.169V255.185H408.564V256.169H403.728ZM403.728 252.413V251.417H408.3V252.413H403.728ZM403.728 248.753V247.769H408.564V248.753H403.728ZM413.427 256.169L409.215 250.253V250.157H410.367L414.579 256.073V256.169H413.427ZM409.191 256.169V256.073L411.603 252.701L412.215 253.493L410.343 256.169H409.191ZM412.287 253.529L411.663 252.713L413.439 250.157H414.555V250.253L412.287 253.529ZM418.527 256.325C418.111 256.325 417.727 256.241 417.375 256.073C417.031 255.897 416.735 255.661 416.487 255.365C416.247 255.069 416.071 254.733 415.959 254.357V251.957C416.071 251.573 416.247 251.237 416.487 250.949C416.735 250.653 417.031 250.421 417.375 250.253C417.727 250.085 418.111 250.001 418.527 250.001C419.071 250.001 419.555 250.137 419.979 250.409C420.403 250.681 420.743 251.057 420.999 251.537C421.255 252.009 421.383 252.549 421.383 253.157C421.383 253.773 421.255 254.321 420.999 254.801C420.743 255.273 420.403 255.645 419.979 255.917C419.555 256.189 419.071 256.325 418.527 256.325ZM415.443 258.569V250.157H416.427V252.305L416.247 253.157L416.463 254.021V258.569H415.443ZM418.455 255.353C418.823 255.353 419.151 255.261 419.439 255.077C419.727 254.885 419.951 254.625 420.111 254.297C420.279 253.969 420.363 253.589 420.363 253.157C420.363 252.725 420.279 252.345 420.111 252.017C419.951 251.689 419.727 251.433 419.439 251.249C419.151 251.065 418.823 250.973 418.455 250.973C418.071 250.973 417.727 251.065 417.423 251.249C417.127 251.433 416.891 251.689 416.715 252.017C416.547 252.345 416.463 252.725 416.463 253.157C416.463 253.589 416.547 253.969 416.715 254.297C416.891 254.625 417.127 254.885 417.423 255.077C417.727 255.261 418.071 255.353 418.455 255.353ZM425.29 256.325C424.706 256.325 424.19 256.193 423.742 255.929C423.294 255.657 422.942 255.285 422.686 254.813C422.438 254.341 422.314 253.789 422.314 253.157C422.314 252.533 422.438 251.985 422.686 251.513C422.934 251.033 423.278 250.661 423.718 250.397C424.166 250.133 424.678 250.001 425.254 250.001C425.822 250.001 426.318 250.137 426.742 250.409C427.174 250.673 427.51 251.049 427.75 251.537C427.99 252.025 428.11 252.593 428.11 253.241V253.385L427.93 253.553H422.878V252.605H427.558L427.078 252.797C427.054 252.413 426.958 252.085 426.79 251.813C426.622 251.541 426.406 251.333 426.142 251.189C425.878 251.037 425.582 250.961 425.254 250.961C424.902 250.961 424.578 251.049 424.282 251.225C423.986 251.393 423.754 251.633 423.586 251.945C423.418 252.257 423.334 252.617 423.334 253.025V253.265C423.334 253.665 423.418 254.025 423.586 254.345C423.754 254.657 423.986 254.905 424.282 255.089C424.578 255.273 424.914 255.365 425.29 255.365C425.658 255.365 425.978 255.277 426.25 255.101C426.522 254.917 426.734 254.669 426.886 254.357H427.03L427.87 254.729C427.646 255.225 427.306 255.617 426.85 255.905C426.402 256.185 425.882 256.325 425.29 256.325ZM432.076 256.325C431.476 256.325 430.948 256.193 430.492 255.929C430.036 255.657 429.68 255.285 429.424 254.813C429.168 254.341 429.04 253.789 429.04 253.157C429.04 252.533 429.168 251.985 429.424 251.513C429.68 251.033 430.036 250.661 430.492 250.397C430.948 250.133 431.476 250.001 432.076 250.001C432.532 250.001 432.94 250.085 433.3 250.253C433.668 250.413 433.98 250.645 434.236 250.949C434.5 251.245 434.696 251.609 434.824 252.041L433.936 252.293H433.804C433.668 251.885 433.444 251.565 433.132 251.333C432.828 251.093 432.476 250.973 432.076 250.973C431.668 250.973 431.312 251.065 431.008 251.249C430.712 251.433 430.48 251.689 430.312 252.017C430.144 252.345 430.06 252.725 430.06 253.157C430.06 253.589 430.144 253.973 430.312 254.309C430.48 254.637 430.712 254.893 431.008 255.077C431.312 255.261 431.668 255.353 432.076 255.353C432.356 255.353 432.612 255.301 432.844 255.197C433.076 255.093 433.276 254.941 433.444 254.741C433.62 254.541 433.756 254.305 433.852 254.033H433.984L434.884 254.285C434.74 254.717 434.532 255.089 434.26 255.401C433.988 255.705 433.668 255.937 433.3 256.097C432.94 256.249 432.532 256.325 432.076 256.325ZM438.137 256.169C437.617 256.169 437.193 256.005 436.865 255.677C436.537 255.341 436.373 254.889 436.373 254.321V248.537H437.393V254.237C437.393 254.581 437.469 254.829 437.621 254.981C437.773 255.125 438.017 255.197 438.353 255.197H439.073L439.133 255.329V256.169H438.137ZM435.341 251.117V250.157H439.133V251.117H435.341ZM442.136 256.325C441.72 256.325 441.348 256.245 441.02 256.085C440.7 255.925 440.448 255.705 440.264 255.425C440.08 255.137 439.988 254.809 439.988 254.441C439.988 253.913 440.176 253.485 440.552 253.157C440.936 252.829 441.464 252.637 442.136 252.581L444.452 252.413V253.325L442.34 253.493C441.9 253.525 441.572 253.621 441.356 253.781C441.148 253.933 441.044 254.149 441.044 254.429C441.044 254.693 441.156 254.913 441.38 255.089C441.604 255.265 441.892 255.353 442.244 255.353C442.604 255.353 442.932 255.269 443.228 255.101C443.524 254.933 443.756 254.709 443.924 254.429C444.1 254.149 444.188 253.837 444.188 253.493V252.521C444.188 252.065 444.044 251.689 443.756 251.393C443.476 251.097 443.1 250.949 442.628 250.949C442.26 250.949 441.944 251.041 441.68 251.225C441.416 251.401 441.236 251.649 441.14 251.969H441.008L440.12 251.681C440.296 251.145 440.604 250.729 441.044 250.433C441.484 250.137 442.016 249.989 442.64 249.989C443.456 249.989 444.084 250.233 444.524 250.721C444.972 251.209 445.196 251.897 445.196 252.785V256.169H444.236V254.417L444.596 254.609C444.5 254.937 444.328 255.233 444.08 255.497C443.84 255.753 443.552 255.957 443.216 256.109C442.888 256.253 442.528 256.325 442.136 256.325ZM448.625 256.169C448.105 256.169 447.681 256.005 447.353 255.677C447.025 255.341 446.861 254.889 446.861 254.321V248.537H447.881V254.237C447.881 254.581 447.957 254.829 448.109 254.981C448.261 255.125 448.505 255.197 448.841 255.197H449.561L449.621 255.329V256.169H448.625ZM445.829 251.117V250.157H449.621V251.117H445.829ZM450.962 256.169V250.157H451.982V256.169H450.962ZM451.478 249.041C451.278 249.041 451.11 248.973 450.974 248.837C450.838 248.701 450.77 248.533 450.77 248.333C450.77 248.133 450.838 247.965 450.974 247.829C451.11 247.685 451.278 247.613 451.478 247.613C451.678 247.613 451.846 247.685 451.982 247.829C452.126 247.965 452.198 248.133 452.198 248.333C452.198 248.533 452.126 248.701 451.982 248.837C451.846 248.973 451.678 249.041 451.478 249.041ZM456.263 256.325C455.679 256.325 455.163 256.193 454.715 255.929C454.267 255.657 453.915 255.285 453.659 254.813C453.403 254.333 453.275 253.781 453.275 253.157C453.275 252.533 453.403 251.985 453.659 251.513C453.915 251.033 454.267 250.661 454.715 250.397C455.163 250.133 455.679 250.001 456.263 250.001C456.855 250.001 457.375 250.133 457.823 250.397C458.271 250.661 458.623 251.033 458.879 251.513C459.135 251.985 459.263 252.533 459.263 253.157C459.263 253.781 459.135 254.333 458.879 254.813C458.623 255.285 458.271 255.657 457.823 255.929C457.375 256.193 456.855 256.325 456.263 256.325ZM456.263 255.353C456.655 255.353 456.995 255.265 457.283 255.089C457.579 254.905 457.811 254.649 457.979 254.321C458.147 253.985 458.231 253.597 458.231 253.157C458.231 252.709 458.147 252.325 457.979 252.005C457.811 251.677 457.579 251.425 457.283 251.249C456.995 251.065 456.655 250.973 456.263 250.973C455.879 250.973 455.539 251.065 455.243 251.249C454.947 251.425 454.715 251.677 454.547 252.005C454.379 252.325 454.295 252.709 454.295 253.157C454.295 253.597 454.379 253.985 454.547 254.321C454.715 254.649 454.947 254.905 455.243 255.089C455.539 255.265 455.879 255.353 456.263 255.353ZM460.548 256.169V250.157H461.532V251.849L461.244 251.669C461.356 251.325 461.532 251.029 461.772 250.781C462.012 250.533 462.292 250.341 462.612 250.205C462.94 250.069 463.288 250.001 463.656 250.001C464.088 250.001 464.472 250.093 464.808 250.277C465.152 250.461 465.42 250.733 465.612 251.093C465.804 251.453 465.9 251.905 465.9 252.449V256.169H464.88V252.701C464.88 252.269 464.816 251.929 464.688 251.681C464.56 251.425 464.384 251.245 464.16 251.141C463.944 251.037 463.696 250.985 463.416 250.985C463.112 250.985 462.816 251.061 462.528 251.213C462.248 251.357 462.016 251.577 461.832 251.873C461.656 252.169 461.568 252.537 461.568 252.977V256.169H460.548Z" fill="#161617"/>
<path d="M507.124 256.169L501.616 248.057V247.769H502.636L508.144 255.881V256.169H507.124ZM501.616 256.169V247.769H502.636V256.169H501.616ZM507.124 256.169V247.769H508.144V256.169H507.124ZM512.538 256.325C511.954 256.325 511.438 256.193 510.99 255.929C510.542 255.657 510.19 255.285 509.934 254.813C509.686 254.341 509.562 253.789 509.562 253.157C509.562 252.533 509.686 251.985 509.934 251.513C510.182 251.033 510.526 250.661 510.966 250.397C511.414 250.133 511.926 250.001 512.502 250.001C513.07 250.001 513.566 250.137 513.99 250.409C514.422 250.673 514.758 251.049 514.998 251.537C515.238 252.025 515.358 252.593 515.358 253.241V253.385L515.178 253.553H510.126V252.605H514.806L514.326 252.797C514.302 252.413 514.206 252.085 514.038 251.813C513.87 251.541 513.654 251.333 513.39 251.189C513.126 251.037 512.83 250.961 512.502 250.961C512.15 250.961 511.826 251.049 511.53 251.225C511.234 251.393 511.002 251.633 510.834 251.945C510.666 252.257 510.582 252.617 510.582 253.025V253.265C510.582 253.665 510.666 254.025 510.834 254.345C511.002 254.657 511.234 254.905 511.53 255.089C511.826 255.273 512.162 255.365 512.538 255.365C512.906 255.365 513.226 255.277 513.498 255.101C513.77 254.917 513.982 254.669 514.134 254.357H514.278L515.118 254.729C514.894 255.225 514.554 255.617 514.098 255.905C513.65 256.185 513.13 256.325 512.538 256.325ZM519.264 256.325C518.68 256.325 518.164 256.193 517.716 255.929C517.268 255.657 516.916 255.285 516.66 254.813C516.412 254.341 516.288 253.789 516.288 253.157C516.288 252.533 516.412 251.985 516.66 251.513C516.908 251.033 517.252 250.661 517.692 250.397C518.14 250.133 518.652 250.001 519.228 250.001C519.796 250.001 520.292 250.137 520.716 250.409C521.148 250.673 521.484 251.049 521.724 251.537C521.964 252.025 522.084 252.593 522.084 253.241V253.385L521.904 253.553H516.852V252.605H521.532L521.052 252.797C521.028 252.413 520.932 252.085 520.764 251.813C520.596 251.541 520.38 251.333 520.116 251.189C519.852 251.037 519.556 250.961 519.228 250.961C518.876 250.961 518.552 251.049 518.256 251.225C517.96 251.393 517.728 251.633 517.56 251.945C517.392 252.257 517.308 252.617 517.308 253.025V253.265C517.308 253.665 517.392 254.025 517.56 254.345C517.728 254.657 517.96 254.905 518.256 255.089C518.552 255.273 518.888 255.365 519.264 255.365C519.632 255.365 519.952 255.277 520.224 255.101C520.496 254.917 520.708 254.669 520.86 254.357H521.004L521.844 254.729C521.62 255.225 521.28 255.617 520.824 255.905C520.376 256.185 519.856 256.325 519.264 256.325ZM525.871 256.325C525.335 256.325 524.851 256.189 524.419 255.917C523.987 255.645 523.643 255.273 523.387 254.801C523.139 254.321 523.015 253.773 523.015 253.157C523.015 252.549 523.139 252.009 523.387 251.537C523.643 251.057 523.987 250.681 524.419 250.409C524.851 250.137 525.335 250.001 525.871 250.001C526.287 250.001 526.667 250.085 527.011 250.253C527.363 250.421 527.659 250.653 527.899 250.949C528.147 251.237 528.327 251.573 528.439 251.957V254.369C528.327 254.745 528.147 255.081 527.899 255.377C527.659 255.673 527.363 255.905 527.011 256.073C526.667 256.241 526.287 256.325 525.871 256.325ZM525.943 255.353C526.335 255.353 526.679 255.261 526.975 255.077C527.271 254.885 527.503 254.625 527.671 254.297C527.847 253.969 527.935 253.589 527.935 253.157C527.935 252.725 527.847 252.345 527.671 252.017C527.503 251.689 527.271 251.433 526.975 251.249C526.679 251.065 526.335 250.973 525.943 250.973C525.583 250.973 525.255 251.065 524.959 251.249C524.671 251.433 524.443 251.689 524.275 252.017C524.115 252.345 524.035 252.725 524.035 253.157C524.035 253.589 524.115 253.969 524.275 254.297C524.443 254.625 524.671 254.885 524.959 255.077C525.255 255.261 525.583 255.353 525.943 255.353ZM527.971 256.169V254.021L528.151 253.157L527.923 252.305V247.529L528.919 247.409L528.955 247.505V256.169H527.971ZM533.467 256.169V247.769H534.487V256.169H533.467ZM536.254 256.169V250.157H537.238V251.825L536.986 251.597C537.098 251.269 537.27 250.989 537.502 250.757C537.734 250.517 538.006 250.333 538.318 250.205C538.63 250.069 538.958 250.001 539.302 250.001C539.822 250.001 540.274 250.149 540.658 250.445C541.042 250.741 541.294 251.169 541.414 251.729L540.994 251.717C541.098 251.373 541.27 251.073 541.51 250.817C541.758 250.561 542.054 250.361 542.398 250.217C542.742 250.073 543.114 250.001 543.514 250.001C543.922 250.001 544.29 250.093 544.618 250.277C544.946 250.461 545.206 250.733 545.398 251.093C545.59 251.453 545.686 251.905 545.686 252.449V256.169H544.666V252.689C544.666 252.257 544.602 251.917 544.474 251.669C544.346 251.421 544.178 251.245 543.97 251.141C543.762 251.037 543.526 250.985 543.262 250.985C542.99 250.985 542.718 251.057 542.446 251.201C542.174 251.345 541.946 251.565 541.762 251.861C541.578 252.149 541.486 252.521 541.486 252.977V256.169H540.466V252.689C540.466 252.257 540.402 251.917 540.274 251.669C540.146 251.421 539.974 251.245 539.758 251.141C539.55 251.037 539.318 250.985 539.062 250.985C538.79 250.985 538.514 251.061 538.234 251.213C537.962 251.357 537.734 251.577 537.55 251.873C537.366 252.161 537.274 252.529 537.274 252.977V256.169H536.254ZM550.353 256.325C549.937 256.325 549.553 256.241 549.201 256.073C548.857 255.897 548.561 255.661 548.313 255.365C548.073 255.069 547.897 254.733 547.785 254.357V251.957C547.897 251.573 548.073 251.237 548.313 250.949C548.561 250.653 548.857 250.421 549.201 250.253C549.553 250.085 549.937 250.001 550.353 250.001C550.897 250.001 551.381 250.137 551.805 250.409C552.229 250.681 552.569 251.057 552.825 251.537C553.081 252.009 553.209 252.549 553.209 253.157C553.209 253.773 553.081 254.321 552.825 254.801C552.569 255.273 552.229 255.645 551.805 255.917C551.381 256.189 550.897 256.325 550.353 256.325ZM547.269 258.569V250.157H548.253V252.305L548.073 253.157L548.289 254.021V258.569H547.269ZM550.281 255.353C550.649 255.353 550.977 255.261 551.265 255.077C551.553 254.885 551.777 254.625 551.937 254.297C552.105 253.969 552.189 253.589 552.189 253.157C552.189 252.725 552.105 252.345 551.937 252.017C551.777 251.689 551.553 251.433 551.265 251.249C550.977 251.065 550.649 250.973 550.281 250.973C549.897 250.973 549.553 251.065 549.249 251.249C548.953 251.433 548.717 251.689 548.541 252.017C548.373 252.345 548.289 252.725 548.289 253.157C548.289 253.589 548.373 253.969 548.541 254.297C548.717 254.625 548.953 254.885 549.249 255.077C549.553 255.261 549.897 255.353 550.281 255.353ZM554.488 256.169V250.157H555.472V251.849L555.184 251.669C555.328 251.205 555.596 250.837 555.988 250.565C556.38 250.293 556.82 250.157 557.308 250.157H557.92V251.117H557.152C556.824 251.117 556.536 251.197 556.288 251.357C556.048 251.509 555.856 251.725 555.712 252.005C555.576 252.277 555.508 252.597 555.508 252.965V256.169H554.488ZM561.253 256.325C560.669 256.325 560.153 256.193 559.705 255.929C559.257 255.657 558.905 255.285 558.649 254.813C558.393 254.333 558.265 253.781 558.265 253.157C558.265 252.533 558.393 251.985 558.649 251.513C558.905 251.033 559.257 250.661 559.705 250.397C560.153 250.133 560.669 250.001 561.253 250.001C561.845 250.001 562.365 250.133 562.813 250.397C563.261 250.661 563.613 251.033 563.869 251.513C564.125 251.985 564.253 252.533 564.253 253.157C564.253 253.781 564.125 254.333 563.869 254.813C563.613 255.285 563.261 255.657 562.813 255.929C562.365 256.193 561.845 256.325 561.253 256.325ZM561.253 255.353C561.645 255.353 561.985 255.265 562.273 255.089C562.569 254.905 562.801 254.649 562.969 254.321C563.137 253.985 563.221 253.597 563.221 253.157C563.221 252.709 563.137 252.325 562.969 252.005C562.801 251.677 562.569 251.425 562.273 251.249C561.985 251.065 561.645 250.973 561.253 250.973C560.869 250.973 560.529 251.065 560.233 251.249C559.937 251.425 559.705 251.677 559.537 252.005C559.369 252.325 559.285 252.709 559.285 253.157C559.285 253.597 559.369 253.985 559.537 254.321C559.705 254.649 559.937 254.905 560.233 255.089C560.529 255.265 560.869 255.353 561.253 255.353ZM567.296 256.169L567.32 255.329L569.408 250.157H570.464V250.253L568.028 256.169H567.296ZM567.032 256.169L564.596 250.253V250.157H565.652L567.74 255.329L567.776 256.169H567.032ZM573.78 256.325C573.196 256.325 572.68 256.193 572.232 255.929C571.784 255.657 571.432 255.285 571.176 254.813C570.928 254.341 570.804 253.789 570.804 253.157C570.804 252.533 570.928 251.985 571.176 251.513C571.424 251.033 571.768 250.661 572.208 250.397C572.656 250.133 573.168 250.001 573.744 250.001C574.312 250.001 574.808 250.137 575.232 250.409C575.664 250.673 576 251.049 576.24 251.537C576.48 252.025 576.6 252.593 576.6 253.241V253.385L576.42 253.553H571.368V252.605H576.048L575.568 252.797C575.544 252.413 575.448 252.085 575.28 251.813C575.112 251.541 574.896 251.333 574.632 251.189C574.368 251.037 574.072 250.961 573.744 250.961C573.392 250.961 573.068 251.049 572.772 251.225C572.476 251.393 572.244 251.633 572.076 251.945C571.908 252.257 571.824 252.617 571.824 253.025V253.265C571.824 253.665 571.908 254.025 572.076 254.345C572.244 254.657 572.476 254.905 572.772 255.089C573.068 255.273 573.404 255.365 573.78 255.365C574.148 255.365 574.468 255.277 574.74 255.101C575.012 254.917 575.224 254.669 575.376 254.357H575.52L576.36 254.729C576.136 255.225 575.796 255.617 575.34 255.905C574.892 256.185 574.372 256.325 573.78 256.325ZM577.879 256.169V250.157H578.863V251.825L578.611 251.597C578.723 251.269 578.895 250.989 579.127 250.757C579.359 250.517 579.631 250.333 579.943 250.205C580.255 250.069 580.583 250.001 580.927 250.001C581.447 250.001 581.899 250.149 582.283 250.445C582.667 250.741 582.919 251.169 583.039 251.729L582.619 251.717C582.723 251.373 582.895 251.073 583.135 250.817C583.383 250.561 583.679 250.361 584.023 250.217C584.367 250.073 584.739 250.001 585.139 250.001C585.547 250.001 585.915 250.093 586.243 250.277C586.571 250.461 586.831 250.733 587.023 251.093C587.215 251.453 587.311 251.905 587.311 252.449V256.169H586.291V252.689C586.291 252.257 586.227 251.917 586.099 251.669C585.971 251.421 585.803 251.245 585.595 251.141C585.387 251.037 585.151 250.985 584.887 250.985C584.615 250.985 584.343 251.057 584.071 251.201C583.799 251.345 583.571 251.565 583.387 251.861C583.203 252.149 583.111 252.521 583.111 252.977V256.169H582.091V252.689C582.091 252.257 582.027 251.917 581.899 251.669C581.771 251.421 581.599 251.245 581.383 251.141C581.175 251.037 580.943 250.985 580.687 250.985C580.415 250.985 580.139 251.061 579.859 251.213C579.587 251.357 579.359 251.577 579.175 251.873C578.991 252.161 578.899 252.529 578.899 252.977V256.169H577.879ZM591.522 256.325C590.938 256.325 590.422 256.193 589.974 255.929C589.526 255.657 589.174 255.285 588.918 254.813C588.67 254.341 588.546 253.789 588.546 253.157C588.546 252.533 588.67 251.985 588.918 251.513C589.166 251.033 589.51 250.661 589.95 250.397C590.398 250.133 590.91 250.001 591.486 250.001C592.054 250.001 592.55 250.137 592.974 250.409C593.406 250.673 593.742 251.049 593.982 251.537C594.222 252.025 594.342 252.593 594.342 253.241V253.385L594.162 253.553H589.11V252.605H593.79L593.31 252.797C593.286 252.413 593.19 252.085 593.022 251.813C592.854 251.541 592.638 251.333 592.374 251.189C592.11 251.037 591.814 250.961 591.486 250.961C591.134 250.961 590.81 251.049 590.514 251.225C590.218 251.393 589.986 251.633 589.818 251.945C589.65 252.257 589.566 252.617 589.566 253.025V253.265C589.566 253.665 589.65 254.025 589.818 254.345C589.986 254.657 590.218 254.905 590.514 255.089C590.81 255.273 591.146 255.365 591.522 255.365C591.89 255.365 592.21 255.277 592.482 255.101C592.754 254.917 592.966 254.669 593.118 254.357H593.262L594.102 254.729C593.878 255.225 593.538 255.617 593.082 255.905C592.634 256.185 592.114 256.325 591.522 256.325ZM595.621 256.169V250.157H596.605V251.849L596.317 251.669C596.429 251.325 596.605 251.029 596.845 250.781C597.085 250.533 597.365 250.341 597.685 250.205C598.013 250.069 598.361 250.001 598.729 250.001C599.161 250.001 599.545 250.093 599.881 250.277C600.225 250.461 600.493 250.733 600.685 251.093C600.877 251.453 600.973 251.905 600.973 252.449V256.169H599.953V252.701C599.953 252.269 599.889 251.929 599.761 251.681C599.633 251.425 599.457 251.245 599.233 251.141C599.017 251.037 598.769 250.985 598.489 250.985C598.185 250.985 597.889 251.061 597.601 251.213C597.321 251.357 597.089 251.577 596.905 251.873C596.729 252.169 596.641 252.537 596.641 252.977V256.169H595.621ZM604.393 256.169C603.873 256.169 603.449 256.005 603.121 255.677C602.793 255.341 602.629 254.889 602.629 254.321V248.537H603.649V254.237C603.649 254.581 603.725 254.829 603.877 254.981C604.029 255.125 604.273 255.197 604.609 255.197H605.329L605.389 255.329V256.169H604.393ZM601.597 251.117V250.157H605.389V251.117H601.597ZM608.722 256.325C608.09 256.325 607.558 256.173 607.126 255.869C606.694 255.565 606.406 255.141 606.262 254.597L607.198 254.369L607.33 254.393C607.418 254.697 607.594 254.937 607.858 255.113C608.13 255.281 608.446 255.365 608.806 255.365C609.166 255.365 609.47 255.285 609.718 255.125C609.974 254.957 610.102 254.741 610.102 254.477C610.102 254.261 610.026 254.089 609.874 253.961C609.73 253.825 609.51 253.725 609.214 253.661L608.098 253.409C607.538 253.281 607.122 253.073 606.85 252.785C606.586 252.497 606.454 252.153 606.454 251.753C606.454 251.409 606.546 251.105 606.73 250.841C606.922 250.577 607.186 250.373 607.522 250.229C607.858 250.077 608.238 250.001 608.662 250.001C609.278 250.001 609.798 250.153 610.222 250.457C610.646 250.761 610.926 251.193 611.062 251.753L610.126 251.945L609.994 251.921C609.922 251.617 609.754 251.381 609.49 251.213C609.234 251.045 608.95 250.961 608.638 250.961C608.31 250.961 608.034 251.033 607.81 251.177C607.594 251.313 607.486 251.493 607.486 251.717C607.486 251.901 607.554 252.057 607.69 252.185C607.834 252.305 608.058 252.397 608.362 252.461L609.49 252.725C610.05 252.853 610.466 253.057 610.738 253.337C611.01 253.617 611.146 253.977 611.146 254.417C611.146 254.809 611.038 255.149 610.822 255.437C610.614 255.717 610.326 255.937 609.958 256.097C609.598 256.249 609.186 256.325 608.722 256.325Z" fill="#161617"/>
<path d="M654.278 230.694L592.755 99.0403C576.9 65.1133 530.718 60.0831 507.931 89.8014L430.406 190.91C421.109 203.035 405.708 208.791 390.738 205.737L257.194 178.491C246.926 176.396 236.288 177.032 226.342 180.335L109.358 219.191C104.312 220.867 99.1268 222.091 93.8643 222.85L49.8672 229.196L654.278 230.694Z" fill="url(#paint0_linear_3189_2506)"/>
<path d="M650.285 230.694L592.173 100.961C576.72 66.4631 530.017 60.9975 507.016 90.9948L445.602 171.091C427.009 195.34 396.208 206.853 366.267 200.744L262.418 179.557C248.727 176.763 234.543 177.611 221.283 182.016L108.515 219.471C104.03 220.96 99.4209 222.049 94.7431 222.724L49.8672 229.196" stroke="#1B84FF" stroke-width="2.82824" stroke-linecap="round"/>
<rect x="548.856" y="67.3767" width="7.54197" height="7.54197" rx="3.77098" fill="white"/>
<rect x="548.856" y="67.3767" width="7.54197" height="7.54197" rx="3.77098" stroke="#1B84FF" stroke-width="3.77098"/>
<rect x="238.417" y="174.184" width="7.54197" height="7.54197" rx="3.77098" fill="white"/>
<rect x="238.417" y="174.184" width="7.54197" height="7.54197" rx="3.77098" stroke="#1B84FF" stroke-width="3.77098"/>
<rect x="396.132" y="196.145" width="7.54197" height="7.54197" rx="3.77098" fill="white"/>
<rect x="396.132" y="196.145" width="7.54197" height="7.54197" rx="3.77098" stroke="#1B84FF" stroke-width="3.77098"/>
<rect x="98.6687" y="217.107" width="7.54197" height="7.54197" rx="3.77098" fill="white"/>
<rect x="98.6687" y="217.107" width="7.54197" height="7.54197" rx="3.77098" stroke="#1B84FF" stroke-width="3.77098"/>
</g>
<defs>
<linearGradient id="paint0_linear_3189_2506" x1="392.628" y1="24.5649" x2="392.628" y2="266.274" gradientUnits="userSpaceOnUse">
<stop stop-color="#1B84FF" stop-opacity="0.25"/>
<stop offset="1" stop-color="white" stop-opacity="0"/>
</linearGradient>
<clipPath id="clip0_3189_2506">
<rect x="0.955078" y="0.60791" width="653.822" height="304.451" rx="9.98201" fill="white"/>
</clipPath>
</defs>
</svg>
