<svg width="24" height="24" viewBox="0 0 24 24" fill="none" xmlns="http://www.w3.org/2000/svg">
<path d="M21.6809 16.96L18.5509 9.65001C17.4909 7.17001 15.5409 7.07001 14.2309 9.43001L12.3409 12.84C11.3809 14.57 9.5909 14.72 8.3509 13.17L8.1309 12.89C6.8409 11.27 5.0209 11.47 4.0909 13.32L2.3709 16.77C1.1609 19.17 2.9109 22 5.5909 22H18.3509C20.9509 22 22.7009 19.35 21.6809 16.96Z" stroke="#161617" stroke-width="1.5" stroke-linecap="round" stroke-linejoin="round"/>
<path d="M6.96875 8C8.6256 8 9.96875 6.65685 9.96875 5C9.96875 3.34315 8.6256 2 6.96875 2C5.3119 2 3.96875 3.34315 3.96875 5C3.96875 6.65685 5.3119 8 6.96875 8Z" stroke="#161617" stroke-width="1.5" stroke-linecap="round" stroke-linejoin="round"/>
</svg>
