<svg width="40" height="40" viewBox="0 0 40 40" fill="none" xmlns="http://www.w3.org/2000/svg">
<g id="icon" clip-path="url(#clip0_912_5683)">
<rect id="Rectangle 58" width="40" height="40" rx="8" fill="#1B1B1B"/>
<g id="Group 6380">
<path id="vector" d="M31.4999 20.4997C31.4999 19.5747 31.4233 18.8997 31.2575 18.1997H20.4795V22.3747H26.806C26.6785 23.4122 25.9897 24.9747 24.459 26.0246L24.4376 26.1644L27.8454 28.7516L28.0815 28.7747C30.2498 26.8122 31.4999 23.9247 31.4999 20.4997Z" fill="white"/>
<path id="vector_2" d="M20.4787 31.4999C23.5781 31.4999 26.1801 30.4999 28.0807 28.7749L24.4583 26.0248C23.4889 26.6873 22.1879 27.1498 20.4787 27.1498C17.443 27.1498 14.8665 25.1874 13.9481 22.4749L13.8135 22.4861L10.27 25.1736L10.2236 25.2998C12.1114 28.9748 15.9889 31.4999 20.4787 31.4999Z" fill="white"/>
<path id="vector_3" d="M13.9489 22.475C13.7066 21.775 13.5663 21.025 13.5663 20.25C13.5663 19.475 13.7066 18.725 13.9362 18.025L13.9298 17.8759L10.3418 15.1453L10.2245 15.2C9.44643 16.725 9 18.4375 9 20.25C9 22.0625 9.44643 23.775 10.2245 25.3L13.9489 22.475Z" fill="white"/>
<path id="vector_4" d="M20.4788 13.35C22.6344 13.35 24.0884 14.2625 24.9175 15.025L28.1573 11.925C26.1676 10.1125 23.5782 9 20.4788 9C15.9889 9 12.1114 11.525 10.2236 15.1999L13.9354 18.025C14.8666 15.3125 17.4431 13.35 20.4788 13.35Z" fill="white"/>
</g>
</g>
<defs>
<clipPath id="clip0_912_5683">
<rect width="40" height="40" fill="white"/>
</clipPath>
</defs>
</svg>
