<svg width="83" height="40" viewBox="0 0 83 40" fill="none" xmlns="http://www.w3.org/2000/svg">
<rect x="1" y="0.5" width="80.9351" height="38.2157" rx="7.5" stroke="#C1C1C0"/>
<g clip-path="url(#clip0_8377_33274)">
<g clip-path="url(#clip1_8377_33274)">
<path d="M37.1133 20.8647C37.1133 23.7421 34.9021 25.8624 32.1885 25.8624C29.4748 25.8624 27.2637 23.7421 27.2637 20.8647C27.2637 17.967 29.4748 15.8669 32.1885 15.8669C34.9021 15.8669 37.1133 17.967 37.1133 20.8647ZM34.9574 20.8647C34.9574 19.0666 33.6759 17.8363 32.1885 17.8363C30.7011 17.8363 29.4195 19.0666 29.4195 20.8647C29.4195 22.6448 30.7011 23.8931 32.1885 23.8931C33.6759 23.8931 34.9574 22.6425 34.9574 20.8647Z" fill="#EA4335"/>
<path d="M47.7383 20.8649C47.7383 23.7424 45.5271 25.8627 42.8135 25.8627C40.0998 25.8627 37.8887 23.7424 37.8887 20.8649C37.8887 17.9695 40.0998 15.8672 42.8135 15.8672C45.5271 15.8672 47.7383 17.9672 47.7383 20.8649ZM45.5824 20.8649C45.5824 19.0668 44.3009 17.8365 42.8135 17.8365C41.3261 17.8365 40.0445 19.0668 40.0445 20.8649C40.0445 22.645 41.3261 23.8933 42.8135 23.8933C44.3009 23.8933 45.5824 22.6428 45.5824 20.8649Z" fill="#FBBC05"/>
<path d="M57.9191 16.1689V25.1414C57.9191 28.8323 55.781 30.3397 53.2533 30.3397C50.8739 30.3397 49.4419 28.7196 48.9018 27.3947L50.7788 26.5993C51.113 27.4127 51.9319 28.3726 53.2511 28.3726C54.8691 28.3726 55.8718 27.3564 55.8718 25.4433V24.7245H55.7965C55.314 25.3307 54.3844 25.8602 53.2113 25.8602C50.7566 25.8602 48.5078 23.6835 48.5078 20.8827C48.5078 18.0616 50.7566 15.8669 53.2113 15.8669C54.3821 15.8669 55.3118 16.3965 55.7965 16.9846H55.8718V16.1711H57.9191V16.1689ZM56.0245 20.8827C56.0245 19.1229 54.8713 17.8363 53.4038 17.8363C51.9164 17.8363 50.6703 19.1229 50.6703 20.8827C50.6703 22.6245 51.9164 23.8931 53.4038 23.8931C54.8713 23.8931 56.0245 22.6245 56.0245 20.8827Z" fill="#4285F4"/>
<path d="M61.2941 10.9104V25.5566H59.1914V10.9104H61.2941Z" fill="#34A853"/>
<path d="M69.4879 22.5104L71.1612 23.646C70.6212 24.4594 69.3197 25.861 67.0709 25.861C64.282 25.861 62.1992 23.6663 62.1992 20.8632C62.1992 17.8912 64.2997 15.8655 66.8296 15.8655C69.3772 15.8655 70.6234 17.9295 71.0306 19.0448L71.2542 19.6127L64.6915 22.3797C65.1939 23.3824 65.9753 23.8939 67.0709 23.8939C68.1687 23.8939 68.9301 23.3441 69.4879 22.5104ZM64.3374 20.7123L68.7243 18.8578C68.483 18.2337 67.757 17.7988 66.9027 17.7988C65.807 17.7988 64.282 18.7835 64.3374 20.7123Z" fill="#EA4335"/>
<path d="M19.3036 19.5652V17.4449H26.3223C26.3909 17.8144 26.4263 18.2516 26.4263 18.7247C26.4263 20.3156 25.9991 22.2827 24.6224 23.6842C23.2833 25.1037 21.5724 25.8608 19.3058 25.8608C15.1048 25.8608 11.5723 22.3773 11.5723 18.1006C11.5723 13.8239 15.1048 10.3403 19.3058 10.3403C21.6299 10.3403 23.2855 11.2687 24.5294 12.4787L23.0597 13.9749C22.1678 13.1231 20.9592 12.4607 19.3036 12.4607C16.2359 12.4607 13.8366 14.9776 13.8366 18.1006C13.8366 21.2236 16.2359 23.7405 19.3036 23.7405C21.2935 23.7405 22.4267 22.9271 23.1527 22.188C23.7415 21.5886 24.1288 20.7324 24.2815 19.563L19.3036 19.5652Z" fill="#4285F4"/>
</g>
</g>
<defs>
<clipPath id="clip0_8377_33274">
<rect width="65.9351" height="23.2157" fill="white" transform="translate(8.5 8)"/>
</clipPath>
<clipPath id="clip1_8377_33274">
<rect width="60" height="25.9459" fill="white" transform="translate(11.5 7.00024)"/>
</clipPath>
</defs>
</svg>
