<svg width="100" height="100" viewBox="0 0 100 100" fill="none" xmlns="http://www.w3.org/2000/svg">
<path d="M74.9154 44.9584V61.625C74.9154 62.7084 74.8737 63.75 74.7487 64.75C73.7904 76 67.1654 81.5833 54.957 81.5833H53.2904C52.2487 81.5833 51.2487 82.0833 50.6237 82.9166L45.6237 89.5833C43.4154 92.5417 39.832 92.5417 37.6237 89.5833L32.6236 82.9166C32.082 82.2083 30.8737 81.5833 29.957 81.5833H28.2904C14.9987 81.5833 8.33203 78.2917 8.33203 61.625V44.9584C8.33203 32.75 13.9571 26.125 25.1654 25.1667C26.1654 25.0417 27.2071 25 28.2904 25H54.957C68.2487 25 74.9154 31.6667 74.9154 44.9584Z" stroke="#161617" stroke-width="5" stroke-miterlimit="10" stroke-linecap="round" stroke-linejoin="round"/>
<path d="M91.5847 28.2919V44.9585C91.5847 57.2085 85.9596 63.7919 74.7513 64.7502C74.8763 63.7502 74.918 62.7085 74.918 61.6252V44.9585C74.918 31.6669 68.2513 25.0002 54.9596 25.0002H28.293C27.2096 25.0002 26.168 25.0419 25.168 25.1669C26.1263 13.9585 32.7513 8.3335 44.9596 8.3335H71.6263C84.9179 8.3335 91.5847 15.0002 91.5847 28.2919Z" stroke="#161617" stroke-width="5" stroke-miterlimit="10" stroke-linecap="round" stroke-linejoin="round"/>
<path d="M56.2326 55.2083H56.2701" stroke="#161617" stroke-width="5" stroke-linecap="round" stroke-linejoin="round"/>
<path d="M41.6466 55.2083H41.6841" stroke="#161617" stroke-width="5" stroke-linecap="round" stroke-linejoin="round"/>
<path d="M27.0646 55.2083H27.1021" stroke="#161617" stroke-width="5" stroke-linecap="round" stroke-linejoin="round"/>
</svg>
