<svg width="175" height="175" viewBox="0 0 175 175" fill="none" xmlns="http://www.w3.org/2000/svg">
<circle cx="87.2296" cy="87.2296" r="80.4148" stroke="#E7E7E7" stroke-width="13.6296"/>
<path d="M167.646 87.2296C167.646 131.642 131.643 167.644 87.2312 167.644C42.8193 167.644 6.81641 131.642 6.81641 87.2296C6.81641 42.8178 42.8193 6.81482 87.2312 6.81482" stroke="#4970FC" stroke-width="13.6296" stroke-linecap="round"/>
<path d="M42.9772 101V96.152L55.0732 84.92C56.1292 83.896 56.9612 82.968 57.5693 82.136C58.1773 81.304 58.6253 80.504 58.9133 79.736C59.2013 78.968 59.3453 78.2 59.3453 77.432C59.3453 76.408 59.1053 75.496 58.6252 74.696C58.1772 73.864 57.5373 73.208 56.7053 72.728C55.8732 72.216 54.8812 71.96 53.7292 71.96C52.5452 71.96 51.4892 72.248 50.5612 72.824C49.6652 73.4 48.9612 74.248 48.4492 75.368C47.9372 76.456 47.6812 77.8 47.6812 79.4L47.1532 79.496L42.3052 78.488C42.3052 76.152 42.8172 74.104 43.8412 72.344C44.8972 70.552 46.2892 69.16 48.0172 68.168C49.7772 67.176 51.7292 66.68 53.8732 66.68C56.0172 66.68 57.9212 67.16 59.5853 68.12C61.2492 69.08 62.5452 70.392 63.4733 72.056C64.4332 73.688 64.9132 75.528 64.9132 77.576C64.9132 78.824 64.7052 80.024 64.2893 81.176C63.8733 82.328 63.2013 83.528 62.2733 84.776C61.3773 85.992 60.1453 87.32 58.5773 88.76L47.9212 98.84L46.7692 95.72H65.9692V101H42.9772ZM80.6479 101.72C78.0559 101.72 75.8159 101.016 73.9279 99.608C72.0399 98.168 70.5679 96.136 69.5119 93.512C68.4879 90.888 67.9759 87.784 67.9759 84.2C67.9759 80.616 68.4879 77.512 69.5119 74.888C70.5679 72.264 72.0399 70.248 73.9279 68.84C75.8159 67.4 78.0559 66.68 80.6479 66.68C83.2399 66.68 85.4799 67.4 87.3679 68.84C89.2879 70.248 90.7599 72.264 91.7839 74.888C92.8079 77.512 93.3199 80.616 93.3199 84.2C93.3199 87.784 92.8079 90.888 91.7839 93.512C90.7599 96.136 89.2879 98.168 87.3679 99.608C85.4799 101.016 83.2399 101.72 80.6479 101.72ZM80.6479 96.44C82.1199 96.44 83.3839 95.944 84.4399 94.952C85.4959 93.96 86.3119 92.552 86.8879 90.728C87.4959 88.904 87.7999 86.728 87.7999 84.2C87.7999 81.672 87.4959 79.496 86.8879 77.672C86.3119 75.848 85.4959 74.44 84.4399 73.448C83.3839 72.456 82.1199 71.96 80.6479 71.96C79.2079 71.96 77.9439 72.456 76.8559 73.448C75.7999 74.408 74.9839 75.816 74.4079 77.672C73.8319 79.496 73.5439 81.672 73.5439 84.2C73.5439 86.728 73.8319 88.92 74.4079 90.776C74.9839 92.6 75.7999 94.008 76.8559 95C77.9439 95.96 79.2079 96.44 80.6479 96.44ZM103.112 85.256C100.936 85.256 99.2079 84.44 97.9279 82.808C96.6799 81.144 96.0559 78.888 96.0559 76.04C96.0559 73.192 96.6799 70.952 97.9279 69.32C99.2079 67.656 100.936 66.824 103.112 66.824C105.288 66.824 107 67.656 108.248 69.32C109.528 70.952 110.168 73.192 110.168 76.04C110.168 78.888 109.528 81.144 108.248 82.808C107 84.44 105.288 85.256 103.112 85.256ZM103.112 80.984C103.88 80.984 104.488 80.536 104.936 79.64C105.384 78.744 105.608 77.544 105.608 76.04C105.608 74.504 105.384 73.304 104.936 72.44C104.488 71.544 103.88 71.096 103.112 71.096C102.344 71.096 101.736 71.544 101.288 72.44C100.84 73.304 100.616 74.504 100.616 76.04C100.616 77.544 100.84 78.744 101.288 79.64C101.736 80.536 102.344 80.984 103.112 80.984ZM101.288 101L122.168 67.4H127.16L106.28 101H101.288ZM125.336 101.576C123.16 101.576 121.432 100.76 120.152 99.128C118.904 97.464 118.28 95.208 118.28 92.36C118.28 89.512 118.904 87.272 120.152 85.64C121.432 83.976 123.16 83.144 125.336 83.144C127.512 83.144 129.224 83.976 130.472 85.64C131.752 87.272 132.392 89.512 132.392 92.36C132.392 95.208 131.752 97.464 130.472 99.128C129.224 100.76 127.512 101.576 125.336 101.576ZM125.336 97.304C126.104 97.304 126.712 96.856 127.16 95.96C127.608 95.064 127.832 93.864 127.832 92.36C127.832 90.824 127.608 89.624 127.16 88.76C126.712 87.864 126.104 87.416 125.336 87.416C124.568 87.416 123.96 87.864 123.512 88.76C123.064 89.624 122.84 90.824 122.84 92.36C122.84 93.864 123.064 95.064 123.512 95.96C123.96 96.856 124.568 97.304 125.336 97.304Z" fill="#161617"/>
</svg>
