<svg width="658" height="305" viewBox="0 0 658 305" fill="none" xmlns="http://www.w3.org/2000/svg">
<g clip-path="url(#clip0_7498_11465)">
<rect y="0.964111" width="658" height="304" rx="9.98201" fill="white"/>
<path d="M6.168 159.094C5.752 159.094 5.428 159.218 5.196 159.466C4.964 159.706 4.848 160.05 4.848 160.498V162.958H3.6L3.6 160.39C3.6 159.566 3.832 158.918 4.296 158.446C4.76 157.966 5.384 157.726 6.168 157.726V159.094ZM12 163.666H3.6V162.322H12V163.666ZM8.724 162.958H7.476V160.498C7.476 160.05 7.36 159.706 7.128 159.466C6.896 159.218 6.576 159.094 6.168 159.094V157.726C6.944 157.726 7.564 157.966 8.028 158.446C8.492 158.918 8.724 159.566 8.724 160.39V162.958ZM12.18 154.076C12.18 154.692 12.044 155.236 11.772 155.708C11.5 156.172 11.124 156.536 10.644 156.8C10.164 157.064 9.604 157.196 8.964 157.196C8.332 157.196 7.776 157.068 7.296 156.812C6.808 156.548 6.432 156.188 6.168 155.732C5.896 155.268 5.76 154.736 5.76 154.136C5.76 153.536 5.9 153.016 6.18 152.576C6.452 152.128 6.836 151.78 7.332 151.532C7.828 151.276 8.408 151.148 9.072 151.148H9.3L9.48 151.328V156.548H8.328V151.772L8.604 152.504C8.268 152.512 7.98 152.592 7.74 152.744C7.492 152.888 7.304 153.08 7.176 153.32C7.04 153.552 6.972 153.816 6.972 154.112C6.972 154.432 7.048 154.724 7.2 154.988C7.344 155.252 7.548 155.456 7.812 155.6C8.068 155.744 8.368 155.816 8.712 155.816H9.192C9.52 155.816 9.82 155.74 10.092 155.588C10.356 155.428 10.568 155.216 10.728 154.952C10.888 154.688 10.968 154.396 10.968 154.076C10.968 153.772 10.888 153.496 10.728 153.248C10.56 152.992 10.336 152.792 10.056 152.648V152.504L10.536 151.388C11.056 151.628 11.46 151.984 11.748 152.456C12.036 152.92 12.18 153.46 12.18 154.076ZM12 149.958H5.94V148.662H7.488L7.464 149.01C6.992 148.842 6.62 148.562 6.348 148.17C6.076 147.778 5.94 147.33 5.94 146.826V146.238H7.176V147.03C7.176 147.342 7.248 147.614 7.392 147.846C7.528 148.078 7.724 148.258 7.98 148.386C8.236 148.514 8.54 148.578 8.892 148.578H12V149.958ZM12.18 142.813C12.18 143.437 12.044 143.985 11.772 144.457C11.5 144.929 11.124 145.297 10.644 145.561C10.164 145.825 9.604 145.957 8.964 145.957C8.332 145.957 7.776 145.825 7.296 145.561C6.808 145.297 6.432 144.929 6.168 144.457C5.896 143.985 5.76 143.437 5.76 142.813C5.76 142.333 5.84 141.905 6 141.529C6.16 141.145 6.396 140.821 6.708 140.557C7.02 140.293 7.404 140.093 7.86 139.957L8.184 141.109V141.253C7.824 141.365 7.54 141.565 7.332 141.853C7.116 142.141 7.008 142.461 7.008 142.813C7.008 143.173 7.088 143.485 7.248 143.749C7.408 144.013 7.636 144.217 7.932 144.361C8.22 144.505 8.564 144.577 8.964 144.577C9.356 144.577 9.7 144.505 9.996 144.361C10.292 144.217 10.524 144.013 10.692 143.749C10.852 143.485 10.932 143.173 10.932 142.813C10.932 142.557 10.884 142.325 10.788 142.117C10.692 141.901 10.556 141.713 10.38 141.553C10.204 141.393 9.992 141.273 9.744 141.193V141.049L10.068 139.897C10.532 140.041 10.924 140.249 11.244 140.521C11.556 140.793 11.792 141.121 11.952 141.505C12.104 141.881 12.18 142.317 12.18 142.813ZM12.18 135.947C12.18 136.563 12.044 137.107 11.772 137.579C11.5 138.043 11.124 138.407 10.644 138.671C10.164 138.935 9.604 139.067 8.964 139.067C8.332 139.067 7.776 138.939 7.296 138.683C6.808 138.419 6.432 138.059 6.168 137.603C5.896 137.139 5.76 136.607 5.76 136.007C5.76 135.407 5.9 134.887 6.18 134.447C6.452 133.999 6.836 133.651 7.332 133.403C7.828 133.147 8.408 133.019 9.072 133.019H9.3L9.48 133.199V138.419H8.328V133.643L8.604 134.375C8.268 134.383 7.98 134.463 7.74 134.615C7.492 134.759 7.304 134.951 7.176 135.191C7.04 135.423 6.972 135.687 6.972 135.983C6.972 136.303 7.048 136.595 7.2 136.859C7.344 137.123 7.548 137.327 7.812 137.471C8.068 137.615 8.368 137.687 8.712 137.687H9.192C9.52 137.687 9.82 137.611 10.092 137.459C10.356 137.299 10.568 137.087 10.728 136.823C10.888 136.559 10.968 136.267 10.968 135.947C10.968 135.643 10.888 135.367 10.728 135.119C10.56 134.863 10.336 134.663 10.056 134.519V134.375L10.536 133.259C11.056 133.499 11.46 133.855 11.748 134.327C12.036 134.791 12.18 135.331 12.18 135.947ZM12 131.829H5.94V130.533H7.488L7.464 130.881C7.112 130.753 6.812 130.569 6.564 130.329C6.308 130.089 6.112 129.809 5.976 129.489C5.832 129.169 5.76 128.821 5.76 128.445C5.76 128.013 5.856 127.625 6.048 127.281C6.232 126.929 6.508 126.653 6.876 126.453C7.236 126.245 7.688 126.141 8.232 126.141H12V127.521H8.652C8.268 127.521 7.956 127.573 7.716 127.677C7.476 127.781 7.3 127.933 7.188 128.133C7.076 128.325 7.02 128.549 7.02 128.805C7.02 129.045 7.08 129.293 7.2 129.549C7.32 129.797 7.52 130.009 7.8 130.185C8.08 130.361 8.46 130.449 8.94 130.449H12V131.829ZM12 122.618C12 123.21 11.816 123.682 11.448 124.034C11.072 124.386 10.568 124.562 9.936 124.562H4.368V123.182H9.792C10.112 123.182 10.352 123.102 10.512 122.942C10.672 122.774 10.752 122.534 10.752 122.222V121.598L10.884 121.538H12V122.618ZM7.176 125.594H5.94V121.538H7.176V125.594ZM12.18 118.637C12.18 119.053 12.1 119.425 11.94 119.753C11.78 120.073 11.556 120.325 11.268 120.509C10.98 120.693 10.652 120.785 10.284 120.785C9.716 120.785 9.264 120.589 8.928 120.197C8.584 119.805 8.384 119.241 8.328 118.505L8.136 116.153H9.276L9.456 118.301C9.488 118.685 9.568 118.961 9.696 119.129C9.824 119.297 9.996 119.381 10.212 119.381C10.428 119.381 10.604 119.285 10.74 119.093C10.876 118.901 10.944 118.657 10.944 118.361C10.944 118.049 10.868 117.769 10.716 117.521C10.556 117.265 10.352 117.061 10.104 116.909C9.856 116.757 9.588 116.681 9.3 116.681H8.304C7.92 116.681 7.604 116.809 7.356 117.065C7.1 117.321 6.972 117.657 6.972 118.073C6.972 118.425 7.06 118.717 7.236 118.949C7.404 119.173 7.616 119.317 7.872 119.381V119.513L7.584 120.689C7.04 120.545 6.6 120.245 6.264 119.789C5.928 119.325 5.76 118.749 5.76 118.061C5.76 117.205 6.008 116.537 6.504 116.057C6.992 115.577 7.684 115.337 8.58 115.337H12V116.561H10.236L10.308 116.069C10.652 116.165 10.968 116.337 11.256 116.585C11.536 116.833 11.76 117.133 11.928 117.485C12.096 117.829 12.18 118.213 12.18 118.637ZM14.4 111.857C14.4 112.673 14.24 113.313 13.92 113.777C13.608 114.241 13.172 114.473 12.612 114.473C12.252 114.473 11.936 114.377 11.664 114.185C11.392 113.985 11.18 113.701 11.028 113.333L11.604 112.661C11.676 112.829 11.784 112.961 11.928 113.057C12.072 113.145 12.228 113.189 12.396 113.189C12.628 113.189 12.832 113.101 13.008 112.925C13.184 112.741 13.272 112.445 13.272 112.037V111.197C13.272 110.765 13.208 110.441 13.08 110.225C12.96 110.009 12.78 109.901 12.54 109.901C12.348 109.901 12.2 109.981 12.096 110.141C11.992 110.293 11.94 110.505 11.94 110.777V112.277C11.94 112.629 11.88 112.945 11.76 113.225C11.64 113.497 11.476 113.713 11.268 113.873C11.052 114.033 10.808 114.113 10.536 114.113C10.232 114.113 9.964 114.021 9.732 113.837C9.492 113.645 9.3 113.373 9.156 113.021L9.756 112.277C9.772 112.469 9.84 112.617 9.96 112.721C10.072 112.825 10.192 112.877 10.32 112.877C10.48 112.877 10.608 112.813 10.704 112.685C10.792 112.557 10.836 112.361 10.836 112.097V110.633C10.836 110.025 10.988 109.541 11.292 109.181C11.596 108.813 12 108.629 12.504 108.629C13.08 108.629 13.54 108.861 13.884 109.325C14.228 109.789 14.4 110.417 14.4 111.209V111.857ZM10.068 111.497C10.068 111.993 9.976 112.429 9.792 112.805C9.608 113.181 9.356 113.477 9.036 113.693C8.708 113.901 8.332 114.005 7.908 114.005C7.484 114.005 7.112 113.901 6.792 113.693C6.472 113.477 6.22 113.181 6.036 112.805C5.852 112.429 5.76 111.993 5.76 111.497C5.76 111.001 5.852 110.569 6.036 110.201C6.22 109.825 6.472 109.533 6.792 109.325C7.112 109.109 7.484 109.001 7.908 109.001C8.332 109.001 8.708 109.109 9.036 109.325C9.356 109.533 9.608 109.825 9.792 110.201C9.976 110.569 10.068 111.001 10.068 111.497ZM8.964 111.497C8.964 111.137 8.868 110.845 8.676 110.621C8.476 110.397 8.22 110.285 7.908 110.285C7.596 110.285 7.344 110.397 7.152 110.621C6.96 110.845 6.864 111.137 6.864 111.497C6.864 111.865 6.96 112.161 7.152 112.385C7.344 112.601 7.596 112.709 7.908 112.709C8.22 112.709 8.476 112.601 8.676 112.385C8.868 112.161 8.964 111.865 8.964 111.497ZM6.828 109.745L6.408 110.609C6.056 110.609 5.744 110.541 5.472 110.405C5.2 110.269 4.988 110.085 4.836 109.853C4.676 109.613 4.596 109.345 4.596 109.049C4.596 108.961 4.6 108.877 4.608 108.797C4.608 108.717 4.616 108.657 4.632 108.617H5.796L5.916 108.677C5.892 108.757 5.88 108.857 5.88 108.977C5.88 109.233 5.968 109.425 6.144 109.553C6.32 109.681 6.548 109.745 6.828 109.745ZM12.18 104.974C12.18 105.59 12.044 106.134 11.772 106.606C11.5 107.07 11.124 107.434 10.644 107.698C10.164 107.962 9.604 108.094 8.964 108.094C8.332 108.094 7.776 107.966 7.296 107.71C6.808 107.446 6.432 107.086 6.168 106.63C5.896 106.166 5.76 105.634 5.76 105.034C5.76 104.434 5.9 103.914 6.18 103.474C6.452 103.026 6.836 102.678 7.332 102.43C7.828 102.174 8.408 102.046 9.072 102.046H9.3L9.48 102.226V107.446H8.328V102.67L8.604 103.402C8.268 103.41 7.98 103.49 7.74 103.642C7.492 103.786 7.304 103.978 7.176 104.218C7.04 104.45 6.972 104.714 6.972 105.01C6.972 105.33 7.048 105.622 7.2 105.886C7.344 106.15 7.548 106.354 7.812 106.498C8.068 106.642 8.368 106.714 8.712 106.714H9.192C9.52 106.714 9.82 106.638 10.092 106.486C10.356 106.326 10.568 106.114 10.728 105.85C10.888 105.586 10.968 105.294 10.968 104.974C10.968 104.67 10.888 104.394 10.728 104.146C10.56 103.89 10.336 103.69 10.056 103.546V103.402L10.536 102.286C11.056 102.526 11.46 102.882 11.748 103.354C12.036 103.818 12.18 104.358 12.18 104.974ZM8.064 99.5123C8.064 100.056 7.86 100.488 7.452 100.808C7.036 101.12 6.472 101.276 5.76 101.276C5.048 101.276 4.488 101.12 4.08 100.808C3.664 100.488 3.456 100.056 3.456 99.5123C3.456 98.9683 3.664 98.5403 4.08 98.2283C4.488 97.9083 5.048 97.7483 5.76 97.7483C6.472 97.7483 7.036 97.9083 7.452 98.2283C7.86 98.5403 8.064 98.9683 8.064 99.5123ZM6.996 99.5123C6.996 99.3203 6.884 99.1683 6.66 99.0563C6.436 98.9443 6.136 98.8883 5.76 98.8883C5.376 98.8883 5.076 98.9443 4.86 99.0563C4.636 99.1683 4.524 99.3203 4.524 99.5123C4.524 99.7043 4.636 99.8563 4.86 99.9683C5.076 100.08 5.376 100.136 5.76 100.136C6.136 100.136 6.436 100.08 6.66 99.9683C6.884 99.8563 6.996 99.7043 6.996 99.5123ZM12 99.9683L3.6 94.7483V93.5003L12 98.7203V99.9683ZM12.144 93.9563C12.144 94.5003 11.94 94.9323 11.532 95.2523C11.116 95.5643 10.552 95.7203 9.84 95.7203C9.128 95.7203 8.568 95.5643 8.16 95.2523C7.744 94.9323 7.536 94.5003 7.536 93.9563C7.536 93.4123 7.744 92.9843 8.16 92.6723C8.568 92.3523 9.128 92.1923 9.84 92.1923C10.552 92.1923 11.116 92.3523 11.532 92.6723C11.94 92.9843 12.144 93.4123 12.144 93.9563ZM11.076 93.9563C11.076 93.7643 10.964 93.6123 10.74 93.5003C10.516 93.3883 10.216 93.3323 9.84 93.3323C9.456 93.3323 9.156 93.3883 8.94 93.5003C8.716 93.6123 8.604 93.7643 8.604 93.9563C8.604 94.1483 8.716 94.3003 8.94 94.4123C9.156 94.5243 9.456 94.5803 9.84 94.5803C10.216 94.5803 10.516 94.5243 10.74 94.4123C10.964 94.3003 11.076 94.1483 11.076 93.9563Z" fill="#414141"/>
<path d="M330.286 296.453V288.053H331.666V296.453H330.286ZM327.778 289.373V288.053H334.174V289.373H327.778ZM336.843 296.633C336.235 296.633 335.699 296.497 335.235 296.225C334.771 295.953 334.407 295.577 334.143 295.097C333.879 294.609 333.747 294.049 333.747 293.417C333.747 292.793 333.879 292.241 334.143 291.761C334.407 291.273 334.771 290.893 335.235 290.621C335.699 290.349 336.235 290.213 336.843 290.213C337.459 290.213 337.999 290.349 338.463 290.621C338.927 290.893 339.291 291.273 339.555 291.761C339.819 292.241 339.951 292.793 339.951 293.417C339.951 294.049 339.819 294.609 339.555 295.097C339.291 295.577 338.927 295.953 338.463 296.225C337.999 296.497 337.459 296.633 336.843 296.633ZM336.843 295.385C337.195 295.385 337.499 295.305 337.755 295.145C338.011 294.985 338.211 294.757 338.355 294.461C338.499 294.165 338.571 293.821 338.571 293.429C338.571 293.021 338.499 292.673 338.355 292.385C338.211 292.089 338.011 291.861 337.755 291.701C337.499 291.541 337.195 291.461 336.843 291.461C336.499 291.461 336.199 291.541 335.943 291.701C335.687 291.861 335.487 292.089 335.343 292.385C335.199 292.673 335.127 293.017 335.127 293.417C335.127 293.817 335.199 294.165 335.343 294.461C335.487 294.757 335.687 294.985 335.943 295.145C336.199 295.305 336.499 295.385 336.843 295.385ZM344.473 296.633C344.025 296.633 343.625 296.541 343.273 296.357C342.921 296.173 342.625 295.933 342.385 295.637C342.153 295.341 341.989 295.025 341.893 294.689V292.145C341.989 291.801 342.153 291.485 342.385 291.197C342.625 290.901 342.921 290.665 343.273 290.489C343.625 290.305 344.025 290.213 344.473 290.213C345.025 290.213 345.517 290.353 345.949 290.633C346.389 290.905 346.737 291.281 346.993 291.761C347.257 292.241 347.389 292.793 347.389 293.417C347.389 294.041 347.257 294.597 346.993 295.085C346.737 295.565 346.389 295.945 345.949 296.225C345.517 296.497 345.025 296.633 344.473 296.633ZM341.149 298.853V290.393H342.445V292.265L342.157 293.417L342.529 294.581V298.853H341.149ZM344.269 295.373C344.613 295.373 344.913 295.293 345.169 295.133C345.433 294.965 345.637 294.733 345.781 294.437C345.933 294.141 346.009 293.801 346.009 293.417C346.009 293.033 345.933 292.697 345.781 292.409C345.637 292.113 345.433 291.881 345.169 291.713C344.913 291.545 344.613 291.461 344.269 291.461C343.925 291.461 343.617 291.545 343.345 291.713C343.081 291.881 342.873 292.113 342.721 292.409C342.577 292.697 342.505 293.033 342.505 293.417C342.505 293.801 342.577 294.141 342.721 294.437C342.873 294.733 343.081 294.965 343.345 295.133C343.617 295.293 343.925 295.373 344.269 295.373ZM348.578 296.453V290.393H349.958V296.453H348.578ZM349.274 289.481C349.034 289.481 348.83 289.397 348.662 289.229C348.494 289.061 348.41 288.853 348.41 288.605C348.41 288.373 348.494 288.173 348.662 288.005C348.83 287.829 349.038 287.741 349.286 287.741C349.518 287.741 349.718 287.829 349.886 288.005C350.062 288.173 350.15 288.377 350.15 288.617C350.15 288.857 350.062 289.061 349.886 289.229C349.718 289.397 349.514 289.481 349.274 289.481ZM354.317 296.633C353.693 296.633 353.145 296.497 352.673 296.225C352.201 295.953 351.833 295.577 351.569 295.097C351.305 294.617 351.173 294.057 351.173 293.417C351.173 292.785 351.305 292.229 351.569 291.749C351.833 291.261 352.201 290.885 352.673 290.621C353.145 290.349 353.693 290.213 354.317 290.213C354.797 290.213 355.225 290.293 355.601 290.453C355.985 290.613 356.309 290.849 356.573 291.161C356.837 291.473 357.037 291.857 357.173 292.313L356.021 292.637H355.877C355.765 292.277 355.565 291.993 355.277 291.785C354.989 291.569 354.669 291.461 354.317 291.461C353.957 291.461 353.645 291.541 353.381 291.701C353.117 291.861 352.913 292.089 352.769 292.385C352.625 292.673 352.553 293.017 352.553 293.417C352.553 293.809 352.625 294.153 352.769 294.449C352.913 294.745 353.117 294.977 353.381 295.145C353.645 295.305 353.957 295.385 354.317 295.385C354.573 295.385 354.805 295.337 355.013 295.241C355.229 295.145 355.417 295.009 355.577 294.833C355.737 294.657 355.857 294.445 355.937 294.197H356.081L357.233 294.521C357.089 294.985 356.881 295.377 356.609 295.697C356.337 296.009 356.009 296.245 355.625 296.405C355.249 296.557 354.813 296.633 354.317 296.633ZM360.547 296.633C359.891 296.633 359.331 296.477 358.867 296.165C358.403 295.853 358.095 295.425 357.943 294.881L359.203 294.569L359.335 294.593C359.407 294.849 359.559 295.053 359.791 295.205C360.031 295.349 360.307 295.421 360.619 295.421C360.923 295.421 361.179 295.357 361.387 295.229C361.603 295.093 361.711 294.921 361.711 294.713C361.711 294.537 361.647 294.397 361.519 294.293C361.399 294.181 361.211 294.097 360.955 294.041L359.815 293.789C359.255 293.661 358.827 293.449 358.531 293.153C358.243 292.849 358.099 292.485 358.099 292.061C358.099 291.693 358.199 291.373 358.399 291.101C358.607 290.821 358.891 290.605 359.251 290.453C359.611 290.293 360.023 290.213 360.487 290.213C361.119 290.213 361.655 290.369 362.095 290.681C362.535 290.993 362.827 291.429 362.971 291.989L361.771 292.241L361.639 292.217C361.575 291.977 361.427 291.785 361.195 291.641C360.971 291.497 360.715 291.425 360.427 291.425C360.155 291.425 359.923 291.481 359.731 291.593C359.547 291.697 359.455 291.841 359.455 292.025C359.455 292.161 359.511 292.285 359.623 292.397C359.735 292.501 359.911 292.577 360.151 292.625L361.291 292.889C361.883 293.025 362.327 293.233 362.623 293.513C362.927 293.785 363.079 294.157 363.079 294.629C363.079 295.037 362.967 295.393 362.743 295.697C362.527 295.993 362.227 296.225 361.843 296.393C361.467 296.553 361.035 296.633 360.547 296.633Z" fill="#414141"/>
<path d="M19.2646 20.95V13.018L19.7086 13.354L17.7646 14.926H17.6686V13.894L19.3006 12.55H20.1646V20.95H19.2646ZM24.9569 21.094C24.3089 21.094 23.7489 20.918 23.2769 20.566C22.8049 20.206 22.4369 19.702 22.1729 19.054C21.9169 18.406 21.7889 17.638 21.7889 16.75C21.7889 15.862 21.9169 15.094 22.1729 14.446C22.4369 13.79 22.8049 13.286 23.2769 12.934C23.7489 12.582 24.3089 12.406 24.9569 12.406C25.6049 12.406 26.1649 12.582 26.6369 12.934C27.1169 13.286 27.4849 13.79 27.7409 14.446C27.9969 15.094 28.1249 15.862 28.1249 16.75C28.1249 17.638 27.9969 18.406 27.7409 19.054C27.4849 19.702 27.1169 20.206 26.6369 20.566C26.1649 20.918 25.6049 21.094 24.9569 21.094ZM24.9569 20.218C25.4209 20.218 25.8169 20.078 26.1449 19.798C26.4809 19.518 26.7409 19.118 26.9249 18.598C27.1089 18.078 27.2009 17.462 27.2009 16.75C27.2009 16.038 27.1089 15.422 26.9249 14.902C26.7409 14.382 26.4809 13.982 26.1449 13.702C25.8169 13.422 25.4209 13.282 24.9569 13.282C24.5009 13.282 24.1049 13.422 23.7689 13.702C23.4329 13.982 23.1729 14.382 22.9889 14.902C22.8049 15.422 22.7129 16.038 22.7129 16.75C22.7129 17.462 22.8049 18.078 22.9889 18.598C23.1729 19.118 23.4329 19.518 23.7689 19.798C24.1049 20.078 24.5009 20.218 24.9569 20.218ZM32.3749 21.094C31.7269 21.094 31.1669 20.918 30.6949 20.566C30.2229 20.206 29.8549 19.702 29.5909 19.054C29.3349 18.406 29.2069 17.638 29.2069 16.75C29.2069 15.862 29.3349 15.094 29.5909 14.446C29.8549 13.79 30.2229 13.286 30.6949 12.934C31.1669 12.582 31.7269 12.406 32.3749 12.406C33.0229 12.406 33.5829 12.582 34.0549 12.934C34.5349 13.286 34.9029 13.79 35.1589 14.446C35.4149 15.094 35.5429 15.862 35.5429 16.75C35.5429 17.638 35.4149 18.406 35.1589 19.054C34.9029 19.702 34.5349 20.206 34.0549 20.566C33.5829 20.918 33.0229 21.094 32.3749 21.094ZM32.3749 20.218C32.8389 20.218 33.2349 20.078 33.5629 19.798C33.8989 19.518 34.1589 19.118 34.3429 18.598C34.5269 18.078 34.6189 17.462 34.6189 16.75C34.6189 16.038 34.5269 15.422 34.3429 14.902C34.1589 14.382 33.8989 13.982 33.5629 13.702C33.2349 13.422 32.8389 13.282 32.3749 13.282C31.9189 13.282 31.5229 13.422 31.1869 13.702C30.8509 13.982 30.5909 14.382 30.4069 14.902C30.2229 15.422 30.1309 16.038 30.1309 16.75C30.1309 17.462 30.2229 18.078 30.4069 18.598C30.5909 19.118 30.8509 19.518 31.1869 19.798C31.5229 20.078 31.9189 20.218 32.3749 20.218ZM38.2992 17.002C37.7792 17.002 37.3632 16.798 37.0512 16.39C36.7472 15.974 36.5952 15.414 36.5952 14.71C36.5952 14.006 36.7472 13.45 37.0512 13.042C37.3632 12.626 37.7792 12.418 38.2992 12.418C38.8272 12.418 39.2432 12.626 39.5472 13.042C39.8592 13.45 40.0152 14.006 40.0152 14.71C40.0152 15.414 39.8592 15.974 39.5472 16.39C39.2432 16.798 38.8272 17.002 38.2992 17.002ZM38.2992 16.15C38.5552 16.15 38.7552 16.022 38.8992 15.766C39.0432 15.502 39.1152 15.15 39.1152 14.71C39.1152 14.262 39.0432 13.91 38.8992 13.654C38.7552 13.398 38.5552 13.27 38.2992 13.27C38.0512 13.27 37.8552 13.398 37.7112 13.654C37.5672 13.91 37.4952 14.262 37.4952 14.71C37.4952 15.15 37.5672 15.502 37.7112 15.766C37.8552 16.022 38.0512 16.15 38.2992 16.15ZM37.9992 20.95L43.2192 12.55H44.1552L38.9352 20.95H37.9992ZM43.8552 21.082C43.3352 21.082 42.9192 20.878 42.6072 20.47C42.3032 20.054 42.1512 19.494 42.1512 18.79C42.1512 18.086 42.3032 17.53 42.6072 17.122C42.9192 16.706 43.3352 16.498 43.8552 16.498C44.3832 16.498 44.7992 16.706 45.1032 17.122C45.4152 17.53 45.5712 18.086 45.5712 18.79C45.5712 19.494 45.4152 20.054 45.1032 20.47C44.7992 20.878 44.3832 21.082 43.8552 21.082ZM43.8552 20.23C44.1112 20.23 44.3112 20.102 44.4552 19.846C44.5992 19.582 44.6712 19.23 44.6712 18.79C44.6712 18.342 44.5992 17.99 44.4552 17.734C44.3112 17.478 44.1112 17.35 43.8552 17.35C43.6072 17.35 43.4112 17.478 43.2672 17.734C43.1232 17.99 43.0512 18.342 43.0512 18.79C43.0512 19.23 43.1232 19.582 43.2672 19.846C43.4112 20.102 43.6072 20.23 43.8552 20.23Z" fill="#161617"/>
<path d="M25.0776 74.5754V74.4794L28.5336 66.5834L28.8096 67.0514H23.9016V66.1754H29.3016V67.0034L26.0616 74.5754H25.0776ZM32.8129 74.7194C32.2609 74.7194 31.7689 74.6154 31.3369 74.4074C30.9129 74.1994 30.5689 73.9074 30.3049 73.5314C30.0489 73.1554 29.8929 72.7194 29.8369 72.2234L30.6169 72.0554L30.7489 72.0794C30.8129 72.4474 30.9329 72.7634 31.1089 73.0274C31.2929 73.2914 31.5209 73.4954 31.7929 73.6394C32.0729 73.7754 32.3929 73.8434 32.7529 73.8434C33.1849 73.8434 33.5489 73.7594 33.8449 73.5914C34.1489 73.4234 34.3809 73.1914 34.5409 72.8954C34.7009 72.5914 34.7809 72.2434 34.7809 71.8514C34.7809 71.4514 34.6969 71.0994 34.5289 70.7954C34.3689 70.4914 34.1369 70.2554 33.8329 70.0874C33.5289 69.9194 33.1729 69.8354 32.7649 69.8354C32.3649 69.8354 32.0089 69.9234 31.6969 70.0994C31.3849 70.2674 31.1329 70.5154 30.9409 70.8434L29.9449 70.6754L30.6409 66.1754H35.2009V67.0514H31.0849L31.4689 66.7754L30.8809 70.1834H30.6409C30.7769 69.9434 30.9529 69.7314 31.1689 69.5474C31.3849 69.3634 31.6369 69.2194 31.9249 69.1154C32.2129 69.0114 32.5369 68.9594 32.8969 68.9594C33.4089 68.9594 33.8769 69.0794 34.3009 69.3194C34.7329 69.5514 35.0769 69.8834 35.3329 70.3154C35.5889 70.7394 35.7169 71.2434 35.7169 71.8274C35.7169 72.4034 35.5929 72.9114 35.3449 73.3514C35.0969 73.7834 34.7529 74.1194 34.3129 74.3594C33.8809 74.5994 33.3809 74.7194 32.8129 74.7194ZM38.2992 70.6274C37.7792 70.6274 37.3632 70.4234 37.0512 70.0154C36.7472 69.5994 36.5952 69.0394 36.5952 68.3354C36.5952 67.6314 36.7472 67.0754 37.0512 66.6674C37.3632 66.2514 37.7792 66.0434 38.2992 66.0434C38.8272 66.0434 39.2432 66.2514 39.5472 66.6674C39.8592 67.0754 40.0152 67.6314 40.0152 68.3354C40.0152 69.0394 39.8592 69.5994 39.5472 70.0154C39.2432 70.4234 38.8272 70.6274 38.2992 70.6274ZM38.2992 69.7754C38.5552 69.7754 38.7552 69.6474 38.8992 69.3914C39.0432 69.1274 39.1152 68.7754 39.1152 68.3354C39.1152 67.8874 39.0432 67.5354 38.8992 67.2794C38.7552 67.0234 38.5552 66.8954 38.2992 66.8954C38.0512 66.8954 37.8552 67.0234 37.7112 67.2794C37.5672 67.5354 37.4952 67.8874 37.4952 68.3354C37.4952 68.7754 37.5672 69.1274 37.7112 69.3914C37.8552 69.6474 38.0512 69.7754 38.2992 69.7754ZM37.9992 74.5754L43.2192 66.1754H44.1552L38.9352 74.5754H37.9992ZM43.8552 74.7074C43.3352 74.7074 42.9192 74.5034 42.6072 74.0954C42.3032 73.6794 42.1512 73.1194 42.1512 72.4154C42.1512 71.7114 42.3032 71.1554 42.6072 70.7474C42.9192 70.3314 43.3352 70.1234 43.8552 70.1234C44.3832 70.1234 44.7992 70.3314 45.1032 70.7474C45.4152 71.1554 45.5712 71.7114 45.5712 72.4154C45.5712 73.1194 45.4152 73.6794 45.1032 74.0954C44.7992 74.5034 44.3832 74.7074 43.8552 74.7074ZM43.8552 73.8554C44.1112 73.8554 44.3112 73.7274 44.4552 73.4714C44.5992 73.2074 44.6712 72.8554 44.6712 72.4154C44.6712 71.9674 44.5992 71.6154 44.4552 71.3594C44.3112 71.1034 44.1112 70.9754 43.8552 70.9754C43.6072 70.9754 43.4112 71.1034 43.2672 71.3594C43.1232 71.6154 43.0512 71.9674 43.0512 72.4154C43.0512 72.8554 43.1232 73.2074 43.2672 73.4714C43.4112 73.7274 43.6072 73.8554 43.8552 73.8554Z" fill="#161617"/>
<path d="M25.3949 128.345C24.8429 128.345 24.3509 128.241 23.9189 128.033C23.4949 127.825 23.1509 127.533 22.8869 127.157C22.6309 126.781 22.4749 126.345 22.4189 125.849L23.1989 125.681L23.3309 125.705C23.3949 126.073 23.5149 126.389 23.6909 126.653C23.8749 126.917 24.1029 127.121 24.3749 127.265C24.6549 127.401 24.9749 127.469 25.3349 127.469C25.7669 127.469 26.1309 127.385 26.4269 127.217C26.7309 127.049 26.9629 126.817 27.1229 126.521C27.2829 126.217 27.3629 125.869 27.3629 125.477C27.3629 125.077 27.2789 124.725 27.1109 124.421C26.9509 124.117 26.7189 123.881 26.4149 123.713C26.1109 123.545 25.7549 123.461 25.3469 123.461C24.9469 123.461 24.5909 123.549 24.2789 123.725C23.9669 123.893 23.7149 124.141 23.5229 124.469L22.5269 124.301L23.2229 119.801H27.7829V120.677H23.6669L24.0509 120.401L23.4629 123.809H23.2229C23.3589 123.569 23.5349 123.357 23.7509 123.173C23.9669 122.989 24.2189 122.845 24.5069 122.741C24.7949 122.637 25.1189 122.585 25.4789 122.585C25.9909 122.585 26.4589 122.705 26.8829 122.945C27.3149 123.177 27.6589 123.509 27.9149 123.941C28.1709 124.365 28.2989 124.869 28.2989 125.453C28.2989 126.029 28.1749 126.537 27.9269 126.977C27.6789 127.409 27.3349 127.745 26.8949 127.985C26.4629 128.225 25.9629 128.345 25.3949 128.345ZM32.3749 128.345C31.7269 128.345 31.1669 128.169 30.6949 127.817C30.2229 127.457 29.8549 126.953 29.5909 126.305C29.3349 125.657 29.2069 124.889 29.2069 124.001C29.2069 123.113 29.3349 122.345 29.5909 121.697C29.8549 121.041 30.2229 120.537 30.6949 120.185C31.1669 119.833 31.7269 119.657 32.3749 119.657C33.0229 119.657 33.5829 119.833 34.0549 120.185C34.5349 120.537 34.9029 121.041 35.1589 121.697C35.4149 122.345 35.5429 123.113 35.5429 124.001C35.5429 124.889 35.4149 125.657 35.1589 126.305C34.9029 126.953 34.5349 127.457 34.0549 127.817C33.5829 128.169 33.0229 128.345 32.3749 128.345ZM32.3749 127.469C32.8389 127.469 33.2349 127.329 33.5629 127.049C33.8989 126.769 34.1589 126.369 34.3429 125.849C34.5269 125.329 34.6189 124.713 34.6189 124.001C34.6189 123.289 34.5269 122.673 34.3429 122.153C34.1589 121.633 33.8989 121.233 33.5629 120.953C33.2349 120.673 32.8389 120.533 32.3749 120.533C31.9189 120.533 31.5229 120.673 31.1869 120.953C30.8509 121.233 30.5909 121.633 30.4069 122.153C30.2229 122.673 30.1309 123.289 30.1309 124.001C30.1309 124.713 30.2229 125.329 30.4069 125.849C30.5909 126.369 30.8509 126.769 31.1869 127.049C31.5229 127.329 31.9189 127.469 32.3749 127.469ZM38.2992 124.253C37.7792 124.253 37.3632 124.049 37.0512 123.641C36.7472 123.225 36.5952 122.665 36.5952 121.961C36.5952 121.257 36.7472 120.701 37.0512 120.293C37.3632 119.877 37.7792 119.669 38.2992 119.669C38.8272 119.669 39.2432 119.877 39.5472 120.293C39.8592 120.701 40.0152 121.257 40.0152 121.961C40.0152 122.665 39.8592 123.225 39.5472 123.641C39.2432 124.049 38.8272 124.253 38.2992 124.253ZM38.2992 123.401C38.5552 123.401 38.7552 123.273 38.8992 123.017C39.0432 122.753 39.1152 122.401 39.1152 121.961C39.1152 121.513 39.0432 121.161 38.8992 120.905C38.7552 120.649 38.5552 120.521 38.2992 120.521C38.0512 120.521 37.8552 120.649 37.7112 120.905C37.5672 121.161 37.4952 121.513 37.4952 121.961C37.4952 122.401 37.5672 122.753 37.7112 123.017C37.8552 123.273 38.0512 123.401 38.2992 123.401ZM37.9992 128.201L43.2192 119.801H44.1552L38.9352 128.201H37.9992ZM43.8552 128.333C43.3352 128.333 42.9192 128.129 42.6072 127.721C42.3032 127.305 42.1512 126.745 42.1512 126.041C42.1512 125.337 42.3032 124.781 42.6072 124.373C42.9192 123.957 43.3352 123.749 43.8552 123.749C44.3832 123.749 44.7992 123.957 45.1032 124.373C45.4152 124.781 45.5712 125.337 45.5712 126.041C45.5712 126.745 45.4152 127.305 45.1032 127.721C44.7992 128.129 44.3832 128.333 43.8552 128.333ZM43.8552 127.481C44.1112 127.481 44.3112 127.353 44.4552 127.097C44.5992 126.833 44.6712 126.481 44.6712 126.041C44.6712 125.593 44.5992 125.241 44.4552 124.985C44.3112 124.729 44.1112 124.601 43.8552 124.601C43.6072 124.601 43.4112 124.729 43.2672 124.985C43.1232 125.241 43.0512 125.593 43.0512 126.041C43.0512 126.481 43.1232 126.833 43.2672 127.097C43.4112 127.353 43.6072 127.481 43.8552 127.481Z" fill="#161617"/>
<path d="M23.4667 181.827V181.011L26.5867 177.915C26.9147 177.579 27.1707 177.295 27.3547 177.063C27.5387 176.831 27.6667 176.615 27.7387 176.415C27.8107 176.215 27.8467 176.003 27.8467 175.779C27.8467 175.507 27.7787 175.247 27.6427 174.999C27.5147 174.751 27.3227 174.551 27.0667 174.399C26.8107 174.239 26.4947 174.159 26.1187 174.159C25.7827 174.159 25.4707 174.235 25.1827 174.387C24.9027 174.539 24.6747 174.771 24.4987 175.083C24.3227 175.395 24.2347 175.787 24.2347 176.259L24.1027 176.283L23.3227 176.103C23.3227 175.511 23.4507 175.007 23.7067 174.591C23.9627 174.167 24.3027 173.843 24.7267 173.619C25.1507 173.395 25.6107 173.283 26.1067 173.283C26.6267 173.283 27.0867 173.395 27.4867 173.619C27.8947 173.843 28.2107 174.147 28.4347 174.531C28.6667 174.907 28.7827 175.335 28.7827 175.815C28.7827 176.135 28.7307 176.427 28.6267 176.691C28.5307 176.947 28.3707 177.215 28.1467 177.495C27.9227 177.775 27.6227 178.107 27.2467 178.491L24.5827 181.143L24.4147 180.951H29.0467V181.827H23.4667ZM32.8129 181.971C32.2609 181.971 31.7689 181.867 31.3369 181.659C30.9129 181.451 30.5689 181.159 30.3049 180.783C30.0489 180.407 29.8929 179.971 29.8369 179.475L30.6169 179.307L30.7489 179.331C30.8129 179.699 30.9329 180.015 31.1089 180.279C31.2929 180.543 31.5209 180.747 31.7929 180.891C32.0729 181.027 32.3929 181.095 32.7529 181.095C33.1849 181.095 33.5489 181.011 33.8449 180.843C34.1489 180.675 34.3809 180.443 34.5409 180.147C34.7009 179.843 34.7809 179.495 34.7809 179.103C34.7809 178.703 34.6969 178.351 34.5289 178.047C34.3689 177.743 34.1369 177.507 33.8329 177.339C33.5289 177.171 33.1729 177.087 32.7649 177.087C32.3649 177.087 32.0089 177.175 31.6969 177.351C31.3849 177.519 31.1329 177.767 30.9409 178.095L29.9449 177.927L30.6409 173.427H35.2009V174.303H31.0849L31.4689 174.027L30.8809 177.435H30.6409C30.7769 177.195 30.9529 176.983 31.1689 176.799C31.3849 176.615 31.6369 176.471 31.9249 176.367C32.2129 176.263 32.5369 176.211 32.8969 176.211C33.4089 176.211 33.8769 176.331 34.3009 176.571C34.7329 176.803 35.0769 177.135 35.3329 177.567C35.5889 177.991 35.7169 178.495 35.7169 179.079C35.7169 179.655 35.5929 180.163 35.3449 180.603C35.0969 181.035 34.7529 181.371 34.3129 181.611C33.8809 181.851 33.3809 181.971 32.8129 181.971ZM38.2992 177.879C37.7792 177.879 37.3632 177.675 37.0512 177.267C36.7472 176.851 36.5952 176.291 36.5952 175.587C36.5952 174.883 36.7472 174.327 37.0512 173.919C37.3632 173.503 37.7792 173.295 38.2992 173.295C38.8272 173.295 39.2432 173.503 39.5472 173.919C39.8592 174.327 40.0152 174.883 40.0152 175.587C40.0152 176.291 39.8592 176.851 39.5472 177.267C39.2432 177.675 38.8272 177.879 38.2992 177.879ZM38.2992 177.027C38.5552 177.027 38.7552 176.899 38.8992 176.643C39.0432 176.379 39.1152 176.027 39.1152 175.587C39.1152 175.139 39.0432 174.787 38.8992 174.531C38.7552 174.275 38.5552 174.147 38.2992 174.147C38.0512 174.147 37.8552 174.275 37.7112 174.531C37.5672 174.787 37.4952 175.139 37.4952 175.587C37.4952 176.027 37.5672 176.379 37.7112 176.643C37.8552 176.899 38.0512 177.027 38.2992 177.027ZM37.9992 181.827L43.2192 173.427H44.1552L38.9352 181.827H37.9992ZM43.8552 181.959C43.3352 181.959 42.9192 181.755 42.6072 181.347C42.3032 180.931 42.1512 180.371 42.1512 179.667C42.1512 178.963 42.3032 178.407 42.6072 177.999C42.9192 177.583 43.3352 177.375 43.8552 177.375C44.3832 177.375 44.7992 177.583 45.1032 177.999C45.4152 178.407 45.5712 178.963 45.5712 179.667C45.5712 180.371 45.4152 180.931 45.1032 181.347C44.7992 181.755 44.3832 181.959 43.8552 181.959ZM43.8552 181.107C44.1112 181.107 44.3112 180.979 44.4552 180.723C44.5992 180.459 44.6712 180.107 44.6712 179.667C44.6712 179.219 44.5992 178.867 44.4552 178.611C44.3112 178.355 44.1112 178.227 43.8552 178.227C43.6072 178.227 43.4112 178.355 43.2672 178.611C43.1232 178.867 43.0512 179.219 43.0512 179.667C43.0512 180.107 43.1232 180.459 43.2672 180.723C43.4112 180.979 43.6072 181.107 43.8552 181.107Z" fill="#161617"/>
<path d="M42.1366 235.596C41.4886 235.596 40.9286 235.42 40.4566 235.068C39.9846 234.708 39.6166 234.204 39.3526 233.556C39.0966 232.908 38.9686 232.14 38.9686 231.252C38.9686 230.364 39.0966 229.596 39.3526 228.948C39.6166 228.292 39.9846 227.788 40.4566 227.436C40.9286 227.084 41.4886 226.908 42.1366 226.908C42.7846 226.908 43.3446 227.084 43.8166 227.436C44.2966 227.788 44.6646 228.292 44.9206 228.948C45.1766 229.596 45.3046 230.364 45.3046 231.252C45.3046 232.14 45.1766 232.908 44.9206 233.556C44.6646 234.204 44.2966 234.708 43.8166 235.068C43.3446 235.42 42.7846 235.596 42.1366 235.596ZM42.1366 234.72C42.6006 234.72 42.9966 234.58 43.3246 234.3C43.6606 234.02 43.9206 233.62 44.1046 233.1C44.2886 232.58 44.3806 231.964 44.3806 231.252C44.3806 230.54 44.2886 229.924 44.1046 229.404C43.9206 228.884 43.6606 228.484 43.3246 228.204C42.9966 227.924 42.6006 227.784 42.1366 227.784C41.6806 227.784 41.2846 227.924 40.9486 228.204C40.6126 228.484 40.3526 228.884 40.1686 229.404C39.9846 229.924 39.8926 230.54 39.8926 231.252C39.8926 231.964 39.9846 232.58 40.1686 233.1C40.3526 233.62 40.6126 234.02 40.9486 234.3C41.2846 234.58 41.6806 234.72 42.1366 234.72Z" fill="#161617"/>
<line x1="57.3854" y1="15.4659" x2="660.355" y2="15.4659" stroke="#F1F1F4" stroke-width="0.942746" stroke-linecap="square" stroke-dasharray="1.89 2.83"/>
<line x1="57.3854" y1="69.3133" x2="660.355" y2="69.3133" stroke="#F1F1F4" stroke-width="0.942746" stroke-linecap="square" stroke-dasharray="1.89 2.83"/>
<line x1="57.3854" y1="123.161" x2="660.355" y2="123.161" stroke="#F1F1F4" stroke-width="0.942746" stroke-linecap="square" stroke-dasharray="1.89 2.83"/>
<line x1="57.3854" y1="177.008" x2="660.355" y2="177.008" stroke="#F1F1F4" stroke-width="0.942746" stroke-linecap="square" stroke-dasharray="1.89 2.83"/>
<line x1="57.3854" y1="230.856" x2="660.355" y2="230.856" stroke="#F1F1F4" stroke-width="0.942746" stroke-linecap="square" stroke-dasharray="1.89 2.83"/>
<path d="M89.3151 256.588L86.2791 248.44L86.1951 248.188H87.2151L90.4071 256.492V256.588H89.3151ZM83.0031 256.588V256.492L86.1951 248.188H87.2151L87.1311 248.44L84.0951 256.588H83.0031ZM84.2391 254.428L84.5991 253.432H88.9311L89.2911 254.428H84.2391ZM91.3311 256.588V247.948L92.3151 247.828L92.3511 247.924V256.588H91.3311ZM95.959 258.988C95.175 258.988 94.563 258.828 94.123 258.508C93.683 258.188 93.463 257.756 93.463 257.212C93.463 256.868 93.547 256.564 93.715 256.3C93.891 256.028 94.147 255.82 94.483 255.676L94.999 256.192C94.823 256.272 94.687 256.388 94.591 256.54C94.495 256.692 94.447 256.856 94.447 257.032C94.447 257.336 94.567 257.584 94.807 257.776C95.055 257.976 95.403 258.076 95.851 258.076H96.691C97.155 258.076 97.519 257.996 97.783 257.836C98.047 257.684 98.179 257.456 98.179 257.152C98.179 256.936 98.091 256.764 97.915 256.636C97.747 256.508 97.495 256.444 97.159 256.444H95.539C95.219 256.444 94.927 256.388 94.663 256.276C94.407 256.156 94.203 255.996 94.051 255.796C93.899 255.588 93.823 255.348 93.823 255.076C93.823 254.812 93.903 254.568 94.063 254.344C94.223 254.12 94.471 253.944 94.807 253.816L95.371 254.32C95.155 254.36 94.999 254.44 94.903 254.56C94.815 254.672 94.771 254.804 94.771 254.956C94.771 255.14 94.847 255.284 94.999 255.388C95.151 255.492 95.359 255.544 95.623 255.544H97.195C97.795 255.544 98.271 255.692 98.623 255.988C98.975 256.284 99.151 256.672 99.151 257.152C99.151 257.72 98.927 258.168 98.479 258.496C98.031 258.824 97.431 258.988 96.679 258.988H95.959ZM96.355 254.704C95.883 254.704 95.463 254.612 95.095 254.428C94.735 254.244 94.455 253.992 94.255 253.672C94.055 253.344 93.955 252.972 93.955 252.556C93.955 252.132 94.055 251.76 94.255 251.44C94.455 251.12 94.735 250.872 95.095 250.696C95.463 250.512 95.883 250.42 96.355 250.42C96.835 250.42 97.251 250.512 97.603 250.696C97.963 250.872 98.243 251.12 98.443 251.44C98.651 251.76 98.755 252.132 98.755 252.556C98.755 252.972 98.651 253.344 98.443 253.672C98.243 253.992 97.963 254.244 97.603 254.428C97.251 254.612 96.835 254.704 96.355 254.704ZM96.355 253.816C96.779 253.816 97.123 253.7 97.387 253.468C97.651 253.236 97.783 252.932 97.783 252.556C97.783 252.188 97.651 251.888 97.387 251.656C97.123 251.424 96.779 251.308 96.355 251.308C95.923 251.308 95.575 251.424 95.311 251.656C95.055 251.888 94.927 252.188 94.927 252.556C94.927 252.932 95.055 253.236 95.311 253.468C95.575 253.7 95.923 253.816 96.355 253.816ZM97.999 251.332L97.327 250.912C97.327 250.6 97.391 250.32 97.519 250.072C97.655 249.824 97.831 249.632 98.047 249.496C98.263 249.352 98.507 249.28 98.779 249.28C98.843 249.28 98.911 249.284 98.983 249.292C99.063 249.292 99.123 249.3 99.163 249.316V250.24L99.103 250.372C99.023 250.348 98.927 250.336 98.815 250.336C98.543 250.336 98.339 250.428 98.203 250.612C98.067 250.796 97.999 251.036 97.999 251.332ZM102.723 256.744C102.139 256.744 101.623 256.612 101.175 256.348C100.727 256.076 100.375 255.704 100.119 255.232C99.8713 254.76 99.7473 254.208 99.7473 253.576C99.7473 252.952 99.8713 252.404 100.119 251.932C100.367 251.452 100.711 251.08 101.151 250.816C101.599 250.552 102.111 250.42 102.687 250.42C103.255 250.42 103.751 250.556 104.175 250.828C104.607 251.092 104.943 251.468 105.183 251.956C105.423 252.444 105.543 253.012 105.543 253.66V253.804L105.363 253.972H100.311V253.024H104.991L104.511 253.216C104.487 252.832 104.391 252.504 104.223 252.232C104.055 251.96 103.839 251.752 103.575 251.608C103.311 251.456 103.015 251.38 102.687 251.38C102.335 251.38 102.011 251.468 101.715 251.644C101.419 251.812 101.187 252.052 101.019 252.364C100.851 252.676 100.767 253.036 100.767 253.444V253.684C100.767 254.084 100.851 254.444 101.019 254.764C101.187 255.076 101.419 255.324 101.715 255.508C102.011 255.692 102.347 255.784 102.723 255.784C103.091 255.784 103.411 255.696 103.683 255.52C103.955 255.336 104.167 255.088 104.319 254.776H104.463L105.303 255.148C105.079 255.644 104.739 256.036 104.283 256.324C103.835 256.604 103.315 256.744 102.723 256.744ZM109.966 256.744C109.55 256.744 109.166 256.66 108.814 256.492C108.47 256.324 108.174 256.092 107.926 255.796C107.686 255.5 107.51 255.164 107.398 254.788V252.376C107.51 251.992 107.686 251.656 107.926 251.368C108.174 251.072 108.47 250.84 108.814 250.672C109.166 250.504 109.55 250.42 109.966 250.42C110.51 250.42 110.994 250.556 111.418 250.828C111.842 251.1 112.182 251.476 112.438 251.956C112.694 252.428 112.822 252.968 112.822 253.576C112.822 254.192 112.694 254.74 112.438 255.22C112.182 255.692 111.842 256.064 111.418 256.336C110.994 256.608 110.51 256.744 109.966 256.744ZM106.882 256.588V247.948L107.866 247.828L107.902 247.924V252.724L107.686 253.576L107.866 254.44V256.588H106.882ZM109.894 255.772C110.262 255.772 110.59 255.68 110.878 255.496C111.166 255.304 111.39 255.044 111.55 254.716C111.718 254.388 111.802 254.008 111.802 253.576C111.802 253.144 111.718 252.764 111.55 252.436C111.39 252.108 111.166 251.852 110.878 251.668C110.59 251.484 110.262 251.392 109.894 251.392C109.51 251.392 109.166 251.484 108.862 251.668C108.566 251.852 108.33 252.108 108.154 252.436C107.986 252.764 107.902 253.144 107.902 253.576C107.902 254.008 107.986 254.388 108.154 254.716C108.33 255.044 108.566 255.304 108.862 255.496C109.166 255.68 109.51 255.772 109.894 255.772ZM114.111 256.588V250.576H115.095V252.268L114.807 252.088C114.951 251.624 115.219 251.256 115.611 250.984C116.003 250.712 116.443 250.576 116.931 250.576H117.543V251.536H116.775C116.447 251.536 116.159 251.616 115.911 251.776C115.671 251.928 115.479 252.144 115.335 252.424C115.199 252.696 115.131 253.016 115.131 253.384V256.588H114.111ZM120.132 256.744C119.716 256.744 119.344 256.664 119.016 256.504C118.696 256.344 118.444 256.124 118.26 255.844C118.076 255.556 117.984 255.228 117.984 254.86C117.984 254.332 118.172 253.904 118.548 253.576C118.932 253.248 119.46 253.056 120.132 253L122.448 252.832V253.744L120.336 253.912C119.896 253.944 119.568 254.04 119.352 254.2C119.144 254.352 119.04 254.568 119.04 254.848C119.04 255.112 119.152 255.332 119.376 255.508C119.6 255.684 119.888 255.772 120.24 255.772C120.6 255.772 120.928 255.688 121.224 255.52C121.52 255.352 121.752 255.128 121.92 254.848C122.096 254.568 122.184 254.256 122.184 253.912V252.94C122.184 252.484 122.04 252.108 121.752 251.812C121.472 251.516 121.096 251.368 120.624 251.368C120.256 251.368 119.94 251.46 119.676 251.644C119.412 251.82 119.232 252.068 119.136 252.388H119.004L118.116 252.1C118.292 251.564 118.6 251.148 119.04 250.852C119.48 250.556 120.012 250.408 120.636 250.408C121.452 250.408 122.08 250.652 122.52 251.14C122.968 251.628 123.192 252.316 123.192 253.204V256.588H122.232V254.836L122.592 255.028C122.496 255.356 122.324 255.652 122.076 255.916C121.836 256.172 121.548 256.376 121.212 256.528C120.884 256.672 120.524 256.744 120.132 256.744ZM124.775 256.588V250.576H125.795V256.588H124.775ZM125.291 249.46C125.091 249.46 124.923 249.392 124.787 249.256C124.651 249.12 124.583 248.952 124.583 248.752C124.583 248.552 124.651 248.384 124.787 248.248C124.923 248.104 125.091 248.032 125.291 248.032C125.491 248.032 125.659 248.104 125.795 248.248C125.939 248.384 126.011 248.552 126.011 248.752C126.011 248.952 125.939 249.12 125.795 249.256C125.659 249.392 125.491 249.46 125.291 249.46ZM130.123 256.744C129.523 256.744 128.995 256.612 128.539 256.348C128.083 256.076 127.727 255.704 127.471 255.232C127.215 254.76 127.087 254.208 127.087 253.576C127.087 252.952 127.215 252.404 127.471 251.932C127.727 251.452 128.083 251.08 128.539 250.816C128.995 250.552 129.523 250.42 130.123 250.42C130.579 250.42 130.987 250.504 131.347 250.672C131.715 250.832 132.027 251.064 132.283 251.368C132.547 251.664 132.743 252.028 132.871 252.46L131.983 252.712H131.851C131.715 252.304 131.491 251.984 131.179 251.752C130.875 251.512 130.523 251.392 130.123 251.392C129.715 251.392 129.359 251.484 129.055 251.668C128.759 251.852 128.527 252.108 128.359 252.436C128.191 252.764 128.107 253.144 128.107 253.576C128.107 254.008 128.191 254.392 128.359 254.728C128.527 255.056 128.759 255.312 129.055 255.496C129.359 255.68 129.715 255.772 130.123 255.772C130.403 255.772 130.659 255.72 130.891 255.616C131.123 255.512 131.323 255.36 131.491 255.16C131.667 254.96 131.803 254.724 131.899 254.452H132.031L132.931 254.704C132.787 255.136 132.579 255.508 132.307 255.82C132.035 256.124 131.715 256.356 131.347 256.516C130.987 256.668 130.579 256.744 130.123 256.744ZM81.2194 274.744C80.6354 274.744 80.1194 274.612 79.6714 274.348C79.2234 274.076 78.8714 273.704 78.6154 273.232C78.3674 272.76 78.2434 272.208 78.2434 271.576C78.2434 270.952 78.3674 270.404 78.6154 269.932C78.8634 269.452 79.2074 269.08 79.6474 268.816C80.0954 268.552 80.6074 268.42 81.1834 268.42C81.7514 268.42 82.2474 268.556 82.6714 268.828C83.1034 269.092 83.4394 269.468 83.6794 269.956C83.9194 270.444 84.0394 271.012 84.0394 271.66V271.804L83.8594 271.972H78.8074V271.024H83.4874L83.0074 271.216C82.9834 270.832 82.8874 270.504 82.7194 270.232C82.5514 269.96 82.3354 269.752 82.0714 269.608C81.8074 269.456 81.5114 269.38 81.1834 269.38C80.8314 269.38 80.5074 269.468 80.2114 269.644C79.9154 269.812 79.6834 270.052 79.5154 270.364C79.3474 270.676 79.2634 271.036 79.2634 271.444V271.684C79.2634 272.084 79.3474 272.444 79.5154 272.764C79.6834 273.076 79.9154 273.324 80.2114 273.508C80.5074 273.692 80.8434 273.784 81.2194 273.784C81.5874 273.784 81.9074 273.696 82.1794 273.52C82.4514 273.336 82.6634 273.088 82.8154 272.776H82.9594L83.7994 273.148C83.5754 273.644 83.2354 274.036 82.7794 274.324C82.3314 274.604 81.8114 274.744 81.2194 274.744ZM88.786 274.588L84.574 268.672V268.576H85.726L89.938 274.492V274.588H88.786ZM84.55 274.588V274.492L86.962 271.12L87.574 271.912L85.702 274.588H84.55ZM87.646 271.948L87.022 271.132L88.798 268.576H89.914V268.672L87.646 271.948ZM93.8863 274.744C93.4703 274.744 93.0863 274.66 92.7343 274.492C92.3903 274.316 92.0943 274.08 91.8463 273.784C91.6063 273.488 91.4303 273.152 91.3183 272.776V270.376C91.4303 269.992 91.6063 269.656 91.8463 269.368C92.0943 269.072 92.3903 268.84 92.7343 268.672C93.0863 268.504 93.4703 268.42 93.8863 268.42C94.4303 268.42 94.9143 268.556 95.3383 268.828C95.7623 269.1 96.1023 269.476 96.3583 269.956C96.6143 270.428 96.7423 270.968 96.7423 271.576C96.7423 272.192 96.6143 272.74 96.3583 273.22C96.1023 273.692 95.7623 274.064 95.3383 274.336C94.9143 274.608 94.4303 274.744 93.8863 274.744ZM90.8023 276.988V268.576H91.7863V270.724L91.6063 271.576L91.8223 272.44V276.988H90.8023ZM93.8143 273.772C94.1823 273.772 94.5103 273.68 94.7983 273.496C95.0863 273.304 95.3103 273.044 95.4703 272.716C95.6383 272.388 95.7223 272.008 95.7223 271.576C95.7223 271.144 95.6383 270.764 95.4703 270.436C95.3103 270.108 95.0863 269.852 94.7983 269.668C94.5103 269.484 94.1823 269.392 93.8143 269.392C93.4303 269.392 93.0863 269.484 92.7823 269.668C92.4863 269.852 92.2503 270.108 92.0743 270.436C91.9063 270.764 91.8223 271.144 91.8223 271.576C91.8223 272.008 91.9063 272.388 92.0743 272.716C92.2503 273.044 92.4863 273.304 92.7823 273.496C93.0863 273.68 93.4303 273.772 93.8143 273.772ZM98.0211 274.588V268.576H99.0051V270.268L98.7171 270.088C98.8611 269.624 99.1291 269.256 99.5211 268.984C99.9131 268.712 100.353 268.576 100.841 268.576H101.453V269.536H100.685C100.357 269.536 100.069 269.616 99.8211 269.776C99.5811 269.928 99.3891 270.144 99.2451 270.424C99.1091 270.696 99.0411 271.016 99.0411 271.384V274.588H98.0211ZM104.774 274.744C104.19 274.744 103.674 274.612 103.226 274.348C102.778 274.076 102.426 273.704 102.17 273.232C101.922 272.76 101.798 272.208 101.798 271.576C101.798 270.952 101.922 270.404 102.17 269.932C102.418 269.452 102.762 269.08 103.202 268.816C103.65 268.552 104.162 268.42 104.738 268.42C105.306 268.42 105.802 268.556 106.226 268.828C106.658 269.092 106.994 269.468 107.234 269.956C107.474 270.444 107.594 271.012 107.594 271.66V271.804L107.414 271.972H102.362V271.024H107.042L106.562 271.216C106.538 270.832 106.442 270.504 106.274 270.232C106.106 269.96 105.89 269.752 105.626 269.608C105.362 269.456 105.066 269.38 104.738 269.38C104.386 269.38 104.062 269.468 103.766 269.644C103.47 269.812 103.238 270.052 103.07 270.364C102.902 270.676 102.818 271.036 102.818 271.444V271.684C102.818 272.084 102.902 272.444 103.07 272.764C103.238 273.076 103.47 273.324 103.766 273.508C104.062 273.692 104.398 273.784 104.774 273.784C105.142 273.784 105.462 273.696 105.734 273.52C106.006 273.336 106.218 273.088 106.37 272.776H106.514L107.354 273.148C107.13 273.644 106.79 274.036 106.334 274.324C105.886 274.604 105.366 274.744 104.774 274.744ZM110.865 274.744C110.233 274.744 109.701 274.592 109.269 274.288C108.837 273.984 108.549 273.56 108.405 273.016L109.341 272.788L109.473 272.812C109.561 273.116 109.737 273.356 110.001 273.532C110.273 273.7 110.589 273.784 110.949 273.784C111.309 273.784 111.613 273.704 111.861 273.544C112.117 273.376 112.245 273.16 112.245 272.896C112.245 272.68 112.169 272.508 112.017 272.38C111.873 272.244 111.653 272.144 111.357 272.08L110.241 271.828C109.681 271.7 109.265 271.492 108.993 271.204C108.729 270.916 108.597 270.572 108.597 270.172C108.597 269.828 108.689 269.524 108.873 269.26C109.065 268.996 109.329 268.792 109.665 268.648C110.001 268.496 110.381 268.42 110.805 268.42C111.421 268.42 111.941 268.572 112.365 268.876C112.789 269.18 113.069 269.612 113.205 270.172L112.269 270.364L112.137 270.34C112.065 270.036 111.897 269.8 111.633 269.632C111.377 269.464 111.093 269.38 110.781 269.38C110.453 269.38 110.177 269.452 109.953 269.596C109.737 269.732 109.629 269.912 109.629 270.136C109.629 270.32 109.697 270.476 109.833 270.604C109.977 270.724 110.201 270.816 110.505 270.88L111.633 271.144C112.193 271.272 112.609 271.476 112.881 271.756C113.153 272.036 113.289 272.396 113.289 272.836C113.289 273.228 113.181 273.568 112.965 273.856C112.757 274.136 112.469 274.356 112.101 274.516C111.741 274.668 111.329 274.744 110.865 274.744ZM116.255 274.744C115.623 274.744 115.091 274.592 114.659 274.288C114.227 273.984 113.939 273.56 113.795 273.016L114.731 272.788L114.863 272.812C114.951 273.116 115.127 273.356 115.391 273.532C115.663 273.7 115.979 273.784 116.339 273.784C116.699 273.784 117.003 273.704 117.251 273.544C117.507 273.376 117.635 273.16 117.635 272.896C117.635 272.68 117.559 272.508 117.407 272.38C117.263 272.244 117.043 272.144 116.747 272.08L115.631 271.828C115.071 271.7 114.655 271.492 114.383 271.204C114.119 270.916 113.987 270.572 113.987 270.172C113.987 269.828 114.079 269.524 114.263 269.26C114.455 268.996 114.719 268.792 115.055 268.648C115.391 268.496 115.771 268.42 116.195 268.42C116.811 268.42 117.331 268.572 117.755 268.876C118.179 269.18 118.459 269.612 118.595 270.172L117.659 270.364L117.527 270.34C117.455 270.036 117.287 269.8 117.023 269.632C116.767 269.464 116.483 269.38 116.171 269.38C115.843 269.38 115.567 269.452 115.343 269.596C115.127 269.732 115.019 269.912 115.019 270.136C115.019 270.32 115.087 270.476 115.223 270.604C115.367 270.724 115.591 270.816 115.895 270.88L117.023 271.144C117.583 271.272 117.999 271.476 118.271 271.756C118.543 272.036 118.679 272.396 118.679 272.836C118.679 273.228 118.571 273.568 118.355 273.856C118.147 274.136 117.859 274.356 117.491 274.516C117.131 274.668 116.719 274.744 116.255 274.744ZM119.888 274.588V268.576H120.908V274.588H119.888ZM120.404 267.46C120.204 267.46 120.036 267.392 119.9 267.256C119.764 267.12 119.696 266.952 119.696 266.752C119.696 266.552 119.764 266.384 119.9 266.248C120.036 266.104 120.204 266.032 120.404 266.032C120.604 266.032 120.772 266.104 120.908 266.248C121.052 266.384 121.124 266.552 121.124 266.752C121.124 266.952 121.052 267.12 120.908 267.256C120.772 267.392 120.604 267.46 120.404 267.46ZM125.188 274.744C124.604 274.744 124.088 274.612 123.64 274.348C123.192 274.076 122.84 273.704 122.584 273.232C122.328 272.752 122.2 272.2 122.2 271.576C122.2 270.952 122.328 270.404 122.584 269.932C122.84 269.452 123.192 269.08 123.64 268.816C124.088 268.552 124.604 268.42 125.188 268.42C125.78 268.42 126.3 268.552 126.748 268.816C127.196 269.08 127.548 269.452 127.804 269.932C128.06 270.404 128.188 270.952 128.188 271.576C128.188 272.2 128.06 272.752 127.804 273.232C127.548 273.704 127.196 274.076 126.748 274.348C126.3 274.612 125.78 274.744 125.188 274.744ZM125.188 273.772C125.58 273.772 125.92 273.684 126.208 273.508C126.504 273.324 126.736 273.068 126.904 272.74C127.072 272.404 127.156 272.016 127.156 271.576C127.156 271.128 127.072 270.744 126.904 270.424C126.736 270.096 126.504 269.844 126.208 269.668C125.92 269.484 125.58 269.392 125.188 269.392C124.804 269.392 124.464 269.484 124.168 269.668C123.872 269.844 123.64 270.096 123.472 270.424C123.304 270.744 123.22 271.128 123.22 271.576C123.22 272.016 123.304 272.404 123.472 272.74C123.64 273.068 123.872 273.324 124.168 273.508C124.464 273.684 124.804 273.772 125.188 273.772ZM129.474 274.588V268.576H130.458V270.268L130.17 270.088C130.282 269.744 130.458 269.448 130.698 269.2C130.938 268.952 131.218 268.76 131.538 268.624C131.866 268.488 132.214 268.42 132.582 268.42C133.014 268.42 133.398 268.512 133.734 268.696C134.078 268.88 134.346 269.152 134.538 269.512C134.73 269.872 134.826 270.324 134.826 270.868V274.588H133.806V271.12C133.806 270.688 133.742 270.348 133.614 270.1C133.486 269.844 133.31 269.664 133.086 269.56C132.87 269.456 132.622 269.404 132.342 269.404C132.038 269.404 131.742 269.48 131.454 269.632C131.174 269.776 130.942 269.996 130.758 270.292C130.582 270.588 130.494 270.956 130.494 271.396V274.588H129.474ZM138.392 274.744C137.76 274.744 137.228 274.592 136.796 274.288C136.364 273.984 136.076 273.56 135.932 273.016L136.868 272.788L137 272.812C137.088 273.116 137.264 273.356 137.528 273.532C137.8 273.7 138.116 273.784 138.476 273.784C138.836 273.784 139.14 273.704 139.388 273.544C139.644 273.376 139.772 273.16 139.772 272.896C139.772 272.68 139.696 272.508 139.544 272.38C139.4 272.244 139.18 272.144 138.884 272.08L137.768 271.828C137.208 271.7 136.792 271.492 136.52 271.204C136.256 270.916 136.124 270.572 136.124 270.172C136.124 269.828 136.216 269.524 136.4 269.26C136.592 268.996 136.856 268.792 137.192 268.648C137.528 268.496 137.908 268.42 138.332 268.42C138.948 268.42 139.468 268.572 139.892 268.876C140.316 269.18 140.596 269.612 140.732 270.172L139.796 270.364L139.664 270.34C139.592 270.036 139.424 269.8 139.16 269.632C138.904 269.464 138.62 269.38 138.308 269.38C137.98 269.38 137.704 269.452 137.48 269.596C137.264 269.732 137.156 269.912 137.156 270.136C137.156 270.32 137.224 270.476 137.36 270.604C137.504 270.724 137.728 270.816 138.032 270.88L139.16 271.144C139.72 271.272 140.136 271.476 140.408 271.756C140.68 272.036 140.816 272.396 140.816 272.836C140.816 273.228 140.708 273.568 140.492 273.856C140.284 274.136 139.996 274.356 139.628 274.516C139.268 274.668 138.856 274.744 138.392 274.744Z" fill="#161617"/>
<path d="M182.487 256.588V248.188H183.507V256.588H182.487ZM183.015 256.588V255.604H187.851V256.588H183.015ZM183.015 252.832V251.836H187.587V252.832H183.015ZM183.015 249.172V248.188H187.851V249.172H183.015ZM191.754 256.744C191.218 256.744 190.734 256.608 190.302 256.336C189.87 256.064 189.526 255.692 189.27 255.22C189.022 254.74 188.898 254.192 188.898 253.576C188.898 252.968 189.022 252.428 189.27 251.956C189.526 251.476 189.87 251.1 190.302 250.828C190.734 250.556 191.218 250.42 191.754 250.42C192.17 250.42 192.55 250.504 192.894 250.672C193.246 250.84 193.542 251.072 193.782 251.368C194.03 251.656 194.21 251.992 194.322 252.376V254.776C194.21 255.152 194.03 255.488 193.782 255.784C193.542 256.08 193.246 256.316 192.894 256.492C192.55 256.66 192.17 256.744 191.754 256.744ZM194.838 258.988H193.806V254.44L194.034 253.576L193.854 252.724V250.576H194.838V258.988ZM191.826 255.772C192.218 255.772 192.562 255.68 192.858 255.496C193.154 255.304 193.386 255.044 193.554 254.716C193.73 254.388 193.818 254.008 193.818 253.576C193.818 253.144 193.73 252.764 193.554 252.436C193.386 252.108 193.154 251.852 192.858 251.668C192.562 251.484 192.218 251.392 191.826 251.392C191.466 251.392 191.138 251.484 190.842 251.668C190.554 251.852 190.326 252.108 190.158 252.436C189.998 252.764 189.918 253.144 189.918 253.576C189.918 254.008 189.998 254.388 190.158 254.716C190.326 255.044 190.554 255.304 190.842 255.496C191.138 255.68 191.466 255.772 191.826 255.772ZM201.756 250.576V256.588H200.772V254.896L201.06 255.076C200.948 255.412 200.772 255.708 200.532 255.964C200.3 256.212 200.02 256.404 199.692 256.54C199.372 256.676 199.024 256.744 198.648 256.744C198.216 256.744 197.832 256.652 197.496 256.468C197.16 256.284 196.892 256.012 196.692 255.652C196.5 255.284 196.404 254.832 196.404 254.296V250.576H197.424V254.032C197.424 254.464 197.488 254.808 197.616 255.064C197.752 255.312 197.928 255.492 198.144 255.604C198.368 255.708 198.62 255.76 198.9 255.76C199.212 255.76 199.504 255.684 199.776 255.532C200.056 255.38 200.284 255.156 200.46 254.86C200.644 254.564 200.736 254.2 200.736 253.768V250.576H201.756ZM205.286 256.744C204.87 256.744 204.498 256.664 204.17 256.504C203.85 256.344 203.598 256.124 203.414 255.844C203.23 255.556 203.138 255.228 203.138 254.86C203.138 254.332 203.326 253.904 203.702 253.576C204.086 253.248 204.614 253.056 205.286 253L207.602 252.832V253.744L205.49 253.912C205.05 253.944 204.722 254.04 204.506 254.2C204.298 254.352 204.194 254.568 204.194 254.848C204.194 255.112 204.306 255.332 204.53 255.508C204.754 255.684 205.042 255.772 205.394 255.772C205.754 255.772 206.082 255.688 206.378 255.52C206.674 255.352 206.906 255.128 207.074 254.848C207.25 254.568 207.338 254.256 207.338 253.912V252.94C207.338 252.484 207.194 252.108 206.906 251.812C206.626 251.516 206.25 251.368 205.778 251.368C205.41 251.368 205.094 251.46 204.83 251.644C204.566 251.82 204.386 252.068 204.29 252.388H204.158L203.27 252.1C203.446 251.564 203.754 251.148 204.194 250.852C204.634 250.556 205.166 250.408 205.79 250.408C206.606 250.408 207.234 250.652 207.674 251.14C208.122 251.628 208.346 252.316 208.346 253.204V256.588H207.386V254.836L207.746 255.028C207.65 255.356 207.478 255.652 207.23 255.916C206.99 256.172 206.702 256.376 206.366 256.528C206.038 256.672 205.678 256.744 205.286 256.744ZM211.775 256.588C211.255 256.588 210.831 256.424 210.503 256.096C210.175 255.76 210.011 255.308 210.011 254.74V248.956H211.031V254.656C211.031 255 211.107 255.248 211.259 255.4C211.411 255.544 211.655 255.616 211.991 255.616H212.711L212.771 255.748V256.588H211.775ZM208.979 251.536V250.576H212.771V251.536H208.979ZM214.113 256.588V250.576H215.133V256.588H214.113ZM214.629 249.46C214.429 249.46 214.261 249.392 214.125 249.256C213.989 249.12 213.921 248.952 213.921 248.752C213.921 248.552 213.989 248.384 214.125 248.248C214.261 248.104 214.429 248.032 214.629 248.032C214.829 248.032 214.997 248.104 215.133 248.248C215.277 248.384 215.349 248.552 215.349 248.752C215.349 248.952 215.277 249.12 215.133 249.256C214.997 249.392 214.829 249.46 214.629 249.46ZM219.413 256.744C218.829 256.744 218.313 256.612 217.865 256.348C217.417 256.076 217.065 255.704 216.809 255.232C216.553 254.752 216.425 254.2 216.425 253.576C216.425 252.952 216.553 252.404 216.809 251.932C217.065 251.452 217.417 251.08 217.865 250.816C218.313 250.552 218.829 250.42 219.413 250.42C220.005 250.42 220.525 250.552 220.973 250.816C221.421 251.08 221.773 251.452 222.029 251.932C222.285 252.404 222.413 252.952 222.413 253.576C222.413 254.2 222.285 254.752 222.029 255.232C221.773 255.704 221.421 256.076 220.973 256.348C220.525 256.612 220.005 256.744 219.413 256.744ZM219.413 255.772C219.805 255.772 220.145 255.684 220.433 255.508C220.729 255.324 220.961 255.068 221.129 254.74C221.297 254.404 221.381 254.016 221.381 253.576C221.381 253.128 221.297 252.744 221.129 252.424C220.961 252.096 220.729 251.844 220.433 251.668C220.145 251.484 219.805 251.392 219.413 251.392C219.029 251.392 218.689 251.484 218.393 251.668C218.097 251.844 217.865 252.096 217.697 252.424C217.529 252.744 217.445 253.128 217.445 253.576C217.445 254.016 217.529 254.404 217.697 254.74C217.865 255.068 218.097 255.324 218.393 255.508C218.689 255.684 219.029 255.772 219.413 255.772ZM223.699 256.588V250.576H224.683V252.268L224.395 252.088C224.507 251.744 224.683 251.448 224.923 251.2C225.163 250.952 225.443 250.76 225.763 250.624C226.091 250.488 226.439 250.42 226.807 250.42C227.239 250.42 227.623 250.512 227.959 250.696C228.303 250.88 228.571 251.152 228.763 251.512C228.955 251.872 229.051 252.324 229.051 252.868V256.588H228.031V253.12C228.031 252.688 227.967 252.348 227.839 252.1C227.711 251.844 227.535 251.664 227.311 251.56C227.095 251.456 226.847 251.404 226.567 251.404C226.263 251.404 225.967 251.48 225.679 251.632C225.399 251.776 225.167 251.996 224.983 252.292C224.807 252.588 224.719 252.956 224.719 253.396V256.588H223.699ZM232.617 256.744C231.985 256.744 231.453 256.592 231.021 256.288C230.589 255.984 230.301 255.56 230.157 255.016L231.093 254.788L231.225 254.812C231.313 255.116 231.489 255.356 231.753 255.532C232.025 255.7 232.341 255.784 232.701 255.784C233.061 255.784 233.365 255.704 233.613 255.544C233.869 255.376 233.997 255.16 233.997 254.896C233.997 254.68 233.921 254.508 233.769 254.38C233.625 254.244 233.405 254.144 233.109 254.08L231.993 253.828C231.433 253.7 231.017 253.492 230.745 253.204C230.481 252.916 230.349 252.572 230.349 252.172C230.349 251.828 230.441 251.524 230.625 251.26C230.817 250.996 231.081 250.792 231.417 250.648C231.753 250.496 232.133 250.42 232.557 250.42C233.173 250.42 233.693 250.572 234.117 250.876C234.541 251.18 234.821 251.612 234.957 252.172L234.021 252.364L233.889 252.34C233.817 252.036 233.649 251.8 233.385 251.632C233.129 251.464 232.845 251.38 232.533 251.38C232.205 251.38 231.929 251.452 231.705 251.596C231.489 251.732 231.381 251.912 231.381 252.136C231.381 252.32 231.449 252.476 231.585 252.604C231.729 252.724 231.953 252.816 232.257 252.88L233.385 253.144C233.945 253.272 234.361 253.476 234.633 253.756C234.905 254.036 235.041 254.396 235.041 254.836C235.041 255.228 234.933 255.568 234.717 255.856C234.509 256.136 234.221 256.356 233.853 256.516C233.493 256.668 233.081 256.744 232.617 256.744Z" fill="#161617"/>
<path d="M280.173 256.744C279.405 256.744 278.721 256.564 278.121 256.204C277.521 255.836 277.049 255.324 276.705 254.668C276.369 254.012 276.201 253.248 276.201 252.376C276.201 251.512 276.369 250.756 276.705 250.108C277.041 249.452 277.509 248.944 278.109 248.584C278.717 248.216 279.413 248.032 280.197 248.032C281.013 248.032 281.729 248.24 282.345 248.656C282.961 249.072 283.409 249.64 283.689 250.36L282.837 250.612L282.705 250.588C282.465 250.084 282.129 249.7 281.697 249.436C281.273 249.164 280.781 249.028 280.221 249.028C279.645 249.028 279.133 249.164 278.685 249.436C278.237 249.708 277.885 250.096 277.629 250.6C277.373 251.104 277.245 251.692 277.245 252.364C277.245 253.052 277.373 253.652 277.629 254.164C277.885 254.668 278.237 255.06 278.685 255.34C279.141 255.612 279.657 255.748 280.233 255.748C280.769 255.748 281.245 255.624 281.661 255.376C282.077 255.128 282.401 254.8 282.633 254.392C282.865 253.984 282.981 253.54 282.981 253.06V252.616L283.497 253H280.377V252.016H283.761L283.929 252.184V256.588H282.993V254.608H283.353C283.169 255.072 282.913 255.464 282.585 255.784C282.265 256.104 281.897 256.344 281.481 256.504C281.065 256.664 280.629 256.744 280.173 256.744ZM285.57 256.588V250.576H286.554V252.268L286.266 252.088C286.41 251.624 286.678 251.256 287.07 250.984C287.462 250.712 287.902 250.576 288.39 250.576H289.002V251.536H288.234C287.906 251.536 287.618 251.616 287.37 251.776C287.13 251.928 286.938 252.144 286.794 252.424C286.658 252.696 286.59 253.016 286.59 253.384V256.588H285.57ZM291.591 256.744C291.175 256.744 290.803 256.664 290.475 256.504C290.155 256.344 289.903 256.124 289.719 255.844C289.535 255.556 289.443 255.228 289.443 254.86C289.443 254.332 289.631 253.904 290.007 253.576C290.391 253.248 290.919 253.056 291.591 253L293.907 252.832V253.744L291.795 253.912C291.355 253.944 291.027 254.04 290.811 254.2C290.603 254.352 290.499 254.568 290.499 254.848C290.499 255.112 290.611 255.332 290.835 255.508C291.059 255.684 291.347 255.772 291.699 255.772C292.059 255.772 292.387 255.688 292.683 255.52C292.979 255.352 293.211 255.128 293.379 254.848C293.555 254.568 293.643 254.256 293.643 253.912V252.94C293.643 252.484 293.499 252.108 293.211 251.812C292.931 251.516 292.555 251.368 292.083 251.368C291.715 251.368 291.399 251.46 291.135 251.644C290.871 251.82 290.691 252.068 290.595 252.388H290.463L289.575 252.1C289.751 251.564 290.059 251.148 290.499 250.852C290.939 250.556 291.471 250.408 292.095 250.408C292.911 250.408 293.539 250.652 293.979 251.14C294.427 251.628 294.651 252.316 294.651 253.204V256.588H293.691V254.836L294.051 255.028C293.955 255.356 293.783 255.652 293.535 255.916C293.295 256.172 293.007 256.376 292.671 256.528C292.343 256.672 291.983 256.744 291.591 256.744ZM299.318 256.744C298.902 256.744 298.518 256.66 298.166 256.492C297.822 256.316 297.526 256.08 297.278 255.784C297.038 255.488 296.862 255.152 296.75 254.776V252.376C296.862 251.992 297.038 251.656 297.278 251.368C297.526 251.072 297.822 250.84 298.166 250.672C298.518 250.504 298.902 250.42 299.318 250.42C299.862 250.42 300.346 250.556 300.77 250.828C301.194 251.1 301.534 251.476 301.79 251.956C302.046 252.428 302.174 252.968 302.174 253.576C302.174 254.192 302.046 254.74 301.79 255.22C301.534 255.692 301.194 256.064 300.77 256.336C300.346 256.608 299.862 256.744 299.318 256.744ZM296.234 258.988V250.576H297.218V252.724L297.038 253.576L297.254 254.44V258.988H296.234ZM299.246 255.772C299.614 255.772 299.942 255.68 300.23 255.496C300.518 255.304 300.742 255.044 300.902 254.716C301.07 254.388 301.154 254.008 301.154 253.576C301.154 253.144 301.07 252.764 300.902 252.436C300.742 252.108 300.518 251.852 300.23 251.668C299.942 251.484 299.614 251.392 299.246 251.392C298.862 251.392 298.518 251.484 298.214 251.668C297.918 251.852 297.682 252.108 297.506 252.436C297.338 252.764 297.254 253.144 297.254 253.576C297.254 254.008 297.338 254.388 297.506 254.716C297.682 255.044 297.918 255.304 298.214 255.496C298.518 255.68 298.862 255.772 299.246 255.772ZM303.513 256.588V247.948L304.497 247.828L304.533 247.924V252.268L304.209 252.088C304.321 251.744 304.497 251.448 304.737 251.2C304.977 250.952 305.257 250.76 305.577 250.624C305.905 250.488 306.253 250.42 306.621 250.42C307.053 250.42 307.437 250.512 307.773 250.696C308.117 250.88 308.385 251.152 308.577 251.512C308.769 251.872 308.865 252.324 308.865 252.868V256.588H307.845V253.12C307.845 252.688 307.781 252.348 307.653 252.1C307.525 251.844 307.349 251.664 307.125 251.56C306.909 251.456 306.661 251.404 306.381 251.404C306.077 251.404 305.781 251.48 305.493 251.632C305.213 251.776 304.981 251.996 304.797 252.292C304.621 252.588 304.533 252.956 304.533 253.396V256.588H303.513ZM310.437 256.588V250.576H311.457V256.588H310.437ZM310.953 249.46C310.753 249.46 310.585 249.392 310.449 249.256C310.313 249.12 310.245 248.952 310.245 248.752C310.245 248.552 310.313 248.384 310.449 248.248C310.585 248.104 310.753 248.032 310.953 248.032C311.153 248.032 311.321 248.104 311.457 248.248C311.601 248.384 311.673 248.552 311.673 248.752C311.673 248.952 311.601 249.12 311.457 249.256C311.321 249.392 311.153 249.46 310.953 249.46ZM313.097 256.588V250.576H314.081V252.268L313.793 252.088C313.905 251.744 314.081 251.448 314.321 251.2C314.561 250.952 314.841 250.76 315.161 250.624C315.489 250.488 315.837 250.42 316.205 250.42C316.637 250.42 317.021 250.512 317.357 250.696C317.701 250.88 317.969 251.152 318.161 251.512C318.353 251.872 318.449 252.324 318.449 252.868V256.588H317.429V253.12C317.429 252.688 317.365 252.348 317.237 252.1C317.109 251.844 316.933 251.664 316.709 251.56C316.493 251.456 316.245 251.404 315.965 251.404C315.661 251.404 315.365 251.48 315.077 251.632C314.797 251.776 314.565 251.996 314.381 252.292C314.205 252.588 314.117 252.956 314.117 253.396V256.588H313.097ZM321.922 258.988C321.138 258.988 320.526 258.828 320.086 258.508C319.646 258.188 319.426 257.756 319.426 257.212C319.426 256.868 319.51 256.564 319.678 256.3C319.854 256.028 320.11 255.82 320.446 255.676L320.962 256.192C320.786 256.272 320.65 256.388 320.554 256.54C320.458 256.692 320.41 256.856 320.41 257.032C320.41 257.336 320.53 257.584 320.77 257.776C321.018 257.976 321.366 258.076 321.814 258.076H322.654C323.118 258.076 323.482 257.996 323.746 257.836C324.01 257.684 324.142 257.456 324.142 257.152C324.142 256.936 324.054 256.764 323.878 256.636C323.71 256.508 323.458 256.444 323.122 256.444H321.502C321.182 256.444 320.89 256.388 320.626 256.276C320.37 256.156 320.166 255.996 320.014 255.796C319.862 255.588 319.786 255.348 319.786 255.076C319.786 254.812 319.866 254.568 320.026 254.344C320.186 254.12 320.434 253.944 320.77 253.816L321.334 254.32C321.118 254.36 320.962 254.44 320.866 254.56C320.778 254.672 320.734 254.804 320.734 254.956C320.734 255.14 320.81 255.284 320.962 255.388C321.114 255.492 321.322 255.544 321.586 255.544H323.158C323.758 255.544 324.234 255.692 324.586 255.988C324.938 256.284 325.114 256.672 325.114 257.152C325.114 257.72 324.89 258.168 324.442 258.496C323.994 258.824 323.394 258.988 322.642 258.988H321.922ZM322.318 254.704C321.846 254.704 321.426 254.612 321.058 254.428C320.698 254.244 320.418 253.992 320.218 253.672C320.018 253.344 319.918 252.972 319.918 252.556C319.918 252.132 320.018 251.76 320.218 251.44C320.418 251.12 320.698 250.872 321.058 250.696C321.426 250.512 321.846 250.42 322.318 250.42C322.798 250.42 323.214 250.512 323.566 250.696C323.926 250.872 324.206 251.12 324.406 251.44C324.614 251.76 324.718 252.132 324.718 252.556C324.718 252.972 324.614 253.344 324.406 253.672C324.206 253.992 323.926 254.244 323.566 254.428C323.214 254.612 322.798 254.704 322.318 254.704ZM322.318 253.816C322.742 253.816 323.086 253.7 323.35 253.468C323.614 253.236 323.746 252.932 323.746 252.556C323.746 252.188 323.614 251.888 323.35 251.656C323.086 251.424 322.742 251.308 322.318 251.308C321.886 251.308 321.538 251.424 321.274 251.656C321.018 251.888 320.89 252.188 320.89 252.556C320.89 252.932 321.018 253.236 321.274 253.468C321.538 253.7 321.886 253.816 322.318 253.816ZM323.962 251.332L323.29 250.912C323.29 250.6 323.354 250.32 323.482 250.072C323.618 249.824 323.794 249.632 324.01 249.496C324.226 249.352 324.47 249.28 324.742 249.28C324.806 249.28 324.874 249.284 324.946 249.292C325.026 249.292 325.086 249.3 325.126 249.316V250.24L325.066 250.372C324.986 250.348 324.89 250.336 324.778 250.336C324.506 250.336 324.302 250.428 324.166 250.612C324.03 250.796 323.962 251.036 323.962 251.332Z" fill="#161617"/>
<path d="M371.185 250.696C371.185 250.216 371.045 249.844 370.765 249.58C370.493 249.308 370.109 249.172 369.613 249.172H367.189V248.188H369.649C370.441 248.188 371.073 248.416 371.545 248.872C372.017 249.32 372.253 249.928 372.253 250.696H371.185ZM366.625 256.588V248.188H367.645V256.588H366.625ZM367.189 253.192V252.22H369.613C370.109 252.22 370.493 252.084 370.765 251.812C371.045 251.54 371.185 251.168 371.185 250.696H372.253C372.253 251.456 372.017 252.064 371.545 252.52C371.073 252.968 370.441 253.192 369.649 253.192H367.189ZM373.384 256.588V250.576H374.368V252.268L374.08 252.088C374.224 251.624 374.492 251.256 374.884 250.984C375.276 250.712 375.716 250.576 376.204 250.576H376.816V251.536H376.048C375.72 251.536 375.432 251.616 375.184 251.776C374.944 251.928 374.752 252.144 374.608 252.424C374.472 252.696 374.404 253.016 374.404 253.384V256.588H373.384ZM380.149 256.744C379.565 256.744 379.049 256.612 378.601 256.348C378.153 256.076 377.801 255.704 377.545 255.232C377.289 254.752 377.161 254.2 377.161 253.576C377.161 252.952 377.289 252.404 377.545 251.932C377.801 251.452 378.153 251.08 378.601 250.816C379.049 250.552 379.565 250.42 380.149 250.42C380.741 250.42 381.261 250.552 381.709 250.816C382.157 251.08 382.509 251.452 382.765 251.932C383.021 252.404 383.149 252.952 383.149 253.576C383.149 254.2 383.021 254.752 382.765 255.232C382.509 255.704 382.157 256.076 381.709 256.348C381.261 256.612 380.741 256.744 380.149 256.744ZM380.149 255.772C380.541 255.772 380.881 255.684 381.169 255.508C381.465 255.324 381.697 255.068 381.865 254.74C382.033 254.404 382.117 254.016 382.117 253.576C382.117 253.128 382.033 252.744 381.865 252.424C381.697 252.096 381.465 251.844 381.169 251.668C380.881 251.484 380.541 251.392 380.149 251.392C379.765 251.392 379.425 251.484 379.129 251.668C378.833 251.844 378.601 252.096 378.433 252.424C378.265 252.744 378.181 253.128 378.181 253.576C378.181 254.016 378.265 254.404 378.433 254.74C378.601 255.068 378.833 255.324 379.129 255.508C379.425 255.684 379.765 255.772 380.149 255.772ZM387.579 256.744C387.163 256.744 386.779 256.66 386.427 256.492C386.083 256.324 385.787 256.092 385.539 255.796C385.299 255.5 385.123 255.164 385.011 254.788V252.376C385.123 251.992 385.299 251.656 385.539 251.368C385.787 251.072 386.083 250.84 386.427 250.672C386.779 250.504 387.163 250.42 387.579 250.42C388.123 250.42 388.607 250.556 389.031 250.828C389.455 251.1 389.795 251.476 390.051 251.956C390.307 252.428 390.435 252.968 390.435 253.576C390.435 254.192 390.307 254.74 390.051 255.22C389.795 255.692 389.455 256.064 389.031 256.336C388.607 256.608 388.123 256.744 387.579 256.744ZM384.495 256.588V247.948L385.479 247.828L385.515 247.924V252.724L385.299 253.576L385.479 254.44V256.588H384.495ZM387.507 255.772C387.875 255.772 388.203 255.68 388.491 255.496C388.779 255.304 389.003 255.044 389.163 254.716C389.331 254.388 389.415 254.008 389.415 253.576C389.415 253.144 389.331 252.764 389.163 252.436C389.003 252.108 388.779 251.852 388.491 251.668C388.203 251.484 387.875 251.392 387.507 251.392C387.123 251.392 386.779 251.484 386.475 251.668C386.179 251.852 385.943 252.108 385.767 252.436C385.599 252.764 385.515 253.144 385.515 253.576C385.515 254.008 385.599 254.388 385.767 254.716C385.943 255.044 386.179 255.304 386.475 255.496C386.779 255.68 387.123 255.772 387.507 255.772ZM391.784 256.588V247.948L392.768 247.828L392.804 247.924V256.588H391.784ZM397.141 256.744C396.557 256.744 396.041 256.612 395.593 256.348C395.145 256.076 394.793 255.704 394.537 255.232C394.289 254.76 394.165 254.208 394.165 253.576C394.165 252.952 394.289 252.404 394.537 251.932C394.785 251.452 395.129 251.08 395.569 250.816C396.017 250.552 396.529 250.42 397.105 250.42C397.673 250.42 398.169 250.556 398.593 250.828C399.025 251.092 399.361 251.468 399.601 251.956C399.841 252.444 399.961 253.012 399.961 253.66V253.804L399.781 253.972H394.729V253.024H399.409L398.929 253.216C398.905 252.832 398.809 252.504 398.641 252.232C398.473 251.96 398.257 251.752 397.993 251.608C397.729 251.456 397.433 251.38 397.105 251.38C396.753 251.38 396.429 251.468 396.133 251.644C395.837 251.812 395.605 252.052 395.437 252.364C395.269 252.676 395.185 253.036 395.185 253.444V253.684C395.185 254.084 395.269 254.444 395.437 254.764C395.605 255.076 395.837 255.324 396.133 255.508C396.429 255.692 396.765 255.784 397.141 255.784C397.509 255.784 397.829 255.696 398.101 255.52C398.373 255.336 398.585 255.088 398.737 254.776H398.881L399.721 255.148C399.497 255.644 399.157 256.036 398.701 256.324C398.253 256.604 397.733 256.744 397.141 256.744ZM401.24 256.588V250.576H402.224V252.244L401.972 252.016C402.084 251.688 402.256 251.408 402.488 251.176C402.72 250.936 402.992 250.752 403.304 250.624C403.616 250.488 403.944 250.42 404.288 250.42C404.808 250.42 405.26 250.568 405.644 250.864C406.028 251.16 406.28 251.588 406.4 252.148L405.98 252.136C406.084 251.792 406.256 251.492 406.496 251.236C406.744 250.98 407.04 250.78 407.384 250.636C407.728 250.492 408.1 250.42 408.5 250.42C408.908 250.42 409.276 250.512 409.604 250.696C409.932 250.88 410.192 251.152 410.384 251.512C410.576 251.872 410.672 252.324 410.672 252.868V256.588H409.652V253.108C409.652 252.676 409.588 252.336 409.46 252.088C409.332 251.84 409.164 251.664 408.956 251.56C408.748 251.456 408.512 251.404 408.248 251.404C407.976 251.404 407.704 251.476 407.432 251.62C407.16 251.764 406.932 251.984 406.748 252.28C406.564 252.568 406.472 252.94 406.472 253.396V256.588H405.452V253.108C405.452 252.676 405.388 252.336 405.26 252.088C405.132 251.84 404.96 251.664 404.744 251.56C404.536 251.456 404.304 251.404 404.048 251.404C403.776 251.404 403.5 251.48 403.22 251.632C402.948 251.776 402.72 251.996 402.536 252.292C402.352 252.58 402.26 252.948 402.26 253.396V256.588H401.24ZM416.943 256.744C416.311 256.744 415.779 256.592 415.347 256.288C414.915 255.984 414.627 255.56 414.483 255.016L415.419 254.788L415.551 254.812C415.639 255.116 415.815 255.356 416.079 255.532C416.351 255.7 416.667 255.784 417.027 255.784C417.387 255.784 417.691 255.704 417.939 255.544C418.195 255.376 418.323 255.16 418.323 254.896C418.323 254.68 418.247 254.508 418.095 254.38C417.951 254.244 417.731 254.144 417.435 254.08L416.319 253.828C415.759 253.7 415.343 253.492 415.071 253.204C414.807 252.916 414.675 252.572 414.675 252.172C414.675 251.828 414.767 251.524 414.951 251.26C415.143 250.996 415.407 250.792 415.743 250.648C416.079 250.496 416.459 250.42 416.883 250.42C417.499 250.42 418.019 250.572 418.443 250.876C418.867 251.18 419.147 251.612 419.283 252.172L418.347 252.364L418.215 252.34C418.143 252.036 417.975 251.8 417.711 251.632C417.455 251.464 417.171 251.38 416.859 251.38C416.531 251.38 416.255 251.452 416.031 251.596C415.815 251.732 415.707 251.912 415.707 252.136C415.707 252.32 415.775 252.476 415.911 252.604C416.055 252.724 416.279 252.816 416.583 252.88L417.711 253.144C418.271 253.272 418.687 253.476 418.959 253.756C419.231 254.036 419.367 254.396 419.367 254.836C419.367 255.228 419.259 255.568 419.043 255.856C418.835 256.136 418.547 256.356 418.179 256.516C417.819 256.668 417.407 256.744 416.943 256.744ZM423.216 256.744C422.632 256.744 422.116 256.612 421.668 256.348C421.22 256.076 420.868 255.704 420.612 255.232C420.356 254.752 420.228 254.2 420.228 253.576C420.228 252.952 420.356 252.404 420.612 251.932C420.868 251.452 421.22 251.08 421.668 250.816C422.116 250.552 422.632 250.42 423.216 250.42C423.808 250.42 424.328 250.552 424.776 250.816C425.224 251.08 425.576 251.452 425.832 251.932C426.088 252.404 426.216 252.952 426.216 253.576C426.216 254.2 426.088 254.752 425.832 255.232C425.576 255.704 425.224 256.076 424.776 256.348C424.328 256.612 423.808 256.744 423.216 256.744ZM423.216 255.772C423.608 255.772 423.948 255.684 424.236 255.508C424.532 255.324 424.764 255.068 424.932 254.74C425.1 254.404 425.184 254.016 425.184 253.576C425.184 253.128 425.1 252.744 424.932 252.424C424.764 252.096 424.532 251.844 424.236 251.668C423.948 251.484 423.608 251.392 423.216 251.392C422.832 251.392 422.492 251.484 422.196 251.668C421.9 251.844 421.668 252.096 421.5 252.424C421.332 252.744 421.248 253.128 421.248 253.576C421.248 254.016 421.332 254.404 421.5 254.74C421.668 255.068 421.9 255.324 422.196 255.508C422.492 255.684 422.832 255.772 423.216 255.772ZM427.562 256.588V247.948L428.546 247.828L428.582 247.924V256.588H427.562ZM432.283 256.588L432.307 255.748L434.395 250.576H435.451V250.672L433.015 256.588H432.283ZM432.019 256.588L429.583 250.672V250.576H430.639L432.727 255.748L432.763 256.588H432.019ZM436.373 256.588V250.576H437.393V256.588H436.373ZM436.889 249.46C436.689 249.46 436.521 249.392 436.385 249.256C436.249 249.12 436.181 248.952 436.181 248.752C436.181 248.552 436.249 248.384 436.385 248.248C436.521 248.104 436.689 248.032 436.889 248.032C437.089 248.032 437.257 248.104 437.393 248.248C437.537 248.384 437.609 248.552 437.609 248.752C437.609 248.952 437.537 249.12 437.393 249.256C437.257 249.392 437.089 249.46 436.889 249.46ZM439.033 256.588V250.576H440.017V252.268L439.729 252.088C439.841 251.744 440.017 251.448 440.257 251.2C440.497 250.952 440.777 250.76 441.097 250.624C441.425 250.488 441.773 250.42 442.141 250.42C442.573 250.42 442.957 250.512 443.293 250.696C443.637 250.88 443.905 251.152 444.097 251.512C444.289 251.872 444.385 252.324 444.385 252.868V256.588H443.365V253.12C443.365 252.688 443.301 252.348 443.173 252.1C443.045 251.844 442.869 251.664 442.645 251.56C442.429 251.456 442.181 251.404 441.901 251.404C441.597 251.404 441.301 251.48 441.013 251.632C440.733 251.776 440.501 251.996 440.317 252.292C440.141 252.588 440.053 252.956 440.053 253.396V256.588H439.033ZM447.857 258.988C447.073 258.988 446.461 258.828 446.021 258.508C445.581 258.188 445.361 257.756 445.361 257.212C445.361 256.868 445.445 256.564 445.613 256.3C445.789 256.028 446.045 255.82 446.381 255.676L446.897 256.192C446.721 256.272 446.585 256.388 446.489 256.54C446.393 256.692 446.345 256.856 446.345 257.032C446.345 257.336 446.465 257.584 446.705 257.776C446.953 257.976 447.301 258.076 447.749 258.076H448.589C449.053 258.076 449.417 257.996 449.681 257.836C449.945 257.684 450.077 257.456 450.077 257.152C450.077 256.936 449.989 256.764 449.813 256.636C449.645 256.508 449.393 256.444 449.057 256.444H447.437C447.117 256.444 446.825 256.388 446.561 256.276C446.305 256.156 446.101 255.996 445.949 255.796C445.797 255.588 445.721 255.348 445.721 255.076C445.721 254.812 445.801 254.568 445.961 254.344C446.121 254.12 446.369 253.944 446.705 253.816L447.269 254.32C447.053 254.36 446.897 254.44 446.801 254.56C446.713 254.672 446.669 254.804 446.669 254.956C446.669 255.14 446.745 255.284 446.897 255.388C447.049 255.492 447.257 255.544 447.521 255.544H449.093C449.693 255.544 450.169 255.692 450.521 255.988C450.873 256.284 451.049 256.672 451.049 257.152C451.049 257.72 450.825 258.168 450.377 258.496C449.929 258.824 449.329 258.988 448.577 258.988H447.857ZM448.253 254.704C447.781 254.704 447.361 254.612 446.993 254.428C446.633 254.244 446.353 253.992 446.153 253.672C445.953 253.344 445.853 252.972 445.853 252.556C445.853 252.132 445.953 251.76 446.153 251.44C446.353 251.12 446.633 250.872 446.993 250.696C447.361 250.512 447.781 250.42 448.253 250.42C448.733 250.42 449.149 250.512 449.501 250.696C449.861 250.872 450.141 251.12 450.341 251.44C450.549 251.76 450.653 252.132 450.653 252.556C450.653 252.972 450.549 253.344 450.341 253.672C450.141 253.992 449.861 254.244 449.501 254.428C449.149 254.612 448.733 254.704 448.253 254.704ZM448.253 253.816C448.677 253.816 449.021 253.7 449.285 253.468C449.549 253.236 449.681 252.932 449.681 252.556C449.681 252.188 449.549 251.888 449.285 251.656C449.021 251.424 448.677 251.308 448.253 251.308C447.821 251.308 447.473 251.424 447.209 251.656C446.953 251.888 446.825 252.188 446.825 252.556C446.825 252.932 446.953 253.236 447.209 253.468C447.473 253.7 447.821 253.816 448.253 253.816ZM449.897 251.332L449.225 250.912C449.225 250.6 449.289 250.32 449.417 250.072C449.553 249.824 449.729 249.632 449.945 249.496C450.161 249.352 450.405 249.28 450.677 249.28C450.741 249.28 450.809 249.284 450.881 249.292C450.961 249.292 451.021 249.3 451.061 249.316V250.24L451.001 250.372C450.921 250.348 450.825 250.336 450.713 250.336C450.441 250.336 450.237 250.428 450.101 250.612C449.965 250.796 449.897 251.036 449.897 251.332Z" fill="#161617"/>
<path d="M492.698 256.588V248.188H493.718V256.588H492.698ZM493.226 252.892V251.896H497.558V252.892H493.226ZM493.226 249.172V248.188H497.918V249.172H493.226ZM504.256 250.576V256.588H503.272V254.896L503.56 255.076C503.448 255.412 503.272 255.708 503.032 255.964C502.8 256.212 502.52 256.404 502.192 256.54C501.872 256.676 501.524 256.744 501.148 256.744C500.716 256.744 500.332 256.652 499.996 256.468C499.66 256.284 499.392 256.012 499.192 255.652C499 255.284 498.904 254.832 498.904 254.296V250.576H499.924V254.032C499.924 254.464 499.988 254.808 500.116 255.064C500.252 255.312 500.428 255.492 500.644 255.604C500.868 255.708 501.12 255.76 501.4 255.76C501.712 255.76 502.004 255.684 502.276 255.532C502.556 255.38 502.784 255.156 502.96 254.86C503.144 254.564 503.236 254.2 503.236 253.768V250.576H504.256ZM505.89 256.588V250.576H506.874V252.268L506.586 252.088C506.698 251.744 506.874 251.448 507.114 251.2C507.354 250.952 507.634 250.76 507.954 250.624C508.282 250.488 508.63 250.42 508.998 250.42C509.43 250.42 509.814 250.512 510.15 250.696C510.494 250.88 510.762 251.152 510.954 251.512C511.146 251.872 511.242 252.324 511.242 252.868V256.588H510.222V253.12C510.222 252.688 510.158 252.348 510.03 252.1C509.902 251.844 509.726 251.664 509.502 251.56C509.286 251.456 509.038 251.404 508.758 251.404C508.454 251.404 508.158 251.48 507.87 251.632C507.59 251.776 507.358 251.996 507.174 252.292C506.998 252.588 506.91 252.956 506.91 253.396V256.588H505.89ZM515.504 256.744C514.904 256.744 514.376 256.612 513.92 256.348C513.464 256.076 513.108 255.704 512.852 255.232C512.596 254.76 512.468 254.208 512.468 253.576C512.468 252.952 512.596 252.404 512.852 251.932C513.108 251.452 513.464 251.08 513.92 250.816C514.376 250.552 514.904 250.42 515.504 250.42C515.96 250.42 516.368 250.504 516.728 250.672C517.096 250.832 517.408 251.064 517.664 251.368C517.928 251.664 518.124 252.028 518.252 252.46L517.364 252.712H517.232C517.096 252.304 516.872 251.984 516.56 251.752C516.256 251.512 515.904 251.392 515.504 251.392C515.096 251.392 514.74 251.484 514.436 251.668C514.14 251.852 513.908 252.108 513.74 252.436C513.572 252.764 513.488 253.144 513.488 253.576C513.488 254.008 513.572 254.392 513.74 254.728C513.908 255.056 514.14 255.312 514.436 255.496C514.74 255.68 515.096 255.772 515.504 255.772C515.784 255.772 516.04 255.72 516.272 255.616C516.504 255.512 516.704 255.36 516.872 255.16C517.048 254.96 517.184 254.724 517.28 254.452H517.412L518.312 254.704C518.168 255.136 517.96 255.508 517.688 255.82C517.416 256.124 517.096 256.356 516.728 256.516C516.368 256.668 515.96 256.744 515.504 256.744ZM521.564 256.588C521.044 256.588 520.62 256.424 520.292 256.096C519.964 255.76 519.8 255.308 519.8 254.74V248.956H520.82V254.656C520.82 255 520.896 255.248 521.048 255.4C521.2 255.544 521.444 255.616 521.78 255.616H522.5L522.56 255.748V256.588H521.564ZM518.768 251.536V250.576H522.56V251.536H518.768ZM523.902 256.588V250.576H524.922V256.588H523.902ZM524.418 249.46C524.218 249.46 524.05 249.392 523.914 249.256C523.778 249.12 523.71 248.952 523.71 248.752C523.71 248.552 523.778 248.384 523.914 248.248C524.05 248.104 524.218 248.032 524.418 248.032C524.618 248.032 524.786 248.104 524.922 248.248C525.066 248.384 525.138 248.552 525.138 248.752C525.138 248.952 525.066 249.12 524.922 249.256C524.786 249.392 524.618 249.46 524.418 249.46ZM529.202 256.744C528.618 256.744 528.102 256.612 527.654 256.348C527.206 256.076 526.854 255.704 526.598 255.232C526.342 254.752 526.214 254.2 526.214 253.576C526.214 252.952 526.342 252.404 526.598 251.932C526.854 251.452 527.206 251.08 527.654 250.816C528.102 250.552 528.618 250.42 529.202 250.42C529.794 250.42 530.314 250.552 530.762 250.816C531.21 251.08 531.562 251.452 531.818 251.932C532.074 252.404 532.202 252.952 532.202 253.576C532.202 254.2 532.074 254.752 531.818 255.232C531.562 255.704 531.21 256.076 530.762 256.348C530.314 256.612 529.794 256.744 529.202 256.744ZM529.202 255.772C529.594 255.772 529.934 255.684 530.222 255.508C530.518 255.324 530.75 255.068 530.918 254.74C531.086 254.404 531.17 254.016 531.17 253.576C531.17 253.128 531.086 252.744 530.918 252.424C530.75 252.096 530.518 251.844 530.222 251.668C529.934 251.484 529.594 251.392 529.202 251.392C528.818 251.392 528.478 251.484 528.182 251.668C527.886 251.844 527.654 252.096 527.486 252.424C527.318 252.744 527.234 253.128 527.234 253.576C527.234 254.016 527.318 254.404 527.486 254.74C527.654 255.068 527.886 255.324 528.182 255.508C528.478 255.684 528.818 255.772 529.202 255.772ZM533.488 256.588V250.576H534.472V252.268L534.184 252.088C534.296 251.744 534.472 251.448 534.712 251.2C534.952 250.952 535.232 250.76 535.552 250.624C535.88 250.488 536.228 250.42 536.596 250.42C537.028 250.42 537.412 250.512 537.748 250.696C538.092 250.88 538.36 251.152 538.552 251.512C538.744 251.872 538.84 252.324 538.84 252.868V256.588H537.82V253.12C537.82 252.688 537.756 252.348 537.628 252.1C537.5 251.844 537.324 251.664 537.1 251.56C536.884 251.456 536.636 251.404 536.356 251.404C536.052 251.404 535.756 251.48 535.468 251.632C535.188 251.776 534.956 251.996 534.772 252.292C534.596 252.588 534.508 252.956 534.508 253.396V256.588H533.488ZM542.406 256.744C541.774 256.744 541.242 256.592 540.81 256.288C540.378 255.984 540.09 255.56 539.946 255.016L540.882 254.788L541.014 254.812C541.102 255.116 541.278 255.356 541.542 255.532C541.814 255.7 542.13 255.784 542.49 255.784C542.85 255.784 543.154 255.704 543.402 255.544C543.658 255.376 543.786 255.16 543.786 254.896C543.786 254.68 543.71 254.508 543.558 254.38C543.414 254.244 543.194 254.144 542.898 254.08L541.782 253.828C541.222 253.7 540.806 253.492 540.534 253.204C540.27 252.916 540.138 252.572 540.138 252.172C540.138 251.828 540.23 251.524 540.414 251.26C540.606 250.996 540.87 250.792 541.206 250.648C541.542 250.496 541.922 250.42 542.346 250.42C542.962 250.42 543.482 250.572 543.906 250.876C544.33 251.18 544.61 251.612 544.746 252.172L543.81 252.364L543.678 252.34C543.606 252.036 543.438 251.8 543.174 251.632C542.918 251.464 542.634 251.38 542.322 251.38C541.994 251.38 541.718 251.452 541.494 251.596C541.278 251.732 541.17 251.912 541.17 252.136C541.17 252.32 541.238 252.476 541.374 252.604C541.518 252.724 541.742 252.816 542.046 252.88L543.174 253.144C543.734 253.272 544.15 253.476 544.422 253.756C544.694 254.036 544.83 254.396 544.83 254.836C544.83 255.228 544.722 255.568 544.506 255.856C544.298 256.136 544.01 256.356 543.642 256.516C543.282 256.668 542.87 256.744 542.406 256.744Z" fill="#161617"/>
<path d="M592.264 256.588L589.228 248.44L589.144 248.188H590.164L593.356 256.492V256.588H592.264ZM585.952 256.588V256.492L589.144 248.188H590.164L590.08 248.44L587.044 256.588H585.952ZM587.188 254.428L587.548 253.432H591.88L592.24 254.428H587.188ZM594.22 256.588V250.576H595.204V252.268L594.916 252.088C595.06 251.624 595.328 251.256 595.72 250.984C596.112 250.712 596.552 250.576 597.04 250.576H597.652V251.536H596.884C596.556 251.536 596.268 251.616 596.02 251.776C595.78 251.928 595.588 252.144 595.444 252.424C595.308 252.696 595.24 253.016 595.24 253.384V256.588H594.22ZM598.58 256.588V250.576H599.6V256.588H598.58ZM599.096 249.46C598.896 249.46 598.728 249.392 598.592 249.256C598.456 249.12 598.388 248.952 598.388 248.752C598.388 248.552 598.456 248.384 598.592 248.248C598.728 248.104 598.896 248.032 599.096 248.032C599.296 248.032 599.464 248.104 599.6 248.248C599.744 248.384 599.816 248.552 599.816 248.752C599.816 248.952 599.744 249.12 599.6 249.256C599.464 249.392 599.296 249.46 599.096 249.46ZM603.086 256.588C602.566 256.588 602.142 256.424 601.814 256.096C601.486 255.76 601.322 255.308 601.322 254.74V248.956H602.342V254.656C602.342 255 602.418 255.248 602.57 255.4C602.722 255.544 602.966 255.616 603.302 255.616H604.022L604.082 255.748V256.588H603.086ZM600.29 251.536V250.576H604.082V251.536H600.29ZM605.483 256.588V247.948L606.467 247.828L606.503 247.924V252.268L606.179 252.088C606.291 251.744 606.467 251.448 606.707 251.2C606.947 250.952 607.227 250.76 607.547 250.624C607.875 250.488 608.223 250.42 608.591 250.42C609.023 250.42 609.407 250.512 609.743 250.696C610.087 250.88 610.355 251.152 610.547 251.512C610.739 251.872 610.835 252.324 610.835 252.868V256.588H609.815V253.12C609.815 252.688 609.751 252.348 609.623 252.1C609.495 251.844 609.319 251.664 609.095 251.56C608.879 251.456 608.631 251.404 608.351 251.404C608.047 251.404 607.751 251.48 607.463 251.632C607.183 251.776 606.951 251.996 606.767 252.292C606.591 252.588 606.503 252.956 606.503 253.396V256.588H605.483ZM612.408 256.588V250.576H613.392V252.244L613.14 252.016C613.252 251.688 613.424 251.408 613.656 251.176C613.888 250.936 614.16 250.752 614.472 250.624C614.784 250.488 615.112 250.42 615.456 250.42C615.976 250.42 616.428 250.568 616.812 250.864C617.196 251.16 617.448 251.588 617.568 252.148L617.148 252.136C617.252 251.792 617.424 251.492 617.664 251.236C617.912 250.98 618.208 250.78 618.552 250.636C618.896 250.492 619.268 250.42 619.668 250.42C620.076 250.42 620.444 250.512 620.772 250.696C621.1 250.88 621.36 251.152 621.552 251.512C621.744 251.872 621.84 252.324 621.84 252.868V256.588H620.82V253.108C620.82 252.676 620.756 252.336 620.628 252.088C620.5 251.84 620.332 251.664 620.124 251.56C619.916 251.456 619.68 251.404 619.416 251.404C619.144 251.404 618.872 251.476 618.6 251.62C618.328 251.764 618.1 251.984 617.916 252.28C617.732 252.568 617.64 252.94 617.64 253.396V256.588H616.62V253.108C616.62 252.676 616.556 252.336 616.428 252.088C616.3 251.84 616.128 251.664 615.912 251.56C615.704 251.456 615.472 251.404 615.216 251.404C614.944 251.404 614.668 251.48 614.388 251.632C614.116 251.776 613.888 251.996 613.704 252.292C613.52 252.58 613.428 252.948 613.428 253.396V256.588H612.408ZM626.051 256.744C625.467 256.744 624.951 256.612 624.503 256.348C624.055 256.076 623.703 255.704 623.447 255.232C623.199 254.76 623.075 254.208 623.075 253.576C623.075 252.952 623.199 252.404 623.447 251.932C623.695 251.452 624.039 251.08 624.479 250.816C624.927 250.552 625.439 250.42 626.015 250.42C626.583 250.42 627.079 250.556 627.503 250.828C627.935 251.092 628.271 251.468 628.511 251.956C628.751 252.444 628.871 253.012 628.871 253.66V253.804L628.691 253.972H623.639V253.024H628.319L627.839 253.216C627.815 252.832 627.719 252.504 627.551 252.232C627.383 251.96 627.167 251.752 626.903 251.608C626.639 251.456 626.343 251.38 626.015 251.38C625.663 251.38 625.339 251.468 625.043 251.644C624.747 251.812 624.515 252.052 624.347 252.364C624.179 252.676 624.095 253.036 624.095 253.444V253.684C624.095 254.084 624.179 254.444 624.347 254.764C624.515 255.076 624.747 255.324 625.043 255.508C625.339 255.692 625.675 255.784 626.051 255.784C626.419 255.784 626.739 255.696 627.011 255.52C627.283 255.336 627.495 255.088 627.647 254.776H627.791L628.631 255.148C628.407 255.644 628.067 256.036 627.611 256.324C627.163 256.604 626.643 256.744 626.051 256.744ZM632.184 256.588C631.664 256.588 631.24 256.424 630.912 256.096C630.584 255.76 630.42 255.308 630.42 254.74V248.956H631.44V254.656C631.44 255 631.516 255.248 631.668 255.4C631.82 255.544 632.064 255.616 632.4 255.616H633.12L633.18 255.748V256.588H632.184ZM629.388 251.536V250.576H633.18V251.536H629.388ZM634.521 256.588V250.576H635.541V256.588H634.521ZM635.037 249.46C634.837 249.46 634.669 249.392 634.533 249.256C634.397 249.12 634.329 248.952 634.329 248.752C634.329 248.552 634.397 248.384 634.533 248.248C634.669 248.104 634.837 248.032 635.037 248.032C635.237 248.032 635.405 248.104 635.541 248.248C635.685 248.384 635.757 248.552 635.757 248.752C635.757 248.952 635.685 249.12 635.541 249.256C635.405 249.392 635.237 249.46 635.037 249.46ZM639.869 256.744C639.269 256.744 638.741 256.612 638.285 256.348C637.829 256.076 637.473 255.704 637.217 255.232C636.961 254.76 636.833 254.208 636.833 253.576C636.833 252.952 636.961 252.404 637.217 251.932C637.473 251.452 637.829 251.08 638.285 250.816C638.741 250.552 639.269 250.42 639.869 250.42C640.325 250.42 640.733 250.504 641.093 250.672C641.461 250.832 641.773 251.064 642.029 251.368C642.293 251.664 642.489 252.028 642.617 252.46L641.729 252.712H641.597C641.461 252.304 641.237 251.984 640.925 251.752C640.621 251.512 640.269 251.392 639.869 251.392C639.461 251.392 639.105 251.484 638.801 251.668C638.505 251.852 638.273 252.108 638.105 252.436C637.937 252.764 637.853 253.144 637.853 253.576C637.853 254.008 637.937 254.392 638.105 254.728C638.273 255.056 638.505 255.312 638.801 255.496C639.105 255.68 639.461 255.772 639.869 255.772C640.149 255.772 640.405 255.72 640.637 255.616C640.869 255.512 641.069 255.36 641.237 255.16C641.413 254.96 641.549 254.724 641.645 254.452H641.777L642.677 254.704C642.533 255.136 642.325 255.508 642.053 255.82C641.781 256.124 641.461 256.356 641.093 256.516C640.733 256.668 640.325 256.744 639.869 256.744Z" fill="#161617"/>
<path d="M196.468 184.22L118.854 217.475C111.644 220.564 104.061 222.696 96.2971 223.815L56.0859 229.615L656.672 231.063V151.063V122.563L612.586 101.063L535.594 75.2307C528.05 72.6995 519.718 74.8873 514.384 80.793L414.633 191.248C409.697 196.713 402.25 199.186 395.027 197.755L312.981 181.497C303.132 179.546 293.115 178.563 283.074 178.563H224.037C214.559 178.563 205.18 180.487 196.468 184.22Z" fill="url(#paint0_linear_7498_11465)"/>
<path d="M57 229.615L98.5106 223.628C105.411 222.633 112.152 220.738 118.561 217.992L197.382 184.22C206.094 180.487 215.473 178.563 224.951 178.563H283.932C294.341 178.563 304.723 179.619 314.919 181.715L394.892 198.158C402.14 199.649 409.636 197.201 414.608 191.721L515.193 80.8637C520.585 74.9213 529.006 72.7765 536.584 75.4158L613.086 102.063L656.086 122.063" stroke="#1B84FF" stroke-width="2.82824" stroke-linecap="round"/>
<rect x="607.971" y="97.9482" width="7.54197" height="7.54197" rx="3.77098" fill="white"/>
<rect x="607.971" y="97.9482" width="7.54197" height="7.54197" rx="3.77098" stroke="#1B84FF" stroke-width="3.77098"/>
<rect x="520.971" y="70.9482" width="7.54197" height="7.54197" rx="3.77098" fill="white"/>
<rect x="520.971" y="70.9482" width="7.54197" height="7.54197" rx="3.77098" stroke="#1B84FF" stroke-width="3.77098"/>
<rect x="295.971" y="174.603" width="7.54197" height="7.54197" rx="3.77098" fill="white"/>
<rect x="295.971" y="174.603" width="7.54197" height="7.54197" rx="3.77098" stroke="#1B84FF" stroke-width="3.77098"/>
<rect x="206.971" y="175.603" width="7.54197" height="7.54197" rx="3.77098" fill="white"/>
<rect x="206.971" y="175.603" width="7.54197" height="7.54197" rx="3.77098" stroke="#1B84FF" stroke-width="3.77098"/>
<rect x="401.971" y="193.948" width="7.54197" height="7.54197" rx="3.77098" fill="white"/>
<rect x="401.971" y="193.948" width="7.54197" height="7.54197" rx="3.77098" stroke="#1B84FF" stroke-width="3.77098"/>
<rect x="105.8" y="217.526" width="7.54197" height="7.54197" rx="3.77098" fill="white"/>
<rect x="105.8" y="217.526" width="7.54197" height="7.54197" rx="3.77098" stroke="#1B84FF" stroke-width="3.77098"/>
</g>
<defs>
<linearGradient id="paint0_linear_7498_11465" x1="396.678" y1="71.0627" x2="396.678" y2="258.681" gradientUnits="userSpaceOnUse">
<stop stop-color="#1B84FF" stop-opacity="0.25"/>
<stop offset="1" stop-color="white" stop-opacity="0"/>
</linearGradient>
<clipPath id="clip0_7498_11465">
<rect y="0.964111" width="658" height="304" rx="9.98201" fill="white"/>
</clipPath>
</defs>
</svg>
